<svg width="512" height="512" viewBox="0 0 512 512" fill="none" xmlns="http://www.w3.org/2000/svg">
<g opacity="0.15">
<path d="M137.889 238.848C137.889 283.143 151.076 323.425 172.516 352.705C193.954 381.981 223.806 400.432 257.019 400.432C290.223 400.432 320.079 381.981 341.524 352.705C362.971 323.425 376.167 283.143 376.167 238.848C376.167 194.553 362.971 154.271 341.524 124.991C320.079 95.715 290.223 77.2643 257.019 77.2643C223.814 77.2643 193.963 95.7151 172.523 124.992C151.08 154.271 137.889 194.553 137.889 238.848ZM145.661 238.848C145.661 196.181 158.322 157.611 178.619 129.781C198.918 101.947 226.688 85.033 257.019 85.033C287.35 85.033 315.125 101.947 335.428 129.781C355.729 157.611 368.395 196.181 368.395 238.848C368.395 281.515 355.729 320.085 335.428 347.915C315.125 375.749 287.35 392.663 257.019 392.663C226.688 392.663 198.918 375.75 178.619 347.915C158.322 320.085 145.661 281.515 145.661 238.848Z" fill="#014BDA" stroke="#014BDA" stroke-width="6"/>
<mask id="path-2-outside-1" maskUnits="userSpaceOnUse" x="115.684" y="30.981" width="314" height="417" fill="black">
<rect fill="white" x="115.684" y="30.981" width="314" height="417"/>
<path d="M256.439 441.725C249.989 441.725 243.556 441.177 237.158 440.045C156.347 425.86 106.443 324.512 125.884 214.126C145.342 103.74 226.897 25.4562 307.726 39.6413C388.537 53.8265 438.459 155.174 419 265.578C409.59 319.011 385.524 366.572 351.233 399.524C322.488 427.151 289.437 441.725 256.439 441.725ZM288.64 39.7475C215.29 39.7475 145.413 113.574 127.638 214.427C108.357 323.858 157.623 424.286 237.477 438.312C276.11 445.086 316.073 430.865 350.01 398.25C384.035 365.564 407.906 318.339 417.263 265.277L418.132 265.437L417.263 265.277C436.527 155.829 387.261 55.4007 307.407 41.3747C301.151 40.2781 294.878 39.7475 288.64 39.7475Z"/>
</mask>
<path d="M256.439 441.725C249.989 441.725 243.556 441.177 237.158 440.045C156.347 425.86 106.443 324.512 125.884 214.126C145.342 103.74 226.897 25.4562 307.726 39.6413C388.537 53.8265 438.459 155.174 419 265.578C409.59 319.011 385.524 366.572 351.233 399.524C322.488 427.151 289.437 441.725 256.439 441.725ZM288.64 39.7475C215.29 39.7475 145.413 113.574 127.638 214.427C108.357 323.858 157.623 424.286 237.477 438.312C276.11 445.086 316.073 430.865 350.01 398.25C384.035 365.564 407.906 318.339 417.263 265.277L418.132 265.437L417.263 265.277C436.527 155.829 387.261 55.4007 307.407 41.3747C301.151 40.2781 294.878 39.7475 288.64 39.7475Z" fill="#014BDA"/>
<path d="M237.158 440.045L238.204 434.137L238.195 434.135L237.158 440.045ZM125.884 214.126L119.975 213.084L119.975 213.085L125.884 214.126ZM307.726 39.6413L308.763 33.7317L308.763 33.7316L307.726 39.6413ZM419 265.578L413.091 264.537L413.091 264.537L419 265.578ZM351.233 399.524L347.075 395.197L347.075 395.198L351.233 399.524ZM127.638 214.427L121.729 213.385L121.729 213.385L127.638 214.427ZM237.477 438.312L236.439 444.221L236.441 444.222L237.477 438.312ZM350.01 398.25L345.853 393.923L345.852 393.924L350.01 398.25ZM417.263 265.277L418.345 259.376L412.404 258.286L411.355 264.235L417.263 265.277ZM417.263 265.277L411.354 264.237L410.322 270.105L416.181 271.179L417.263 265.277ZM307.407 41.3747L308.445 35.4651L308.443 35.4648L307.407 41.3747ZM256.439 435.725C250.33 435.725 244.247 435.206 238.204 434.137L236.113 445.953C242.864 447.148 249.647 447.725 256.439 447.725V435.725ZM238.195 434.135C200.136 427.455 168.841 400.169 149.309 360.51C129.781 320.858 122.271 269.234 131.793 215.167L119.975 213.085C110.056 269.404 117.778 323.647 138.544 365.812C159.306 407.969 193.369 438.45 236.121 445.955L238.195 434.135ZM131.793 215.168C141.323 161.1 166.03 115.126 197.945 84.4985C229.867 53.8647 268.619 38.87 306.689 45.551L308.763 33.7316C266.004 26.2275 223.564 43.2821 189.637 75.8403C155.703 108.405 129.902 156.766 119.975 213.084L131.793 215.168ZM306.688 45.551C344.748 52.2317 376.047 79.5173 395.581 119.179C415.112 158.833 422.622 210.461 413.091 264.537L424.909 266.62C434.837 210.292 427.115 156.044 406.346 113.877C385.582 71.7171 351.515 41.2361 308.763 33.7317L306.688 45.551ZM413.091 264.537C403.869 316.901 380.323 363.248 347.075 395.197L355.39 403.85C390.725 369.896 415.311 321.122 424.909 266.619L413.091 264.537ZM347.075 395.198C319.22 421.97 287.597 435.725 256.439 435.725V447.725C291.277 447.725 325.756 432.332 355.39 403.849L347.075 395.198ZM288.64 33.7475C211.182 33.7475 139.769 111.031 121.729 213.385L133.547 215.468C151.057 116.117 219.398 45.7475 288.64 45.7475V33.7475ZM121.729 213.385C111.891 269.222 119.491 322.994 139.995 364.789C160.495 406.575 194.158 436.795 236.439 444.221L238.515 432.402C200.942 425.803 170.045 398.795 150.769 359.503C131.496 320.22 124.104 269.062 133.547 215.468L121.729 213.385ZM236.441 444.222C277.347 451.394 319.161 436.219 354.167 402.576L345.852 393.924C312.984 425.512 274.874 438.778 238.513 432.402L236.441 444.222ZM354.166 402.577C389.238 368.887 413.627 320.447 423.172 266.319L411.355 264.235C402.186 316.231 378.833 362.242 345.853 393.923L354.166 402.577ZM416.181 271.179L417.05 271.338L419.214 259.535L418.345 259.376L416.181 271.179ZM419.214 259.535L418.345 259.376L416.181 271.179L417.05 271.338L419.214 259.535ZM423.173 266.317C433.002 210.472 425.397 156.696 404.891 114.9C384.389 73.1115 350.726 42.8917 308.445 35.4651L306.369 47.2842C343.941 53.8837 374.839 80.8909 394.117 120.185C413.392 159.472 420.789 210.634 411.354 264.237L423.173 266.317ZM308.443 35.4648C301.839 34.3071 295.218 33.7475 288.64 33.7475V45.7475C294.537 45.7475 300.464 46.249 306.371 47.2846L308.443 35.4648Z" fill="#014BDA" mask="url(#path-2-outside-1)"/>
<path d="M54.3508 200.105L54.3508 200.105C63.1164 152.553 88.1024 116.356 125.012 98.6475C161.919 80.9396 205.843 84.0478 248.534 106.915M54.3508 200.105L79.3628 349.459M54.3508 200.105C45.6067 247.547 53.9731 300.829 77.7783 350.223M54.3508 200.105L77.7783 350.223M248.534 106.915L247.697 108.478C289.94 131.089 326.146 170.618 349.771 219.651C349.773 219.656 349.775 219.66 349.777 219.665C374.138 270.237 381.277 323.406 373.002 368.489C364.728 413.561 340.977 450.784 303.381 468.843L304.151 470.448M248.534 106.915C291.118 129.718 327.596 169.514 351.383 218.891C375.963 269.911 383.117 323.574 374.691 369.088C366.266 414.599 342.193 452.191 304.151 470.448M248.534 106.915L247.697 108.478C247.692 108.476 247.688 108.473 247.684 108.471L77.7783 350.223M304.151 470.448C304.151 470.448 304.151 470.448 304.15 470.448L303.38 468.843C303.371 468.848 303.362 468.852 303.354 468.856C287.625 476.408 270.783 479.976 253.551 479.983C229.585 479.994 204.864 473.119 181.335 460.498C140.886 438.802 103.729 400.037 79.3628 349.459M304.151 470.448C288.179 478.119 271.055 481.745 253.551 481.745C187.77 481.745 116.553 430.708 77.7783 350.223M79.3628 349.459L77.7783 350.223M79.3628 349.459L77.7785 350.223C77.7785 350.223 77.7784 350.223 77.7783 350.223" fill="#014BDA" stroke="#014BDA" stroke-width="6"/>
<path d="M177.859 359.808L177.86 359.809C197.916 386.92 230.99 400.255 267.905 400.255C305.293 400.255 346.861 386.604 383.653 359.503L383.653 359.503C420.22 332.563 445.448 297.218 456.577 261.781C467.704 226.348 464.778 190.588 444.592 163.291C424.407 135.987 391.036 122.66 353.839 122.833C316.637 123.007 275.366 136.657 238.799 163.597C202.232 190.537 177.003 225.882 165.875 261.318C154.747 296.751 157.673 332.512 177.859 359.808ZM354.582 130.595C389.549 130.595 420.058 143.156 438.368 167.902C456.838 192.884 459.765 226.052 449.122 259.71C438.48 293.363 414.319 327.266 379.066 353.239C343.805 379.212 304.223 392.274 268.862 392.511C233.496 392.747 202.599 380.181 184.119 355.197C165.64 330.215 162.713 297.047 173.358 263.389C184.002 229.736 208.169 195.833 243.421 169.86L243.421 169.86C278.989 143.651 318.975 130.595 354.582 130.595Z" fill="#014BDA" stroke="#014BDA" stroke-width="6"/>
<mask id="path-6-outside-2" maskUnits="userSpaceOnUse" x="138.594" y="201.39" width="310" height="284" fill="black">
<rect fill="white" x="138.594" y="201.39" width="310" height="284"/>
<path d="M250.095 478.869C212.348 478.869 181.282 464.931 162.515 439.568C143.605 414.01 139.512 379.944 150.942 343.632C162.355 307.426 187.874 273.308 222.821 247.573C295.037 194.369 385.471 193.945 424.423 246.617C443.332 272.176 447.444 306.259 435.995 342.553C424.583 378.759 399.063 412.878 364.116 438.613C329.169 464.347 288.994 478.639 250.963 478.851C250.68 478.869 250.379 478.869 250.095 478.869ZM336.825 209.12C300.513 209.12 259.913 222.421 223.885 248.97C189.239 274.493 163.95 308.293 152.644 344.145C141.373 379.909 145.395 413.408 163.95 438.506C182.363 463.41 212.95 477.1 250.113 477.1C250.396 477.1 250.68 477.1 250.963 477.1C288.622 476.888 328.443 462.72 363.071 437.198L363.602 437.905L363.071 437.198C397.717 411.675 423.005 377.874 434.312 342.022C445.583 306.259 441.56 272.759 423.005 247.661C403.99 221.961 372.481 209.12 336.825 209.12Z"/>
</mask>
<path d="M250.095 478.869C212.348 478.869 181.282 464.931 162.515 439.568C143.605 414.01 139.512 379.944 150.942 343.632C162.355 307.426 187.874 273.308 222.821 247.573C295.037 194.369 385.471 193.945 424.423 246.617C443.332 272.176 447.444 306.259 435.995 342.553C424.583 378.759 399.063 412.878 364.116 438.613C329.169 464.347 288.994 478.639 250.963 478.851C250.68 478.869 250.379 478.869 250.095 478.869ZM336.825 209.12C300.513 209.12 259.913 222.421 223.885 248.97C189.239 274.493 163.95 308.293 152.644 344.145C141.373 379.909 145.395 413.408 163.95 438.506C182.363 463.41 212.95 477.1 250.113 477.1C250.396 477.1 250.68 477.1 250.963 477.1C288.622 476.888 328.443 462.72 363.071 437.198L363.602 437.905L363.071 437.198C397.717 411.675 423.005 377.874 434.312 342.022C445.583 306.259 441.56 272.759 423.005 247.661C403.99 221.961 372.481 209.12 336.825 209.12Z" fill="#014BDA"/>
<path d="M162.515 439.568L157.691 443.136L157.691 443.136L162.515 439.568ZM150.942 343.632L145.22 341.828L145.219 341.83L150.942 343.632ZM222.821 247.573L226.379 252.404L226.38 252.403L222.821 247.573ZM424.423 246.617L419.599 250.185L419.6 250.186L424.423 246.617ZM435.995 342.553L430.273 340.748L430.273 340.749L435.995 342.553ZM250.963 478.851L250.93 472.851L250.76 472.852L250.59 472.863L250.963 478.851ZM223.885 248.97L227.443 253.801L227.444 253.8L223.885 248.97ZM152.644 344.145L146.921 342.34L146.921 342.341L152.644 344.145ZM163.95 438.506L159.125 442.073L159.125 442.073L163.95 438.506ZM250.963 477.1V483.1H250.98L250.997 483.1L250.963 477.1ZM363.071 437.198L367.867 433.593L364.296 428.841L359.511 432.368L363.071 437.198ZM363.071 437.198L359.512 432.367L354.635 435.96L358.274 440.802L363.071 437.198ZM434.312 342.022L440.034 343.827L440.034 343.826L434.312 342.022ZM423.005 247.661L427.83 244.094L427.829 244.092L423.005 247.661ZM250.095 472.869C213.828 472.869 184.744 459.523 167.338 435.999L157.691 443.136C177.82 470.339 210.868 484.869 250.095 484.869V472.869ZM167.338 435.999C149.805 412.301 145.682 380.327 156.665 345.434L145.219 341.83C133.342 379.561 137.406 415.718 157.691 443.136L167.338 435.999ZM156.665 345.436C167.642 310.611 192.305 277.496 226.379 252.404L219.264 242.741C183.444 269.119 157.068 304.241 145.22 341.828L156.665 345.436ZM226.38 252.403C261.57 226.478 301.016 213.557 336.124 213.391C371.244 213.226 401.541 225.767 419.599 250.185L429.247 243.05C408.353 214.796 373.957 201.213 336.068 201.392C298.168 201.571 256.289 215.464 219.263 242.742L226.38 252.403ZM419.6 250.186C437.134 273.885 441.273 305.877 430.273 340.748L441.717 344.358C453.615 306.64 449.531 270.466 429.247 243.049L419.6 250.186ZM430.273 340.749C419.296 375.574 394.633 408.689 360.558 433.781L367.674 443.444C403.494 417.066 429.87 381.944 441.718 344.357L430.273 340.749ZM360.558 433.781C326.482 458.875 287.517 472.647 250.93 472.851L250.997 484.851C290.472 484.631 331.856 469.82 367.674 443.444L360.558 433.781ZM250.59 472.863C250.526 472.867 250.415 472.869 250.095 472.869V484.869C250.342 484.869 250.834 484.871 251.337 484.839L250.59 472.863ZM336.825 203.12C299.103 203.12 257.276 216.912 220.325 244.14L227.444 253.8C262.55 227.931 301.923 215.12 336.825 215.12V203.12ZM220.326 244.139C184.809 270.303 158.664 305.107 146.921 342.34L158.366 345.95C169.236 311.479 193.668 278.682 227.443 253.801L220.326 244.139ZM146.921 342.341C135.204 379.521 139.194 415.112 159.125 442.073L168.775 434.94C151.597 411.704 147.541 380.296 158.366 345.948L146.921 342.341ZM159.125 442.073C178.904 468.824 211.478 483.1 250.113 483.1V471.1C214.422 471.1 185.822 457.996 168.775 434.939L159.125 442.073ZM250.113 483.1C250.113 483.1 250.114 483.1 250.114 483.1C250.115 483.1 250.116 483.1 250.116 483.1C250.117 483.1 250.117 483.1 250.118 483.1C250.118 483.1 250.119 483.1 250.119 483.1C250.12 483.1 250.121 483.1 250.121 483.1C250.122 483.1 250.122 483.1 250.123 483.1C250.123 483.1 250.124 483.1 250.124 483.1C250.125 483.1 250.125 483.1 250.126 483.1C250.127 483.1 250.127 483.1 250.128 483.1C250.128 483.1 250.129 483.1 250.129 483.1C250.13 483.1 250.13 483.1 250.131 483.1C250.132 483.1 250.132 483.1 250.133 483.1C250.133 483.1 250.134 483.1 250.134 483.1C250.135 483.1 250.135 483.1 250.136 483.1C250.137 483.1 250.137 483.1 250.138 483.1C250.138 483.1 250.139 483.1 250.139 483.1C250.14 483.1 250.14 483.1 250.141 483.1C250.142 483.1 250.142 483.1 250.143 483.1C250.143 483.1 250.144 483.1 250.144 483.1C250.145 483.1 250.145 483.1 250.146 483.1C250.147 483.1 250.147 483.1 250.148 483.1C250.148 483.1 250.149 483.1 250.149 483.1C250.15 483.1 250.15 483.1 250.151 483.1C250.152 483.1 250.152 483.1 250.153 483.1C250.153 483.1 250.154 483.1 250.154 483.1C250.155 483.1 250.155 483.1 250.156 483.1C250.157 483.1 250.157 483.1 250.158 483.1C250.158 483.1 250.159 483.1 250.159 483.1C250.16 483.1 250.16 483.1 250.161 483.1C250.161 483.1 250.162 483.1 250.163 483.1C250.163 483.1 250.164 483.1 250.164 483.1C250.165 483.1 250.165 483.1 250.166 483.1C250.166 483.1 250.167 483.1 250.168 483.1C250.168 483.1 250.169 483.1 250.169 483.1C250.17 483.1 250.17 483.1 250.171 483.1C250.171 483.1 250.172 483.1 250.173 483.1C250.173 483.1 250.174 483.1 250.174 483.1C250.175 483.1 250.175 483.1 250.176 483.1C250.176 483.1 250.177 483.1 250.178 483.1C250.178 483.1 250.179 483.1 250.179 483.1C250.18 483.1 250.18 483.1 250.181 483.1C250.181 483.1 250.182 483.1 250.183 483.1C250.183 483.1 250.184 483.1 250.184 483.1C250.185 483.1 250.185 483.1 250.186 483.1C250.186 483.1 250.187 483.1 250.188 483.1C250.188 483.1 250.189 483.1 250.189 483.1C250.19 483.1 250.19 483.1 250.191 483.1C250.191 483.1 250.192 483.1 250.192 483.1C250.193 483.1 250.194 483.1 250.194 483.1C250.195 483.1 250.195 483.1 250.196 483.1C250.196 483.1 250.197 483.1 250.197 483.1C250.198 483.1 250.199 483.1 250.199 483.1C250.2 483.1 250.2 483.1 250.201 483.1C250.201 483.1 250.202 483.1 250.202 483.1C250.203 483.1 250.204 483.1 250.204 483.1C250.205 483.1 250.205 483.1 250.206 483.1C250.206 483.1 250.207 483.1 250.207 483.1C250.208 483.1 250.209 483.1 250.209 483.1C250.21 483.1 250.21 483.1 250.211 483.1C250.211 483.1 250.212 483.1 250.212 483.1C250.213 483.1 250.214 483.1 250.214 483.1C250.215 483.1 250.215 483.1 250.216 483.1C250.216 483.1 250.217 483.1 250.217 483.1C250.218 483.1 250.219 483.1 250.219 483.1C250.22 483.1 250.22 483.1 250.221 483.1C250.221 483.1 250.222 483.1 250.222 483.1C250.223 483.1 250.224 483.1 250.224 483.1C250.225 483.1 250.225 483.1 250.226 483.1C250.226 483.1 250.227 483.1 250.227 483.1C250.228 483.1 250.229 483.1 250.229 483.1C250.23 483.1 250.23 483.1 250.231 483.1C250.231 483.1 250.232 483.1 250.232 483.1C250.233 483.1 250.233 483.1 250.234 483.1C250.235 483.1 250.235 483.1 250.236 483.1C250.236 483.1 250.237 483.1 250.237 483.1C250.238 483.1 250.238 483.1 250.239 483.1C250.24 483.1 250.24 483.1 250.241 483.1C250.241 483.1 250.242 483.1 250.242 483.1C250.243 483.1 250.243 483.1 250.244 483.1C250.245 483.1 250.245 483.1 250.246 483.1C250.246 483.1 250.247 483.1 250.247 483.1C250.248 483.1 250.248 483.1 250.249 483.1C250.25 483.1 250.25 483.1 250.251 483.1C250.251 483.1 250.252 483.1 250.252 483.1C250.253 483.1 250.253 483.1 250.254 483.1C250.255 483.1 250.255 483.1 250.256 483.1C250.256 483.1 250.257 483.1 250.257 483.1C250.258 483.1 250.258 483.1 250.259 483.1C250.26 483.1 250.26 483.1 250.261 483.1C250.261 483.1 250.262 483.1 250.262 483.1C250.263 483.1 250.263 483.1 250.264 483.1C250.264 483.1 250.265 483.1 250.266 483.1C250.266 483.1 250.267 483.1 250.267 483.1C250.268 483.1 250.268 483.1 250.269 483.1C250.269 483.1 250.27 483.1 250.271 483.1C250.271 483.1 250.272 483.1 250.272 483.1C250.273 483.1 250.273 483.1 250.274 483.1C250.274 483.1 250.275 483.1 250.276 483.1C250.276 483.1 250.277 483.1 250.277 483.1C250.278 483.1 250.278 483.1 250.279 483.1C250.279 483.1 250.28 483.1 250.281 483.1C250.281 483.1 250.282 483.1 250.282 483.1C250.283 483.1 250.283 483.1 250.284 483.1C250.284 483.1 250.285 483.1 250.286 483.1C250.286 483.1 250.287 483.1 250.287 483.1C250.288 483.1 250.288 483.1 250.289 483.1C250.289 483.1 250.29 483.1 250.291 483.1C250.291 483.1 250.292 483.1 250.292 483.1C250.293 483.1 250.293 483.1 250.294 483.1C250.294 483.1 250.295 483.1 250.296 483.1C250.296 483.1 250.297 483.1 250.297 483.1C250.298 483.1 250.298 483.1 250.299 483.1C250.299 483.1 250.3 483.1 250.3 483.1C250.301 483.1 250.302 483.1 250.302 483.1C250.303 483.1 250.303 483.1 250.304 483.1C250.304 483.1 250.305 483.1 250.305 483.1C250.306 483.1 250.307 483.1 250.307 483.1C250.308 483.1 250.308 483.1 250.309 483.1C250.309 483.1 250.31 483.1 250.31 483.1C250.311 483.1 250.312 483.1 250.312 483.1C250.313 483.1 250.313 483.1 250.314 483.1C250.314 483.1 250.315 483.1 250.315 483.1C250.316 483.1 250.317 483.1 250.317 483.1C250.318 483.1 250.318 483.1 250.319 483.1C250.319 483.1 250.32 483.1 250.32 483.1C250.321 483.1 250.322 483.1 250.322 483.1C250.323 483.1 250.323 483.1 250.324 483.1C250.324 483.1 250.325 483.1 250.325 483.1C250.326 483.1 250.327 483.1 250.327 483.1C250.328 483.1 250.328 483.1 250.329 483.1C250.329 483.1 250.33 483.1 250.33 483.1C250.331 483.1 250.332 483.1 250.332 483.1C250.333 483.1 250.333 483.1 250.334 483.1C250.334 483.1 250.335 483.1 250.335 483.1C250.336 483.1 250.336 483.1 250.337 483.1C250.338 483.1 250.338 483.1 250.339 483.1C250.339 483.1 250.34 483.1 250.34 483.1C250.341 483.1 250.341 483.1 250.342 483.1C250.343 483.1 250.343 483.1 250.344 483.1C250.344 483.1 250.345 483.1 250.345 483.1C250.346 483.1 250.346 483.1 250.347 483.1C250.348 483.1 250.348 483.1 250.349 483.1C250.349 483.1 250.35 483.1 250.35 483.1C250.351 483.1 250.351 483.1 250.352 483.1C250.353 483.1 250.353 483.1 250.354 483.1C250.354 483.1 250.355 483.1 250.355 483.1C250.356 483.1 250.356 483.1 250.357 483.1C250.358 483.1 250.358 483.1 250.359 483.1C250.359 483.1 250.36 483.1 250.36 483.1C250.361 483.1 250.361 483.1 250.362 483.1C250.363 483.1 250.363 483.1 250.364 483.1C250.364 483.1 250.365 483.1 250.365 483.1C250.366 483.1 250.366 483.1 250.367 483.1C250.368 483.1 250.368 483.1 250.369 483.1C250.369 483.1 250.37 483.1 250.37 483.1C250.371 483.1 250.371 483.1 250.372 483.1C250.372 483.1 250.373 483.1 250.374 483.1C250.374 483.1 250.375 483.1 250.375 483.1C250.376 483.1 250.376 483.1 250.377 483.1C250.377 483.1 250.378 483.1 250.379 483.1C250.379 483.1 250.38 483.1 250.38 483.1C250.381 483.1 250.381 483.1 250.382 483.1C250.382 483.1 250.383 483.1 250.384 483.1C250.384 483.1 250.385 483.1 250.385 483.1C250.386 483.1 250.386 483.1 250.387 483.1C250.387 483.1 250.388 483.1 250.389 483.1C250.389 483.1 250.39 483.1 250.39 483.1C250.391 483.1 250.391 483.1 250.392 483.1C250.392 483.1 250.393 483.1 250.394 483.1C250.394 483.1 250.395 483.1 250.395 483.1C250.396 483.1 250.396 483.1 250.397 483.1C250.397 483.1 250.398 483.1 250.399 483.1C250.399 483.1 250.4 483.1 250.4 483.1C250.401 483.1 250.401 483.1 250.402 483.1C250.402 483.1 250.403 483.1 250.404 483.1C250.404 483.1 250.405 483.1 250.405 483.1C250.406 483.1 250.406 483.1 250.407 483.1C250.407 483.1 250.408 483.1 250.408 483.1C250.409 483.1 250.41 483.1 250.41 483.1C250.411 483.1 250.411 483.1 250.412 483.1C250.412 483.1 250.413 483.1 250.413 483.1C250.414 483.1 250.415 483.1 250.415 483.1C250.416 483.1 250.416 483.1 250.417 483.1C250.417 483.1 250.418 483.1 250.418 483.1C250.419 483.1 250.42 483.1 250.42 483.1C250.421 483.1 250.421 483.1 250.422 483.1C250.422 483.1 250.423 483.1 250.423 483.1C250.424 483.1 250.425 483.1 250.425 483.1C250.426 483.1 250.426 483.1 250.427 483.1C250.427 483.1 250.428 483.1 250.428 483.1C250.429 483.1 250.43 483.1 250.43 483.1C250.431 483.1 250.431 483.1 250.432 483.1C250.432 483.1 250.433 483.1 250.433 483.1C250.434 483.1 250.435 483.1 250.435 483.1C250.436 483.1 250.436 483.1 250.437 483.1C250.437 483.1 250.438 483.1 250.438 483.1C250.439 483.1 250.439 483.1 250.44 483.1C250.441 483.1 250.441 483.1 250.442 483.1C250.442 483.1 250.443 483.1 250.443 483.1C250.444 483.1 250.444 483.1 250.445 483.1C250.446 483.1 250.446 483.1 250.447 483.1C250.447 483.1 250.448 483.1 250.448 483.1C250.449 483.1 250.449 483.1 250.45 483.1C250.451 483.1 250.451 483.1 250.452 483.1C250.452 483.1 250.453 483.1 250.453 483.1C250.454 483.1 250.454 483.1 250.455 483.1C250.456 483.1 250.456 483.1 250.457 483.1C250.457 483.1 250.458 483.1 250.458 483.1C250.459 483.1 250.459 483.1 250.46 483.1C250.461 483.1 250.461 483.1 250.462 483.1C250.462 483.1 250.463 483.1 250.463 483.1C250.464 483.1 250.464 483.1 250.465 483.1C250.466 483.1 250.466 483.1 250.467 483.1C250.467 483.1 250.468 483.1 250.468 483.1C250.469 483.1 250.469 483.1 250.47 483.1C250.471 483.1 250.471 483.1 250.472 483.1C250.472 483.1 250.473 483.1 250.473 483.1C250.474 483.1 250.474 483.1 250.475 483.1C250.475 483.1 250.476 483.1 250.477 483.1C250.477 483.1 250.478 483.1 250.478 483.1C250.479 483.1 250.479 483.1 250.48 483.1C250.48 483.1 250.481 483.1 250.482 483.1C250.482 483.1 250.483 483.1 250.483 483.1C250.484 483.1 250.484 483.1 250.485 483.1C250.485 483.1 250.486 483.1 250.487 483.1C250.487 483.1 250.488 483.1 250.488 483.1C250.489 483.1 250.489 483.1 250.49 483.1C250.49 483.1 250.491 483.1 250.492 483.1C250.492 483.1 250.493 483.1 250.493 483.1C250.494 483.1 250.494 483.1 250.495 483.1C250.495 483.1 250.496 483.1 250.497 483.1C250.497 483.1 250.498 483.1 250.498 483.1C250.499 483.1 250.499 483.1 250.5 483.1C250.5 483.1 250.501 483.1 250.502 483.1C250.502 483.1 250.503 483.1 250.503 483.1C250.504 483.1 250.504 483.1 250.505 483.1C250.505 483.1 250.506 483.1 250.507 483.1C250.507 483.1 250.508 483.1 250.508 483.1C250.509 483.1 250.509 483.1 250.51 483.1C250.51 483.1 250.511 483.1 250.511 483.1C250.512 483.1 250.513 483.1 250.513 483.1C250.514 483.1 250.514 483.1 250.515 483.1C250.515 483.1 250.516 483.1 250.516 483.1C250.517 483.1 250.518 483.1 250.518 483.1C250.519 483.1 250.519 483.1 250.52 483.1C250.52 483.1 250.521 483.1 250.521 483.1C250.522 483.1 250.523 483.1 250.523 483.1C250.524 483.1 250.524 483.1 250.525 483.1C250.525 483.1 250.526 483.1 250.526 483.1C250.527 483.1 250.528 483.1 250.528 483.1C250.529 483.1 250.529 483.1 250.53 483.1C250.53 483.1 250.531 483.1 250.531 483.1C250.532 483.1 250.533 483.1 250.533 483.1C250.534 483.1 250.534 483.1 250.535 483.1C250.535 483.1 250.536 483.1 250.536 483.1C250.537 483.1 250.538 483.1 250.538 483.1C250.539 483.1 250.539 483.1 250.54 483.1C250.54 483.1 250.541 483.1 250.541 483.1C250.542 483.1 250.543 483.1 250.543 483.1C250.544 483.1 250.544 483.1 250.545 483.1C250.545 483.1 250.546 483.1 250.546 483.1C250.547 483.1 250.547 483.1 250.548 483.1C250.549 483.1 250.549 483.1 250.55 483.1C250.55 483.1 250.551 483.1 250.551 483.1C250.552 483.1 250.552 483.1 250.553 483.1C250.554 483.1 250.554 483.1 250.555 483.1C250.555 483.1 250.556 483.1 250.556 483.1C250.557 483.1 250.557 483.1 250.558 483.1C250.559 483.1 250.559 483.1 250.56 483.1C250.56 483.1 250.561 483.1 250.561 483.1C250.562 483.1 250.562 483.1 250.563 483.1C250.564 483.1 250.564 483.1 250.565 483.1C250.565 483.1 250.566 483.1 250.566 483.1C250.567 483.1 250.567 483.1 250.568 483.1C250.569 483.1 250.569 483.1 250.57 483.1C250.57 483.1 250.571 483.1 250.571 483.1C250.572 483.1 250.572 483.1 250.573 483.1C250.574 483.1 250.574 483.1 250.575 483.1C250.575 483.1 250.576 483.1 250.576 483.1C250.577 483.1 250.577 483.1 250.578 483.1C250.579 483.1 250.579 483.1 250.58 483.1C250.58 483.1 250.581 483.1 250.581 483.1C250.582 483.1 250.582 483.1 250.583 483.1C250.583 483.1 250.584 483.1 250.585 483.1C250.585 483.1 250.586 483.1 250.586 483.1C250.587 483.1 250.587 483.1 250.588 483.1C250.588 483.1 250.589 483.1 250.59 483.1C250.59 483.1 250.591 483.1 250.591 483.1C250.592 483.1 250.592 483.1 250.593 483.1C250.593 483.1 250.594 483.1 250.595 483.1C250.595 483.1 250.596 483.1 250.596 483.1C250.597 483.1 250.597 483.1 250.598 483.1C250.598 483.1 250.599 483.1 250.6 483.1C250.6 483.1 250.601 483.1 250.601 483.1C250.602 483.1 250.602 483.1 250.603 483.1C250.603 483.1 250.604 483.1 250.605 483.1C250.605 483.1 250.606 483.1 250.606 483.1C250.607 483.1 250.607 483.1 250.608 483.1C250.608 483.1 250.609 483.1 250.61 483.1C250.61 483.1 250.611 483.1 250.611 483.1C250.612 483.1 250.612 483.1 250.613 483.1C250.613 483.1 250.614 483.1 250.615 483.1C250.615 483.1 250.616 483.1 250.616 483.1C250.617 483.1 250.617 483.1 250.618 483.1C250.618 483.1 250.619 483.1 250.619 483.1C250.62 483.1 250.621 483.1 250.621 483.1C250.622 483.1 250.622 483.1 250.623 483.1C250.623 483.1 250.624 483.1 250.624 483.1C250.625 483.1 250.626 483.1 250.626 483.1C250.627 483.1 250.627 483.1 250.628 483.1C250.628 483.1 250.629 483.1 250.629 483.1C250.63 483.1 250.631 483.1 250.631 483.1C250.632 483.1 250.632 483.1 250.633 483.1C250.633 483.1 250.634 483.1 250.634 483.1C250.635 483.1 250.636 483.1 250.636 483.1C250.637 483.1 250.637 483.1 250.638 483.1C250.638 483.1 250.639 483.1 250.639 483.1C250.64 483.1 250.641 483.1 250.641 483.1C250.642 483.1 250.642 483.1 250.643 483.1C250.643 483.1 250.644 483.1 250.644 483.1C250.645 483.1 250.646 483.1 250.646 483.1C250.647 483.1 250.647 483.1 250.648 483.1C250.648 483.1 250.649 483.1 250.649 483.1C250.65 483.1 250.65 483.1 250.651 483.1C250.652 483.1 250.652 483.1 250.653 483.1C250.653 483.1 250.654 483.1 250.654 483.1C250.655 483.1 250.655 483.1 250.656 483.1C250.657 483.1 250.657 483.1 250.658 483.1C250.658 483.1 250.659 483.1 250.659 483.1C250.66 483.1 250.66 483.1 250.661 483.1C250.662 483.1 250.662 483.1 250.663 483.1C250.663 483.1 250.664 483.1 250.664 483.1C250.665 483.1 250.665 483.1 250.666 483.1C250.667 483.1 250.667 483.1 250.668 483.1C250.668 483.1 250.669 483.1 250.669 483.1C250.67 483.1 250.67 483.1 250.671 483.1C250.672 483.1 250.672 483.1 250.673 483.1C250.673 483.1 250.674 483.1 250.674 483.1C250.675 483.1 250.675 483.1 250.676 483.1C250.677 483.1 250.677 483.1 250.678 483.1C250.678 483.1 250.679 483.1 250.679 483.1C250.68 483.1 250.68 483.1 250.681 483.1C250.682 483.1 250.682 483.1 250.683 483.1C250.683 483.1 250.684 483.1 250.684 483.1C250.685 483.1 250.685 483.1 250.686 483.1C250.687 483.1 250.687 483.1 250.688 483.1C250.688 483.1 250.689 483.1 250.689 483.1C250.69 483.1 250.69 483.1 250.691 483.1C250.691 483.1 250.692 483.1 250.693 483.1C250.693 483.1 250.694 483.1 250.694 483.1C250.695 483.1 250.695 483.1 250.696 483.1C250.696 483.1 250.697 483.1 250.698 483.1C250.698 483.1 250.699 483.1 250.699 483.1C250.7 483.1 250.7 483.1 250.701 483.1C250.701 483.1 250.702 483.1 250.703 483.1C250.703 483.1 250.704 483.1 250.704 483.1C250.705 483.1 250.705 483.1 250.706 483.1C250.706 483.1 250.707 483.1 250.708 483.1C250.708 483.1 250.709 483.1 250.709 483.1C250.71 483.1 250.71 483.1 250.711 483.1C250.711 483.1 250.712 483.1 250.713 483.1C250.713 483.1 250.714 483.1 250.714 483.1C250.715 483.1 250.715 483.1 250.716 483.1C250.716 483.1 250.717 483.1 250.718 483.1C250.718 483.1 250.719 483.1 250.719 483.1C250.72 483.1 250.72 483.1 250.721 483.1C250.721 483.1 250.722 483.1 250.722 483.1C250.723 483.1 250.724 483.1 250.724 483.1C250.725 483.1 250.725 483.1 250.726 483.1C250.726 483.1 250.727 483.1 250.727 483.1C250.728 483.1 250.729 483.1 250.729 483.1C250.73 483.1 250.73 483.1 250.731 483.1C250.731 483.1 250.732 483.1 250.732 483.1C250.733 483.1 250.734 483.1 250.734 483.1C250.735 483.1 250.735 483.1 250.736 483.1C250.736 483.1 250.737 483.1 250.737 483.1C250.738 483.1 250.739 483.1 250.739 483.1C250.74 483.1 250.74 483.1 250.741 483.1C250.741 483.1 250.742 483.1 250.742 483.1C250.743 483.1 250.744 483.1 250.744 483.1C250.745 483.1 250.745 483.1 250.746 483.1C250.746 483.1 250.747 483.1 250.747 483.1C250.748 483.1 250.749 483.1 250.749 483.1C250.75 483.1 250.75 483.1 250.751 483.1C250.751 483.1 250.752 483.1 250.752 483.1C250.753 483.1 250.754 483.1 250.754 483.1C250.755 483.1 250.755 483.1 250.756 483.1C250.756 483.1 250.757 483.1 250.757 483.1C250.758 483.1 250.758 483.1 250.759 483.1C250.76 483.1 250.76 483.1 250.761 483.1C250.761 483.1 250.762 483.1 250.762 483.1C250.763 483.1 250.763 483.1 250.764 483.1C250.765 483.1 250.765 483.1 250.766 483.1C250.766 483.1 250.767 483.1 250.767 483.1C250.768 483.1 250.768 483.1 250.769 483.1C250.77 483.1 250.77 483.1 250.771 483.1C250.771 483.1 250.772 483.1 250.772 483.1C250.773 483.1 250.773 483.1 250.774 483.1C250.775 483.1 250.775 483.1 250.776 483.1C250.776 483.1 250.777 483.1 250.777 483.1C250.778 483.1 250.778 483.1 250.779 483.1C250.78 483.1 250.78 483.1 250.781 483.1C250.781 483.1 250.782 483.1 250.782 483.1C250.783 483.1 250.783 483.1 250.784 483.1C250.785 483.1 250.785 483.1 250.786 483.1C250.786 483.1 250.787 483.1 250.787 483.1C250.788 483.1 250.788 483.1 250.789 483.1C250.79 483.1 250.79 483.1 250.791 483.1C250.791 483.1 250.792 483.1 250.792 483.1C250.793 483.1 250.793 483.1 250.794 483.1C250.794 483.1 250.795 483.1 250.796 483.1C250.796 483.1 250.797 483.1 250.797 483.1C250.798 483.1 250.798 483.1 250.799 483.1C250.799 483.1 250.8 483.1 250.801 483.1C250.801 483.1 250.802 483.1 250.802 483.1C250.803 483.1 250.803 483.1 250.804 483.1C250.804 483.1 250.805 483.1 250.806 483.1C250.806 483.1 250.807 483.1 250.807 483.1C250.808 483.1 250.808 483.1 250.809 483.1C250.809 483.1 250.81 483.1 250.811 483.1C250.811 483.1 250.812 483.1 250.812 483.1C250.813 483.1 250.813 483.1 250.814 483.1C250.814 483.1 250.815 483.1 250.816 483.1C250.816 483.1 250.817 483.1 250.817 483.1C250.818 483.1 250.818 483.1 250.819 483.1C250.819 483.1 250.82 483.1 250.821 483.1C250.821 483.1 250.822 483.1 250.822 483.1C250.823 483.1 250.823 483.1 250.824 483.1C250.824 483.1 250.825 483.1 250.826 483.1C250.826 483.1 250.827 483.1 250.827 483.1C250.828 483.1 250.828 483.1 250.829 483.1C250.829 483.1 250.83 483.1 250.83 483.1C250.831 483.1 250.832 483.1 250.832 483.1C250.833 483.1 250.833 483.1 250.834 483.1C250.834 483.1 250.835 483.1 250.835 483.1C250.836 483.1 250.837 483.1 250.837 483.1C250.838 483.1 250.838 483.1 250.839 483.1C250.839 483.1 250.84 483.1 250.84 483.1C250.841 483.1 250.842 483.1 250.842 483.1C250.843 483.1 250.843 483.1 250.844 483.1C250.844 483.1 250.845 483.1 250.845 483.1C250.846 483.1 250.847 483.1 250.847 483.1C250.848 483.1 250.848 483.1 250.849 483.1C250.849 483.1 250.85 483.1 250.85 483.1C250.851 483.1 250.852 483.1 250.852 483.1C250.853 483.1 250.853 483.1 250.854 483.1C250.854 483.1 250.855 483.1 250.855 483.1C250.856 483.1 250.857 483.1 250.857 483.1C250.858 483.1 250.858 483.1 250.859 483.1C250.859 483.1 250.86 483.1 250.86 483.1C250.861 483.1 250.861 483.1 250.862 483.1C250.863 483.1 250.863 483.1 250.864 483.1C250.864 483.1 250.865 483.1 250.865 483.1C250.866 483.1 250.866 483.1 250.867 483.1C250.868 483.1 250.868 483.1 250.869 483.1C250.869 483.1 250.87 483.1 250.87 483.1C250.871 483.1 250.871 483.1 250.872 483.1C250.873 483.1 250.873 483.1 250.874 483.1C250.874 483.1 250.875 483.1 250.875 483.1C250.876 483.1 250.876 483.1 250.877 483.1C250.878 483.1 250.878 483.1 250.879 483.1C250.879 483.1 250.88 483.1 250.88 483.1C250.881 483.1 250.881 483.1 250.882 483.1C250.883 483.1 250.883 483.1 250.884 483.1C250.884 483.1 250.885 483.1 250.885 483.1C250.886 483.1 250.886 483.1 250.887 483.1C250.888 483.1 250.888 483.1 250.889 483.1C250.889 483.1 250.89 483.1 250.89 483.1C250.891 483.1 250.891 483.1 250.892 483.1C250.893 483.1 250.893 483.1 250.894 483.1C250.894 483.1 250.895 483.1 250.895 483.1C250.896 483.1 250.896 483.1 250.897 483.1C250.897 483.1 250.898 483.1 250.899 483.1C250.899 483.1 250.9 483.1 250.9 483.1C250.901 483.1 250.901 483.1 250.902 483.1C250.902 483.1 250.903 483.1 250.904 483.1C250.904 483.1 250.905 483.1 250.905 483.1C250.906 483.1 250.906 483.1 250.907 483.1C250.907 483.1 250.908 483.1 250.909 483.1C250.909 483.1 250.91 483.1 250.91 483.1C250.911 483.1 250.911 483.1 250.912 483.1C250.912 483.1 250.913 483.1 250.914 483.1C250.914 483.1 250.915 483.1 250.915 483.1C250.916 483.1 250.916 483.1 250.917 483.1C250.917 483.1 250.918 483.1 250.919 483.1C250.919 483.1 250.92 483.1 250.92 483.1C250.921 483.1 250.921 483.1 250.922 483.1C250.922 483.1 250.923 483.1 250.924 483.1C250.924 483.1 250.925 483.1 250.925 483.1C250.926 483.1 250.926 483.1 250.927 483.1C250.927 483.1 250.928 483.1 250.929 483.1C250.929 483.1 250.93 483.1 250.93 483.1C250.931 483.1 250.931 483.1 250.932 483.1C250.932 483.1 250.933 483.1 250.933 483.1C250.934 483.1 250.935 483.1 250.935 483.1C250.936 483.1 250.936 483.1 250.937 483.1C250.937 483.1 250.938 483.1 250.938 483.1C250.939 483.1 250.94 483.1 250.94 483.1C250.941 483.1 250.941 483.1 250.942 483.1C250.942 483.1 250.943 483.1 250.943 483.1C250.944 483.1 250.945 483.1 250.945 483.1C250.946 483.1 250.946 483.1 250.947 483.1C250.947 483.1 250.948 483.1 250.948 483.1C250.949 483.1 250.95 483.1 250.95 483.1C250.951 483.1 250.951 483.1 250.952 483.1C250.952 483.1 250.953 483.1 250.953 483.1C250.954 483.1 250.955 483.1 250.955 483.1C250.956 483.1 250.956 483.1 250.957 483.1C250.957 483.1 250.958 483.1 250.958 483.1C250.959 483.1 250.96 483.1 250.96 483.1C250.961 483.1 250.961 483.1 250.962 483.1C250.962 483.1 250.963 483.1 250.963 483.1V471.1C250.963 471.1 250.962 471.1 250.962 471.1C250.961 471.1 250.961 471.1 250.96 471.1C250.96 471.1 250.959 471.1 250.958 471.1C250.958 471.1 250.957 471.1 250.957 471.1C250.956 471.1 250.956 471.1 250.955 471.1C250.955 471.1 250.954 471.1 250.953 471.1C250.953 471.1 250.952 471.1 250.952 471.1C250.951 471.1 250.951 471.1 250.95 471.1C250.95 471.1 250.949 471.1 250.948 471.1C250.948 471.1 250.947 471.1 250.947 471.1C250.946 471.1 250.946 471.1 250.945 471.1C250.945 471.1 250.944 471.1 250.943 471.1C250.943 471.1 250.942 471.1 250.942 471.1C250.941 471.1 250.941 471.1 250.94 471.1C250.94 471.1 250.939 471.1 250.938 471.1C250.938 471.1 250.937 471.1 250.937 471.1C250.936 471.1 250.936 471.1 250.935 471.1C250.935 471.1 250.934 471.1 250.933 471.1C250.933 471.1 250.932 471.1 250.932 471.1C250.931 471.1 250.931 471.1 250.93 471.1C250.93 471.1 250.929 471.1 250.929 471.1C250.928 471.1 250.927 471.1 250.927 471.1C250.926 471.1 250.926 471.1 250.925 471.1C250.925 471.1 250.924 471.1 250.924 471.1C250.923 471.1 250.922 471.1 250.922 471.1C250.921 471.1 250.921 471.1 250.92 471.1C250.92 471.1 250.919 471.1 250.919 471.1C250.918 471.1 250.917 471.1 250.917 471.1C250.916 471.1 250.916 471.1 250.915 471.1C250.915 471.1 250.914 471.1 250.914 471.1C250.913 471.1 250.912 471.1 250.912 471.1C250.911 471.1 250.911 471.1 250.91 471.1C250.91 471.1 250.909 471.1 250.909 471.1C250.908 471.1 250.907 471.1 250.907 471.1C250.906 471.1 250.906 471.1 250.905 471.1C250.905 471.1 250.904 471.1 250.904 471.1C250.903 471.1 250.902 471.1 250.902 471.1C250.901 471.1 250.901 471.1 250.9 471.1C250.9 471.1 250.899 471.1 250.899 471.1C250.898 471.1 250.897 471.1 250.897 471.1C250.896 471.1 250.896 471.1 250.895 471.1C250.895 471.1 250.894 471.1 250.894 471.1C250.893 471.1 250.893 471.1 250.892 471.1C250.891 471.1 250.891 471.1 250.89 471.1C250.89 471.1 250.889 471.1 250.889 471.1C250.888 471.1 250.888 471.1 250.887 471.1C250.886 471.1 250.886 471.1 250.885 471.1C250.885 471.1 250.884 471.1 250.884 471.1C250.883 471.1 250.883 471.1 250.882 471.1C250.881 471.1 250.881 471.1 250.88 471.1C250.88 471.1 250.879 471.1 250.879 471.1C250.878 471.1 250.878 471.1 250.877 471.1C250.876 471.1 250.876 471.1 250.875 471.1C250.875 471.1 250.874 471.1 250.874 471.1C250.873 471.1 250.873 471.1 250.872 471.1C250.871 471.1 250.871 471.1 250.87 471.1C250.87 471.1 250.869 471.1 250.869 471.1C250.868 471.1 250.868 471.1 250.867 471.1C250.866 471.1 250.866 471.1 250.865 471.1C250.865 471.1 250.864 471.1 250.864 471.1C250.863 471.1 250.863 471.1 250.862 471.1C250.861 471.1 250.861 471.1 250.86 471.1C250.86 471.1 250.859 471.1 250.859 471.1C250.858 471.1 250.858 471.1 250.857 471.1C250.857 471.1 250.856 471.1 250.855 471.1C250.855 471.1 250.854 471.1 250.854 471.1C250.853 471.1 250.853 471.1 250.852 471.1C250.852 471.1 250.851 471.1 250.85 471.1C250.85 471.1 250.849 471.1 250.849 471.1C250.848 471.1 250.848 471.1 250.847 471.1C250.847 471.1 250.846 471.1 250.845 471.1C250.845 471.1 250.844 471.1 250.844 471.1C250.843 471.1 250.843 471.1 250.842 471.1C250.842 471.1 250.841 471.1 250.84 471.1C250.84 471.1 250.839 471.1 250.839 471.1C250.838 471.1 250.838 471.1 250.837 471.1C250.837 471.1 250.836 471.1 250.835 471.1C250.835 471.1 250.834 471.1 250.834 471.1C250.833 471.1 250.833 471.1 250.832 471.1C250.832 471.1 250.831 471.1 250.83 471.1C250.83 471.1 250.829 471.1 250.829 471.1C250.828 471.1 250.828 471.1 250.827 471.1C250.827 471.1 250.826 471.1 250.826 471.1C250.825 471.1 250.824 471.1 250.824 471.1C250.823 471.1 250.823 471.1 250.822 471.1C250.822 471.1 250.821 471.1 250.821 471.1C250.82 471.1 250.819 471.1 250.819 471.1C250.818 471.1 250.818 471.1 250.817 471.1C250.817 471.1 250.816 471.1 250.816 471.1C250.815 471.1 250.814 471.1 250.814 471.1C250.813 471.1 250.813 471.1 250.812 471.1C250.812 471.1 250.811 471.1 250.811 471.1C250.81 471.1 250.809 471.1 250.809 471.1C250.808 471.1 250.808 471.1 250.807 471.1C250.807 471.1 250.806 471.1 250.806 471.1C250.805 471.1 250.804 471.1 250.804 471.1C250.803 471.1 250.803 471.1 250.802 471.1C250.802 471.1 250.801 471.1 250.801 471.1C250.8 471.1 250.799 471.1 250.799 471.1C250.798 471.1 250.798 471.1 250.797 471.1C250.797 471.1 250.796 471.1 250.796 471.1C250.795 471.1 250.794 471.1 250.794 471.1C250.793 471.1 250.793 471.1 250.792 471.1C250.792 471.1 250.791 471.1 250.791 471.1C250.79 471.1 250.79 471.1 250.789 471.1C250.788 471.1 250.788 471.1 250.787 471.1C250.787 471.1 250.786 471.1 250.786 471.1C250.785 471.1 250.785 471.1 250.784 471.1C250.783 471.1 250.783 471.1 250.782 471.1C250.782 471.1 250.781 471.1 250.781 471.1C250.78 471.1 250.78 471.1 250.779 471.1C250.778 471.1 250.778 471.1 250.777 471.1C250.777 471.1 250.776 471.1 250.776 471.1C250.775 471.1 250.775 471.1 250.774 471.1C250.773 471.1 250.773 471.1 250.772 471.1C250.772 471.1 250.771 471.1 250.771 471.1C250.77 471.1 250.77 471.1 250.769 471.1C250.768 471.1 250.768 471.1 250.767 471.1C250.767 471.1 250.766 471.1 250.766 471.1C250.765 471.1 250.765 471.1 250.764 471.1C250.763 471.1 250.763 471.1 250.762 471.1C250.762 471.1 250.761 471.1 250.761 471.1C250.76 471.1 250.76 471.1 250.759 471.1C250.758 471.1 250.758 471.1 250.757 471.1C250.757 471.1 250.756 471.1 250.756 471.1C250.755 471.1 250.755 471.1 250.754 471.1C250.754 471.1 250.753 471.1 250.752 471.1C250.752 471.1 250.751 471.1 250.751 471.1C250.75 471.1 250.75 471.1 250.749 471.1C250.749 471.1 250.748 471.1 250.747 471.1C250.747 471.1 250.746 471.1 250.746 471.1C250.745 471.1 250.745 471.1 250.744 471.1C250.744 471.1 250.743 471.1 250.742 471.1C250.742 471.1 250.741 471.1 250.741 471.1C250.74 471.1 250.74 471.1 250.739 471.1C250.739 471.1 250.738 471.1 250.737 471.1C250.737 471.1 250.736 471.1 250.736 471.1C250.735 471.1 250.735 471.1 250.734 471.1C250.734 471.1 250.733 471.1 250.732 471.1C250.732 471.1 250.731 471.1 250.731 471.1C250.73 471.1 250.73 471.1 250.729 471.1C250.729 471.1 250.728 471.1 250.727 471.1C250.727 471.1 250.726 471.1 250.726 471.1C250.725 471.1 250.725 471.1 250.724 471.1C250.724 471.1 250.723 471.1 250.722 471.1C250.722 471.1 250.721 471.1 250.721 471.1C250.72 471.1 250.72 471.1 250.719 471.1C250.719 471.1 250.718 471.1 250.718 471.1C250.717 471.1 250.716 471.1 250.716 471.1C250.715 471.1 250.715 471.1 250.714 471.1C250.714 471.1 250.713 471.1 250.713 471.1C250.712 471.1 250.711 471.1 250.711 471.1C250.71 471.1 250.71 471.1 250.709 471.1C250.709 471.1 250.708 471.1 250.708 471.1C250.707 471.1 250.706 471.1 250.706 471.1C250.705 471.1 250.705 471.1 250.704 471.1C250.704 471.1 250.703 471.1 250.703 471.1C250.702 471.1 250.701 471.1 250.701 471.1C250.7 471.1 250.7 471.1 250.699 471.1C250.699 471.1 250.698 471.1 250.698 471.1C250.697 471.1 250.696 471.1 250.696 471.1C250.695 471.1 250.695 471.1 250.694 471.1C250.694 471.1 250.693 471.1 250.693 471.1C250.692 471.1 250.691 471.1 250.691 471.1C250.69 471.1 250.69 471.1 250.689 471.1C250.689 471.1 250.688 471.1 250.688 471.1C250.687 471.1 250.687 471.1 250.686 471.1C250.685 471.1 250.685 471.1 250.684 471.1C250.684 471.1 250.683 471.1 250.683 471.1C250.682 471.1 250.682 471.1 250.681 471.1C250.68 471.1 250.68 471.1 250.679 471.1C250.679 471.1 250.678 471.1 250.678 471.1C250.677 471.1 250.677 471.1 250.676 471.1C250.675 471.1 250.675 471.1 250.674 471.1C250.674 471.1 250.673 471.1 250.673 471.1C250.672 471.1 250.672 471.1 250.671 471.1C250.67 471.1 250.67 471.1 250.669 471.1C250.669 471.1 250.668 471.1 250.668 471.1C250.667 471.1 250.667 471.1 250.666 471.1C250.665 471.1 250.665 471.1 250.664 471.1C250.664 471.1 250.663 471.1 250.663 471.1C250.662 471.1 250.662 471.1 250.661 471.1C250.66 471.1 250.66 471.1 250.659 471.1C250.659 471.1 250.658 471.1 250.658 471.1C250.657 471.1 250.657 471.1 250.656 471.1C250.655 471.1 250.655 471.1 250.654 471.1C250.654 471.1 250.653 471.1 250.653 471.1C250.652 471.1 250.652 471.1 250.651 471.1C250.65 471.1 250.65 471.1 250.649 471.1C250.649 471.1 250.648 471.1 250.648 471.1C250.647 471.1 250.647 471.1 250.646 471.1C250.646 471.1 250.645 471.1 250.644 471.1C250.644 471.1 250.643 471.1 250.643 471.1C250.642 471.1 250.642 471.1 250.641 471.1C250.641 471.1 250.64 471.1 250.639 471.1C250.639 471.1 250.638 471.1 250.638 471.1C250.637 471.1 250.637 471.1 250.636 471.1C250.636 471.1 250.635 471.1 250.634 471.1C250.634 471.1 250.633 471.1 250.633 471.1C250.632 471.1 250.632 471.1 250.631 471.1C250.631 471.1 250.63 471.1 250.629 471.1C250.629 471.1 250.628 471.1 250.628 471.1C250.627 471.1 250.627 471.1 250.626 471.1C250.626 471.1 250.625 471.1 250.624 471.1C250.624 471.1 250.623 471.1 250.623 471.1C250.622 471.1 250.622 471.1 250.621 471.1C250.621 471.1 250.62 471.1 250.619 471.1C250.619 471.1 250.618 471.1 250.618 471.1C250.617 471.1 250.617 471.1 250.616 471.1C250.616 471.1 250.615 471.1 250.615 471.1C250.614 471.1 250.613 471.1 250.613 471.1C250.612 471.1 250.612 471.1 250.611 471.1C250.611 471.1 250.61 471.1 250.61 471.1C250.609 471.1 250.608 471.1 250.608 471.1C250.607 471.1 250.607 471.1 250.606 471.1C250.606 471.1 250.605 471.1 250.605 471.1C250.604 471.1 250.603 471.1 250.603 471.1C250.602 471.1 250.602 471.1 250.601 471.1C250.601 471.1 250.6 471.1 250.6 471.1C250.599 471.1 250.598 471.1 250.598 471.1C250.597 471.1 250.597 471.1 250.596 471.1C250.596 471.1 250.595 471.1 250.595 471.1C250.594 471.1 250.593 471.1 250.593 471.1C250.592 471.1 250.592 471.1 250.591 471.1C250.591 471.1 250.59 471.1 250.59 471.1C250.589 471.1 250.588 471.1 250.588 471.1C250.587 471.1 250.587 471.1 250.586 471.1C250.586 471.1 250.585 471.1 250.585 471.1C250.584 471.1 250.583 471.1 250.583 471.1C250.582 471.1 250.582 471.1 250.581 471.1C250.581 471.1 250.58 471.1 250.58 471.1C250.579 471.1 250.579 471.1 250.578 471.1C250.577 471.1 250.577 471.1 250.576 471.1C250.576 471.1 250.575 471.1 250.575 471.1C250.574 471.1 250.574 471.1 250.573 471.1C250.572 471.1 250.572 471.1 250.571 471.1C250.571 471.1 250.57 471.1 250.57 471.1C250.569 471.1 250.569 471.1 250.568 471.1C250.567 471.1 250.567 471.1 250.566 471.1C250.566 471.1 250.565 471.1 250.565 471.1C250.564 471.1 250.564 471.1 250.563 471.1C250.562 471.1 250.562 471.1 250.561 471.1C250.561 471.1 250.56 471.1 250.56 471.1C250.559 471.1 250.559 471.1 250.558 471.1C250.557 471.1 250.557 471.1 250.556 471.1C250.556 471.1 250.555 471.1 250.555 471.1C250.554 471.1 250.554 471.1 250.553 471.1C250.552 471.1 250.552 471.1 250.551 471.1C250.551 471.1 250.55 471.1 250.55 471.1C250.549 471.1 250.549 471.1 250.548 471.1C250.547 471.1 250.547 471.1 250.546 471.1C250.546 471.1 250.545 471.1 250.545 471.1C250.544 471.1 250.544 471.1 250.543 471.1C250.543 471.1 250.542 471.1 250.541 471.1C250.541 471.1 250.54 471.1 250.54 471.1C250.539 471.1 250.539 471.1 250.538 471.1C250.538 471.1 250.537 471.1 250.536 471.1C250.536 471.1 250.535 471.1 250.535 471.1C250.534 471.1 250.534 471.1 250.533 471.1C250.533 471.1 250.532 471.1 250.531 471.1C250.531 471.1 250.53 471.1 250.53 471.1C250.529 471.1 250.529 471.1 250.528 471.1C250.528 471.1 250.527 471.1 250.526 471.1C250.526 471.1 250.525 471.1 250.525 471.1C250.524 471.1 250.524 471.1 250.523 471.1C250.523 471.1 250.522 471.1 250.521 471.1C250.521 471.1 250.52 471.1 250.52 471.1C250.519 471.1 250.519 471.1 250.518 471.1C250.518 471.1 250.517 471.1 250.516 471.1C250.516 471.1 250.515 471.1 250.515 471.1C250.514 471.1 250.514 471.1 250.513 471.1C250.513 471.1 250.512 471.1 250.511 471.1C250.511 471.1 250.51 471.1 250.51 471.1C250.509 471.1 250.509 471.1 250.508 471.1C250.508 471.1 250.507 471.1 250.507 471.1C250.506 471.1 250.505 471.1 250.505 471.1C250.504 471.1 250.504 471.1 250.503 471.1C250.503 471.1 250.502 471.1 250.502 471.1C250.501 471.1 250.5 471.1 250.5 471.1C250.499 471.1 250.499 471.1 250.498 471.1C250.498 471.1 250.497 471.1 250.497 471.1C250.496 471.1 250.495 471.1 250.495 471.1C250.494 471.1 250.494 471.1 250.493 471.1C250.493 471.1 250.492 471.1 250.492 471.1C250.491 471.1 250.49 471.1 250.49 471.1C250.489 471.1 250.489 471.1 250.488 471.1C250.488 471.1 250.487 471.1 250.487 471.1C250.486 471.1 250.485 471.1 250.485 471.1C250.484 471.1 250.484 471.1 250.483 471.1C250.483 471.1 250.482 471.1 250.482 471.1C250.481 471.1 250.48 471.1 250.48 471.1C250.479 471.1 250.479 471.1 250.478 471.1C250.478 471.1 250.477 471.1 250.477 471.1C250.476 471.1 250.475 471.1 250.475 471.1C250.474 471.1 250.474 471.1 250.473 471.1C250.473 471.1 250.472 471.1 250.472 471.1C250.471 471.1 250.471 471.1 250.47 471.1C250.469 471.1 250.469 471.1 250.468 471.1C250.468 471.1 250.467 471.1 250.467 471.1C250.466 471.1 250.466 471.1 250.465 471.1C250.464 471.1 250.464 471.1 250.463 471.1C250.463 471.1 250.462 471.1 250.462 471.1C250.461 471.1 250.461 471.1 250.46 471.1C250.459 471.1 250.459 471.1 250.458 471.1C250.458 471.1 250.457 471.1 250.457 471.1C250.456 471.1 250.456 471.1 250.455 471.1C250.454 471.1 250.454 471.1 250.453 471.1C250.453 471.1 250.452 471.1 250.452 471.1C250.451 471.1 250.451 471.1 250.45 471.1C250.449 471.1 250.449 471.1 250.448 471.1C250.448 471.1 250.447 471.1 250.447 471.1C250.446 471.1 250.446 471.1 250.445 471.1C250.444 471.1 250.444 471.1 250.443 471.1C250.443 471.1 250.442 471.1 250.442 471.1C250.441 471.1 250.441 471.1 250.44 471.1C250.439 471.1 250.439 471.1 250.438 471.1C250.438 471.1 250.437 471.1 250.437 471.1C250.436 471.1 250.436 471.1 250.435 471.1C250.435 471.1 250.434 471.1 250.433 471.1C250.433 471.1 250.432 471.1 250.432 471.1C250.431 471.1 250.431 471.1 250.43 471.1C250.43 471.1 250.429 471.1 250.428 471.1C250.428 471.1 250.427 471.1 250.427 471.1C250.426 471.1 250.426 471.1 250.425 471.1C250.425 471.1 250.424 471.1 250.423 471.1C250.423 471.1 250.422 471.1 250.422 471.1C250.421 471.1 250.421 471.1 250.42 471.1C250.42 471.1 250.419 471.1 250.418 471.1C250.418 471.1 250.417 471.1 250.417 471.1C250.416 471.1 250.416 471.1 250.415 471.1C250.415 471.1 250.414 471.1 250.413 471.1C250.413 471.1 250.412 471.1 250.412 471.1C250.411 471.1 250.411 471.1 250.41 471.1C250.41 471.1 250.409 471.1 250.408 471.1C250.408 471.1 250.407 471.1 250.407 471.1C250.406 471.1 250.406 471.1 250.405 471.1C250.405 471.1 250.404 471.1 250.404 471.1C250.403 471.1 250.402 471.1 250.402 471.1C250.401 471.1 250.401 471.1 250.4 471.1C250.4 471.1 250.399 471.1 250.399 471.1C250.398 471.1 250.397 471.1 250.397 471.1C250.396 471.1 250.396 471.1 250.395 471.1C250.395 471.1 250.394 471.1 250.394 471.1C250.393 471.1 250.392 471.1 250.392 471.1C250.391 471.1 250.391 471.1 250.39 471.1C250.39 471.1 250.389 471.1 250.389 471.1C250.388 471.1 250.387 471.1 250.387 471.1C250.386 471.1 250.386 471.1 250.385 471.1C250.385 471.1 250.384 471.1 250.384 471.1C250.383 471.1 250.382 471.1 250.382 471.1C250.381 471.1 250.381 471.1 250.38 471.1C250.38 471.1 250.379 471.1 250.379 471.1C250.378 471.1 250.377 471.1 250.377 471.1C250.376 471.1 250.376 471.1 250.375 471.1C250.375 471.1 250.374 471.1 250.374 471.1C250.373 471.1 250.372 471.1 250.372 471.1C250.371 471.1 250.371 471.1 250.37 471.1C250.37 471.1 250.369 471.1 250.369 471.1C250.368 471.1 250.368 471.1 250.367 471.1C250.366 471.1 250.366 471.1 250.365 471.1C250.365 471.1 250.364 471.1 250.364 471.1C250.363 471.1 250.363 471.1 250.362 471.1C250.361 471.1 250.361 471.1 250.36 471.1C250.36 471.1 250.359 471.1 250.359 471.1C250.358 471.1 250.358 471.1 250.357 471.1C250.356 471.1 250.356 471.1 250.355 471.1C250.355 471.1 250.354 471.1 250.354 471.1C250.353 471.1 250.353 471.1 250.352 471.1C250.351 471.1 250.351 471.1 250.35 471.1C250.35 471.1 250.349 471.1 250.349 471.1C250.348 471.1 250.348 471.1 250.347 471.1C250.346 471.1 250.346 471.1 250.345 471.1C250.345 471.1 250.344 471.1 250.344 471.1C250.343 471.1 250.343 471.1 250.342 471.1C250.341 471.1 250.341 471.1 250.34 471.1C250.34 471.1 250.339 471.1 250.339 471.1C250.338 471.1 250.338 471.1 250.337 471.1C250.336 471.1 250.336 471.1 250.335 471.1C250.335 471.1 250.334 471.1 250.334 471.1C250.333 471.1 250.333 471.1 250.332 471.1C250.332 471.1 250.331 471.1 250.33 471.1C250.33 471.1 250.329 471.1 250.329 471.1C250.328 471.1 250.328 471.1 250.327 471.1C250.327 471.1 250.326 471.1 250.325 471.1C250.325 471.1 250.324 471.1 250.324 471.1C250.323 471.1 250.323 471.1 250.322 471.1C250.322 471.1 250.321 471.1 250.32 471.1C250.32 471.1 250.319 471.1 250.319 471.1C250.318 471.1 250.318 471.1 250.317 471.1C250.317 471.1 250.316 471.1 250.315 471.1C250.315 471.1 250.314 471.1 250.314 471.1C250.313 471.1 250.313 471.1 250.312 471.1C250.312 471.1 250.311 471.1 250.31 471.1C250.31 471.1 250.309 471.1 250.309 471.1C250.308 471.1 250.308 471.1 250.307 471.1C250.307 471.1 250.306 471.1 250.305 471.1C250.305 471.1 250.304 471.1 250.304 471.1C250.303 471.1 250.303 471.1 250.302 471.1C250.302 471.1 250.301 471.1 250.3 471.1C250.3 471.1 250.299 471.1 250.299 471.1C250.298 471.1 250.298 471.1 250.297 471.1C250.297 471.1 250.296 471.1 250.296 471.1C250.295 471.1 250.294 471.1 250.294 471.1C250.293 471.1 250.293 471.1 250.292 471.1C250.292 471.1 250.291 471.1 250.291 471.1C250.29 471.1 250.289 471.1 250.289 471.1C250.288 471.1 250.288 471.1 250.287 471.1C250.287 471.1 250.286 471.1 250.286 471.1C250.285 471.1 250.284 471.1 250.284 471.1C250.283 471.1 250.283 471.1 250.282 471.1C250.282 471.1 250.281 471.1 250.281 471.1C250.28 471.1 250.279 471.1 250.279 471.1C250.278 471.1 250.278 471.1 250.277 471.1C250.277 471.1 250.276 471.1 250.276 471.1C250.275 471.1 250.274 471.1 250.274 471.1C250.273 471.1 250.273 471.1 250.272 471.1C250.272 471.1 250.271 471.1 250.271 471.1C250.27 471.1 250.269 471.1 250.269 471.1C250.268 471.1 250.268 471.1 250.267 471.1C250.267 471.1 250.266 471.1 250.266 471.1C250.265 471.1 250.264 471.1 250.264 471.1C250.263 471.1 250.263 471.1 250.262 471.1C250.262 471.1 250.261 471.1 250.261 471.1C250.26 471.1 250.26 471.1 250.259 471.1C250.258 471.1 250.258 471.1 250.257 471.1C250.257 471.1 250.256 471.1 250.256 471.1C250.255 471.1 250.255 471.1 250.254 471.1C250.253 471.1 250.253 471.1 250.252 471.1C250.252 471.1 250.251 471.1 250.251 471.1C250.25 471.1 250.25 471.1 250.249 471.1C250.248 471.1 250.248 471.1 250.247 471.1C250.247 471.1 250.246 471.1 250.246 471.1C250.245 471.1 250.245 471.1 250.244 471.1C250.243 471.1 250.243 471.1 250.242 471.1C250.242 471.1 250.241 471.1 250.241 471.1C250.24 471.1 250.24 471.1 250.239 471.1C250.238 471.1 250.238 471.1 250.237 471.1C250.237 471.1 250.236 471.1 250.236 471.1C250.235 471.1 250.235 471.1 250.234 471.1C250.233 471.1 250.233 471.1 250.232 471.1C250.232 471.1 250.231 471.1 250.231 471.1C250.23 471.1 250.23 471.1 250.229 471.1C250.229 471.1 250.228 471.1 250.227 471.1C250.227 471.1 250.226 471.1 250.226 471.1C250.225 471.1 250.225 471.1 250.224 471.1C250.224 471.1 250.223 471.1 250.222 471.1C250.222 471.1 250.221 471.1 250.221 471.1C250.22 471.1 250.22 471.1 250.219 471.1C250.219 471.1 250.218 471.1 250.217 471.1C250.217 471.1 250.216 471.1 250.216 471.1C250.215 471.1 250.215 471.1 250.214 471.1C250.214 471.1 250.213 471.1 250.212 471.1C250.212 471.1 250.211 471.1 250.211 471.1C250.21 471.1 250.21 471.1 250.209 471.1C250.209 471.1 250.208 471.1 250.207 471.1C250.207 471.1 250.206 471.1 250.206 471.1C250.205 471.1 250.205 471.1 250.204 471.1C250.204 471.1 250.203 471.1 250.202 471.1C250.202 471.1 250.201 471.1 250.201 471.1C250.2 471.1 250.2 471.1 250.199 471.1C250.199 471.1 250.198 471.1 250.197 471.1C250.197 471.1 250.196 471.1 250.196 471.1C250.195 471.1 250.195 471.1 250.194 471.1C250.194 471.1 250.193 471.1 250.192 471.1C250.192 471.1 250.191 471.1 250.191 471.1C250.19 471.1 250.19 471.1 250.189 471.1C250.189 471.1 250.188 471.1 250.188 471.1C250.187 471.1 250.186 471.1 250.186 471.1C250.185 471.1 250.185 471.1 250.184 471.1C250.184 471.1 250.183 471.1 250.183 471.1C250.182 471.1 250.181 471.1 250.181 471.1C250.18 471.1 250.18 471.1 250.179 471.1C250.179 471.1 250.178 471.1 250.178 471.1C250.177 471.1 250.176 471.1 250.176 471.1C250.175 471.1 250.175 471.1 250.174 471.1C250.174 471.1 250.173 471.1 250.173 471.1C250.172 471.1 250.171 471.1 250.171 471.1C250.17 471.1 250.17 471.1 250.169 471.1C250.169 471.1 250.168 471.1 250.168 471.1C250.167 471.1 250.166 471.1 250.166 471.1C250.165 471.1 250.165 471.1 250.164 471.1C250.164 471.1 250.163 471.1 250.163 471.1C250.162 471.1 250.161 471.1 250.161 471.1C250.16 471.1 250.16 471.1 250.159 471.1C250.159 471.1 250.158 471.1 250.158 471.1C250.157 471.1 250.157 471.1 250.156 471.1C250.155 471.1 250.155 471.1 250.154 471.1C250.154 471.1 250.153 471.1 250.153 471.1C250.152 471.1 250.152 471.1 250.151 471.1C250.15 471.1 250.15 471.1 250.149 471.1C250.149 471.1 250.148 471.1 250.148 471.1C250.147 471.1 250.147 471.1 250.146 471.1C250.145 471.1 250.145 471.1 250.144 471.1C250.144 471.1 250.143 471.1 250.143 471.1C250.142 471.1 250.142 471.1 250.141 471.1C250.14 471.1 250.14 471.1 250.139 471.1C250.139 471.1 250.138 471.1 250.138 471.1C250.137 471.1 250.137 471.1 250.136 471.1C250.135 471.1 250.135 471.1 250.134 471.1C250.134 471.1 250.133 471.1 250.133 471.1C250.132 471.1 250.132 471.1 250.131 471.1C250.13 471.1 250.13 471.1 250.129 471.1C250.129 471.1 250.128 471.1 250.128 471.1C250.127 471.1 250.127 471.1 250.126 471.1C250.125 471.1 250.125 471.1 250.124 471.1C250.124 471.1 250.123 471.1 250.123 471.1C250.122 471.1 250.122 471.1 250.121 471.1C250.121 471.1 250.12 471.1 250.119 471.1C250.119 471.1 250.118 471.1 250.118 471.1C250.117 471.1 250.117 471.1 250.116 471.1C250.116 471.1 250.115 471.1 250.114 471.1C250.114 471.1 250.113 471.1 250.113 471.1V483.1ZM250.997 483.1C290.1 482.879 331.131 468.192 366.631 442.027L359.511 432.368C325.754 457.248 287.144 470.896 250.93 471.1L250.997 483.1ZM358.274 440.802L358.806 441.51L368.399 434.3L367.867 433.593L358.274 440.802ZM368.399 434.3L367.867 433.593L358.274 440.802L358.806 441.51L368.399 434.3ZM366.629 442.028C402.146 415.864 428.292 381.061 440.034 343.827L428.59 340.218C417.719 374.688 393.287 407.486 359.512 432.367L366.629 442.028ZM440.034 343.826C451.752 306.646 447.762 271.055 427.83 244.094L418.181 251.228C435.358 274.463 439.414 305.871 428.589 340.219L440.034 343.826ZM427.829 244.092C407.404 216.488 373.861 203.12 336.825 203.12V215.12C371.101 215.12 400.576 227.435 418.182 251.23L427.829 244.092Z" fill="#014BDA" mask="url(#path-6-outside-2)"/>
<path d="M307.726 336.664C332.398 311.992 337.899 277.236 320.012 259.035C302.125 240.834 267.624 246.079 242.952 270.751C218.28 295.424 212.779 330.179 230.666 348.381C248.553 366.582 283.054 361.336 307.726 336.664Z" stroke="#014BDA" stroke-width="6" stroke-miterlimit="10"/>
<path d="M284.291 306.546C273.203 280.243 248.563 265.36 229.256 273.302C209.949 281.244 203.287 309.004 214.375 335.306C225.464 361.608 250.104 376.492 269.411 368.55C288.718 360.608 295.38 332.848 284.291 306.546Z" stroke="#014BDA" stroke-width="6" stroke-miterlimit="10"/>
</g>
<path d="M251.048 393.451C187.001 393.451 134.917 322.313 134.917 234.867C134.917 147.421 187.019 76.2832 251.048 76.2832C315.076 76.2832 367.195 147.421 367.195 234.867C367.195 322.313 315.076 393.451 251.048 393.451ZM251.048 78.0519C187.994 78.0519 136.69 148.394 136.69 234.867C136.69 321.34 187.994 391.682 251.048 391.682C314.101 391.682 365.423 321.34 365.423 234.867C365.423 148.394 314.101 78.0519 251.048 78.0519Z" fill="#014BDA"/>
<path d="M308.721 332.683C333.394 308.011 338.894 273.255 321.007 255.054C303.12 236.852 268.619 242.098 243.947 266.77C219.275 291.442 213.775 326.198 231.662 344.399C249.548 362.601 284.049 357.355 308.721 332.683Z" stroke="#014BDA" stroke-width="1.5" stroke-miterlimit="10"/>
<path d="M285.287 302.565C274.199 276.262 249.558 261.379 230.251 269.321C210.945 277.263 204.282 305.023 215.371 331.325C226.459 357.627 251.1 372.511 270.406 364.569C289.713 356.627 296.375 328.867 285.287 302.565Z" stroke="#014BDA" stroke-width="1.5" stroke-miterlimit="10"/>
<path d="M250.469 437.744C244.018 437.744 237.585 437.196 231.187 436.064C150.377 421.879 100.472 320.531 119.913 210.145C139.371 99.7589 220.927 21.4752 301.755 35.6604C382.566 49.8455 432.488 151.193 413.029 261.597C403.619 315.03 379.553 362.591 345.262 395.543C316.517 423.17 283.466 437.744 250.469 437.744ZM282.669 35.7665C209.319 35.7665 139.442 109.593 121.668 210.446C102.386 319.877 151.653 420.305 231.506 434.331C270.14 441.105 310.102 426.884 344.039 394.269C378.065 361.583 401.936 314.358 411.293 261.296L412.161 261.456L411.293 261.296C430.556 151.848 381.29 51.4197 301.436 37.3937C295.18 36.2971 288.907 35.7665 282.669 35.7665Z" fill="#014BDA"/>
<path d="M247.58 474.764C183.285 474.764 112.948 424.727 74.5099 344.939C50.94 296.034 42.7172 243.397 51.3299 196.667C59.9604 149.849 84.4694 114.581 120.338 97.371C156.207 80.1613 199.111 83.062 241.147 105.578C283.094 128.041 319.157 167.324 342.71 216.212C391.373 317.223 370.816 428.282 296.881 463.762C281.339 471.226 264.663 474.764 247.58 474.764ZM169.888 88.0675C152.751 88.0675 136.288 91.6934 121.1 98.9806C85.7631 115.925 61.5908 150.733 53.0666 196.986C44.5248 243.344 52.6945 295.61 76.0871 344.161C124.325 444.306 223.035 497.244 296.084 462.17C369.15 427.097 389.335 317.1 341.097 216.972C317.704 168.421 281.907 129.403 240.296 107.134C216.62 94.4526 192.66 88.0675 169.888 88.0675Z" fill="#014BDA"/>
<path d="M261.934 393.274C225.711 393.274 193.652 380.203 174.3 354.044C135.348 301.371 162.391 215.234 234.607 162.031C306.823 108.828 397.257 108.403 436.209 161.094C475.161 213.766 448.118 299.903 375.902 353.106C339.573 379.867 298.618 393.274 261.934 393.274ZM348.611 123.614C312.299 123.614 271.699 136.915 235.671 163.464C164.252 216.083 137.351 301.106 175.736 353C214.121 404.895 303.438 404.293 374.874 351.674L375.406 352.381L374.874 351.674C446.293 299.054 473.176 214.031 434.809 162.137C415.794 136.438 384.267 123.614 348.611 123.614Z" fill="#014BDA"/>
<path d="M244.124 474.888C206.377 474.888 175.311 460.95 156.543 435.587C137.634 410.029 133.541 375.963 144.971 339.651C156.384 303.445 181.903 269.327 216.85 243.592C289.066 190.388 379.5 189.964 418.452 242.637C437.361 268.195 441.472 302.278 430.024 338.572C418.611 374.778 393.092 408.897 358.145 434.632C323.198 460.367 283.023 474.658 244.992 474.87C244.709 474.888 244.407 474.888 244.124 474.888ZM330.854 205.14C294.542 205.14 253.942 218.44 217.913 244.989C183.268 270.512 157.979 304.312 146.672 340.164C135.401 375.928 139.424 409.427 157.979 434.525C176.392 459.429 206.979 473.119 244.142 473.119C244.425 473.119 244.709 473.119 244.992 473.119C282.651 472.907 322.471 458.739 357.1 433.217L357.631 433.924L357.1 433.217C391.745 407.694 417.034 373.894 428.341 338.042C439.612 302.278 435.589 268.778 417.034 243.68C398.019 217.98 366.51 205.14 330.854 205.14Z" fill="#014BDA"/>
<circle cx="97.76" cy="112.621" r="6.97142" fill="#014BDA" stroke="#01BAFB" stroke-width="2"/>
<circle cx="360.503" cy="183.283" r="6.97142" fill="#014BDA" stroke="#01BAFB" stroke-width="2"/>
<circle cx="168.422" cy="244.988" r="6.97142" fill="#014BDA" stroke="#01BAFB" stroke-width="2"/>
<circle cx="424.198" cy="351.478" r="6.97142" fill="#014BDA" stroke="#01BAFB" stroke-width="2"/>
<circle cx="231.122" cy="435.078" r="6.97142" fill="#014BDA" stroke="#01BAFB" stroke-width="2"/>
<path opacity="0.9" d="M250.67 328.333H260.648V337.791H250.67V328.333ZM251.571 322.854C251.571 321.663 251.651 320.605 251.812 319.683C251.972 318.721 252.232 317.876 252.593 317.145C252.954 316.376 253.415 315.665 253.976 315.011C254.577 314.358 255.298 313.704 256.14 313.05C256.821 312.474 257.522 311.955 258.243 311.493C259.005 310.993 259.706 310.474 260.347 309.936C260.988 309.398 261.509 308.821 261.91 308.206C262.311 307.552 262.511 306.803 262.511 305.957C262.511 304.611 261.97 303.554 260.888 302.785C259.846 302.016 258.484 301.632 256.801 301.632C254.757 301.632 253.114 302.227 251.872 303.419C250.63 304.611 249.988 306.111 249.948 307.918H240.571C240.611 305.995 241.012 304.208 241.773 302.554C242.535 300.863 243.617 299.402 245.019 298.171C246.462 296.902 248.185 295.922 250.189 295.23C252.232 294.5 254.557 294.134 257.161 294.134C259.486 294.134 261.589 294.423 263.473 294.999C265.356 295.538 266.959 296.307 268.282 297.306C269.604 298.306 270.626 299.536 271.347 300.997C272.068 302.42 272.429 303.996 272.429 305.726C272.429 307.918 271.968 309.705 271.047 311.09C270.165 312.474 269.143 313.608 267.981 314.492C266.338 315.723 264.956 316.664 263.834 317.318C262.752 317.972 261.89 318.625 261.249 319.279C260.768 319.817 260.447 320.336 260.287 320.836C260.127 321.336 260.027 322.009 259.987 322.854H251.571Z" fill="#014BDA"/>
</svg>
