<svg width="512" height="512" viewBox="0 0 512 512" fill="none" xmlns="http://www.w3.org/2000/svg">
<g opacity="0.15">
<path d="M237.158 440.045L237.681 437.091L237.677 437.09L237.158 440.045ZM147.16 369.424L149.799 367.997L145.274 359.629L144.18 369.079L147.16 369.424ZM163.95 438.506L161.538 440.29L161.538 440.29L163.95 438.506ZM186.773 459.948L185.135 462.461L185.273 462.551L185.42 462.625L186.773 459.948ZM258.123 476.893L258.238 479.891L258.258 479.89L258.278 479.889L258.123 476.893ZM269.674 475.876L270.042 478.853L270.065 478.851L270.087 478.847L269.674 475.876ZM302.055 466.152L300.757 463.447L300.757 463.447L302.055 466.152ZM366.643 382.918L369.536 383.71L373.208 370.303L364.334 381.003L366.643 382.918ZM351.233 399.524L349.154 397.36L349.154 397.361L351.233 399.524ZM271.157 477.451L270.765 474.477L270.739 474.48L270.713 474.484L271.157 477.451ZM257.223 478.69L257.133 475.691L257.11 475.692L257.086 475.693L257.223 478.69ZM364.116 438.612L365.895 441.028L365.895 441.028L364.116 438.612ZM435.995 342.553L433.134 341.651L433.134 341.651L435.995 342.553ZM441.479 289.648L438.839 288.224L438.38 289.075L438.504 290.034L441.479 289.648ZM442.18 165.074L439.768 166.858L439.768 166.858L442.18 165.074ZM410.052 138.166L407.223 139.166L407.623 140.297L408.693 140.841L410.052 138.166ZM307.726 39.6413L308.245 36.6865L308.244 36.6865L307.726 39.6413ZM183.782 90.5181L183.593 93.5122L185.042 93.6034L186.013 92.5239L183.782 90.5181ZM126.309 101.352L127.607 104.057L127.607 104.057L126.309 101.352ZM57.3011 200.648L54.3508 200.105L54.3508 200.105L57.3011 200.648ZM80.481 348.921L83.1838 347.619L83.1836 347.618L80.481 348.921ZM185.551 461.279L187.197 458.771L187.059 458.68L186.911 458.605L185.551 461.279ZM250.963 478.851L250.947 475.851L250.861 475.851L250.776 475.857L250.963 478.851ZM162.515 439.568L160.103 441.352L160.103 441.352L162.515 439.568ZM175.875 453.979L174.349 456.562L177.837 451.709L175.875 453.979ZM145.713 366.694L148.686 367.1L148.815 366.156L148.376 365.312L145.713 366.694ZM125.884 214.126L122.929 213.605L122.929 213.606L125.884 214.126ZM182.272 92.2159L184.525 94.1966L188.618 89.5411L182.428 89.2199L182.272 92.2159ZM127.071 102.962L128.368 105.667L128.369 105.667L127.071 102.962ZM59.0378 200.967L56.0875 200.423L56.0875 200.423L59.0378 200.967ZM82.0583 348.142L84.7611 346.84L84.7609 346.84L82.0583 348.142ZM237.477 438.312L236.958 441.266L236.959 441.267L237.477 438.312ZM147.546 366.416L144.575 365.998L144.441 366.953L144.887 367.806L147.546 366.416ZM350.01 398.25L347.931 396.087L347.931 396.087L350.01 398.25ZM367.714 378.809L370.058 380.681L370.468 380.168L370.626 379.53L367.714 378.809ZM370.587 364.881L373.547 365.374L374.662 358.676L368.959 362.361L370.587 364.881ZM263.481 397.189L263.57 394.191L263.413 394.186L263.256 394.198L263.481 397.189ZM207.017 381.971L208.659 379.46L208.6 379.422L208.54 379.387L207.017 381.971ZM180.272 358.025L177.859 359.808L177.86 359.809L180.272 358.025ZM178.796 355.968L181.258 354.254L181.2 354.17L181.136 354.09L178.796 355.968ZM159.828 325.57L162.532 324.272L159.768 318.513L157.101 324.318L159.828 325.57ZM152.644 344.145L149.782 343.243L149.782 343.243L152.644 344.145ZM150.942 343.632L148.081 342.73L148.081 342.731L150.942 343.632ZM158.841 323.48L161.556 324.757L162.152 323.489L161.563 322.218L158.841 323.48ZM146.157 363.707L143.476 365.053L147.647 373.358L149.119 364.182L146.157 363.707ZM127.638 214.427L124.684 213.906L124.684 213.906L127.638 214.427ZM184.493 92.3508L184.701 89.358L183.232 89.2559L182.253 90.3553L184.493 92.3508ZM206.852 95.8381L208.499 98.3456L214.288 94.5431L207.555 92.9215L206.852 95.8381ZM159.829 321.415L157.097 322.654L159.733 328.468L162.527 322.728L159.829 321.415ZM209.183 96.4197L209.933 93.515L208.674 93.19L207.577 93.8861L209.183 96.4197ZM246.267 111.116L244.851 113.76L244.852 113.761L246.267 111.116ZM286.971 139.833L288.107 142.609L292.542 140.794L288.972 137.598L286.971 139.833ZM240.578 166.012L242.358 168.427L242.358 168.427L240.578 166.012ZM163.275 314.709L165.913 316.138L166.371 315.291L166.252 314.337L163.275 314.709ZM170.654 341.53L168.119 343.135L173.394 340.308L170.654 341.53ZM160.794 323.504L158.085 322.215L157.475 323.495L158.078 324.779L160.794 323.504ZM163.694 317.697L166.658 317.236L165.259 308.236L161.036 316.306L163.694 317.697ZM180.405 355.173L177.948 356.894L178.007 356.978L178.07 357.057L180.405 355.173ZM165.099 315.067L162.465 313.631L161.997 314.489L162.125 315.458L165.099 315.067ZM207.936 380.473L206.293 382.983L206.351 383.022L206.412 383.057L207.936 380.473ZM263.178 395.439L263.081 398.437L263.239 398.442L263.397 398.431L263.178 395.439ZM367.49 279.538L370.434 280.116L370.554 279.501L370.419 278.889L367.49 279.538ZM347.068 220.953L349.771 219.651L349.771 219.651L347.068 220.953ZM341.054 209.181L343.692 207.754L342.869 206.232L341.14 206.182L341.054 209.181ZM223.885 248.97L225.664 251.385L225.664 251.385L223.885 248.97ZM222.821 247.573L224.6 249.988L224.601 249.988L222.821 247.573ZM164.748 312.043L161.763 312.345L162.715 321.76L167.361 313.516L164.748 312.043ZM340.096 207.426L340.03 210.425L345.233 210.54L342.724 205.98L340.096 207.426ZM288.435 141.155L290.456 138.937L289.06 137.666L287.31 138.374L288.435 141.155ZM241.642 167.445L243.421 169.86L243.421 169.86L241.642 167.445ZM348.681 220.193L351.383 218.891L351.383 218.891L348.681 220.193ZM343.118 209.256L343.248 206.259L337.985 206.031L340.474 210.673L343.118 209.256ZM368.304 275.134L365.385 275.83L368.768 290.011L371.26 275.647L368.304 275.134ZM369.86 213.157L372.838 212.797L372.593 210.766L370.612 210.252L369.86 213.157ZM342.161 207.486L339.528 208.922L340.346 210.422L342.053 210.484L342.161 207.486ZM369.628 211.306L368.894 214.214L373.171 215.294L372.603 210.92L369.628 211.306ZM290.265 140.425L289.167 137.634L284.699 139.391L288.237 142.636L290.265 140.425ZM338.185 128.471L340.615 126.713L339.597 125.306L337.87 125.488L338.185 128.471ZM371.702 213.65L372.502 210.758L368.202 209.569L368.722 214L371.702 213.65ZM369.302 279.484L366.357 278.912L366.238 279.522L366.372 280.13L369.302 279.484ZM372.951 361.211L369.982 360.78L369.009 367.474L374.624 363.701L372.951 361.211ZM380.845 355.655L382.625 358.07L382.625 358.07L380.845 355.655ZM386.353 351.464L388.206 353.823L388.659 353.467L388.948 352.968L386.353 351.464ZM417.263 265.277L420.218 265.798L420.218 265.797L417.263 265.277ZM420.166 244.03L423.152 244.32L423.272 243.08L422.479 242.119L420.166 244.03ZM371.474 211.788L368.498 212.164L368.751 214.16L370.693 214.684L371.474 211.788ZM420.394 241.568L418.119 243.524L422.758 248.917L423.382 241.831L420.394 241.568ZM340.194 128.272L339.916 125.285L334.722 125.768L337.751 130.014L340.194 128.272ZM408.624 139.416L411.457 138.426L411.055 137.276L409.964 136.732L408.624 139.416ZM419 265.578L416.046 265.057L416.046 265.058L419 265.578ZM421.743 245.998L424.111 244.155L419.531 238.268L418.759 245.687L421.743 245.998ZM390.078 348.472L387.455 347.016L379.816 360.78L391.982 350.791L390.078 348.472ZM439.654 289.36L442.289 290.794L442.759 289.932L442.627 288.959L439.654 289.36ZM423.005 247.661L425.418 245.878L425.417 245.877L423.005 247.661ZM424.423 246.617L422.011 248.401L422.011 248.402L424.423 246.617ZM441.057 286.73L438.095 287.203L439.522 296.146L443.716 288.119L441.057 286.73ZM421.993 243.482L419.007 243.199L418.891 244.42L419.664 245.373L421.993 243.482ZM410.89 140.584L412.299 137.935L405.612 134.377L408.05 141.549L410.89 140.584ZM440.78 166.118L443.192 164.335L443.192 164.334L440.78 166.118ZM387.711 352.638L385.854 350.282L385.405 350.636L385.118 351.13L387.711 352.638ZM440.009 292.319L442.993 292.006L442.008 282.63L437.393 290.851L440.009 292.319ZM369.343 379.594L366.995 377.726L366.59 378.236L366.432 378.867L369.343 379.594ZM302.853 467.743L301.555 465.039L301.554 465.039L302.853 467.743ZM297.924 469.964L296.759 467.199L298.77 472.842L297.924 469.964ZM363.071 437.198L361.291 434.782L361.291 434.783L363.071 437.198ZM434.312 342.022L437.173 342.925L437.173 342.924L434.312 342.022ZM276.107 395.29L275.443 392.365L276.268 398.286L276.107 395.29ZM370.964 362.531L372.61 365.039L373.726 364.306L373.929 362.987L370.964 362.531ZM368.406 283.841L371.345 283.242L368.498 269.273L365.474 283.205L368.406 283.841ZM372.593 363.569L370.938 361.067L369.836 361.797L369.63 363.102L372.593 363.569ZM370.32 375.479L367.393 374.821L364.396 388.136L372.701 377.305L370.32 375.479ZM381.873 357.087L383.653 359.503L383.653 359.503L381.873 357.087ZM383.924 355.559L386.488 357.116L394.609 343.741L382.117 353.164L383.924 355.559ZM407.781 137.048L406.489 139.755L413.101 142.909L410.601 136.024L407.781 137.048ZM307.407 41.3746L307.926 38.4199L307.925 38.4197L307.407 41.3746ZM338.993 126.613L336.575 128.389L337.587 129.767L339.288 129.598L338.993 126.613ZM208.917 94.5159L208.181 97.4241L209.42 97.738L210.505 97.061L208.917 94.5159ZM186.001 90.6772L183.784 88.6566L179.664 93.1778L185.761 93.6675L186.001 90.6772ZM336.976 126.825L337.308 129.807L342.507 129.227L339.381 125.033L336.976 126.825ZM288.801 139.094L286.792 141.322L288.177 142.571L289.911 141.881L288.801 139.094ZM247.118 109.559L245.701 112.204L245.702 112.204L247.118 109.559ZM211.269 95.1318L209.724 92.5603L203.686 96.1883L210.486 98.0277L211.269 95.1318ZM232.787 346.259L230.648 348.362L230.648 348.362L232.787 346.259ZM223.799 312.467L220.836 311.998L220.836 311.998L223.799 312.467ZM266.206 355.62L265.755 352.654L265.755 352.654L266.206 355.62ZM283.099 350.428L284.359 353.151L285.396 352.671L285.851 351.624L283.099 350.428ZM285.322 343.722L288.239 344.422L288.239 344.422L285.322 343.722ZM281.517 307.687L284.281 306.522L284.281 306.522L281.517 307.687ZM258.304 279.635L259.855 277.067L259.855 277.067L258.304 279.635ZM243.624 274.357L243.974 271.377L242.486 271.203L241.452 272.287L243.624 274.357ZM235.372 274.604L237.675 276.526L243.017 270.122L234.82 271.655L235.372 274.604ZM217.899 311.518L214.936 311.049L214.936 311.049L217.899 311.518ZM267.096 361.579L266.645 358.613L266.645 358.613L267.096 361.579ZM277.685 359.03L279.924 361.026L287.351 352.695L276.748 356.18L277.685 359.03ZM268.245 365.786L267.104 363.011L267.104 363.011L268.245 365.786ZM240.363 362.216L241.914 359.649L241.914 359.649L240.363 362.216ZM217.15 334.165L214.385 335.33L214.385 335.33L217.15 334.165ZM213.345 298.13L210.428 297.43L210.428 297.43L213.345 298.13ZM230.421 276.066L229.28 273.292L229.28 273.292L230.421 276.066ZM248.919 269.261L246.935 267.011L242.636 270.801L248.2 272.174L248.919 269.261ZM284.471 251.795L284.02 248.829L284.02 248.829L284.471 251.795ZM317.89 261.156L320.03 259.053L320.03 259.053L317.89 261.156ZM326.879 294.948L323.916 294.479L323.916 294.479L326.879 294.948ZM305.623 334.524L303.502 332.403L303.502 332.403L305.623 334.524ZM290.905 346.222L288.005 345.456L286.086 352.727L292.483 348.773L290.905 346.222ZM291.177 345.144L288.26 344.444L288.26 344.444L291.177 345.144ZM287.066 305.404L289.83 304.239L289.83 304.239L287.066 305.404ZM261.407 274.529L262.958 271.961L262.958 271.961L261.407 274.529ZM287.647 354.917L286.308 352.232L285.414 352.678L284.966 353.571L287.647 354.917ZM332.778 295.898L335.741 296.367L335.741 296.366L332.778 295.898ZM283.581 245.836L283.13 242.87L283.13 242.87L283.581 245.836ZM241.274 268.189L241.179 271.188L242.465 271.228L243.381 270.325L241.274 268.189ZM228.09 270.537L229.232 273.312L229.232 273.312L228.09 270.537ZM207.49 296.708L204.573 296.008L204.573 296.008L207.49 296.708ZM237.26 367.323L235.708 369.891L235.708 369.891L237.26 367.323ZM270.576 371.315L271.717 374.089L271.717 374.089L270.576 371.315ZM236.635 442.999C243.21 444.162 249.818 444.725 256.439 444.725V438.725C250.159 438.725 243.901 438.192 237.681 437.091L236.635 442.999ZM144.521 370.851C165.17 409.035 197.22 436.08 236.639 443L237.677 437.09C200.475 430.56 169.795 404.975 149.799 367.997L144.521 370.851ZM166.362 436.723C152.772 418.34 147.197 395.2 150.14 369.769L144.18 369.079C141.086 395.816 146.927 420.526 161.538 440.29L166.362 436.723ZM188.411 457.434C179.831 451.843 172.414 444.908 166.362 436.723L161.538 440.29C168.025 449.065 175.971 456.489 185.135 462.461L188.411 457.434ZM258.008 473.896C235.136 474.775 211.216 468.937 188.126 457.27L185.42 462.625C209.263 474.672 234.187 480.816 258.238 479.891L258.008 473.896ZM269.305 472.899C265.512 473.369 261.73 473.702 257.968 473.897L258.278 479.889C262.186 479.687 266.111 479.34 270.042 478.853L269.305 472.899ZM300.757 463.447C290.694 468.279 280.128 471.394 269.261 472.905L270.087 478.847C281.549 477.254 292.714 473.964 303.354 468.856L300.757 463.447ZM363.75 382.125C353.651 418.998 332.144 448.38 300.757 463.447L303.353 468.856C336.635 452.88 359.084 421.874 369.536 383.71L363.75 382.125ZM353.311 401.687C358.791 396.421 364.01 390.791 368.952 384.833L364.334 381.003C359.531 386.793 354.466 392.256 349.154 397.36L353.311 401.687ZM256.439 444.725C290.357 444.725 324.122 429.741 353.311 401.686L349.154 397.361C320.854 424.561 288.517 438.725 256.439 438.725V444.725ZM270.713 474.484C266.233 475.155 261.702 475.555 257.133 475.691L257.313 481.689C262.113 481.545 266.881 481.124 271.601 480.418L270.713 474.484ZM362.337 436.197C333.893 457.143 302 470.365 270.765 474.477L271.549 480.425C303.886 476.168 336.719 462.513 365.895 441.028L362.337 436.197ZM433.134 341.651C421.939 377.166 396.848 410.783 362.337 436.197L365.895 441.028C401.279 414.972 427.226 380.351 438.857 343.455L433.134 341.651ZM438.504 290.034C440.583 306.051 438.852 323.523 433.134 341.651L438.856 343.455C444.801 324.61 446.659 306.256 444.454 289.262L438.504 290.034ZM439.768 166.858C463.726 199.255 462.032 245.217 438.839 288.224L444.12 291.072C467.999 246.793 470.389 198.174 444.592 163.291L439.768 166.858ZM408.693 140.841C420.984 147.087 431.564 155.761 439.768 166.858L444.592 163.291C435.797 151.394 424.476 142.131 411.411 135.492L408.693 140.841ZM307.207 42.5961C353.032 50.64 389.011 87.6363 407.223 139.166L412.881 137.166C394.19 84.2836 356.835 45.2159 308.245 36.6865L307.207 42.5961ZM186.013 92.5239C220.031 54.6882 263.894 34.9948 307.207 42.5961L308.244 36.6865C262.328 28.6282 216.518 49.6206 181.551 88.5123L186.013 92.5239ZM127.607 104.057C144.872 95.7731 163.834 92.2674 183.593 93.5122L183.97 87.524C163.245 86.2184 143.253 89.8953 125.012 98.6475L127.607 104.057ZM60.2514 201.192C68.7467 155.107 92.7788 120.768 127.607 104.057L125.012 98.6475C88.1024 116.356 63.1164 152.553 54.3508 200.105L60.2514 201.192ZM83.1836 347.618C59.8493 299.202 51.77 247.209 60.2514 201.192L54.3508 200.105C45.6067 247.547 53.9731 300.829 77.7785 350.223L83.1836 347.618ZM186.911 458.605C145.999 437.795 107.935 398.996 83.1838 347.619L77.7783 350.223C103.038 402.655 141.985 442.485 184.191 463.953L186.911 458.605ZM250.095 475.869C225.594 475.869 204.132 469.882 187.197 458.771L183.906 463.787C201.974 475.643 224.627 481.869 250.095 481.869V475.869ZM250.776 475.857C250.603 475.868 250.397 475.869 250.095 475.869V481.869C250.36 481.869 250.757 481.87 251.15 481.845L250.776 475.857ZM257.086 475.693C255.034 475.787 252.987 475.84 250.947 475.851L250.98 481.851C253.101 481.839 255.228 481.784 257.36 481.687L257.086 475.693ZM160.103 441.352C164.166 446.844 168.788 451.818 173.913 456.248L177.837 451.709C173.044 447.566 168.725 442.917 164.926 437.783L160.103 441.352ZM142.741 366.288C138.896 394.466 144.734 420.579 160.103 441.352L164.926 437.783C150.613 418.438 145.022 393.949 148.686 367.1L142.741 366.288ZM122.929 213.606C112.825 270.978 121.238 326.06 143.051 368.076L148.376 365.312C127.235 324.589 118.937 270.865 128.838 214.646L122.929 213.606ZM180.019 90.2352C152.381 121.674 131.578 164.54 122.929 213.605L128.838 214.647C137.31 166.585 157.666 124.75 184.525 94.1966L180.019 90.2352ZM175.859 95.0488C177.934 95.0488 180.021 95.1031 182.117 95.2119L182.428 89.2199C180.229 89.1059 178.039 89.0488 175.859 89.0488V95.0488ZM128.369 105.667C143.135 98.5816 159.153 95.0488 175.859 95.0488V89.0488C158.291 89.0488 141.382 92.7677 125.774 100.257L128.369 105.667ZM61.9881 201.511C70.3776 155.989 94.0744 122.111 128.368 105.667L125.774 100.257C89.3942 117.701 64.7463 153.44 56.0875 200.423L61.9881 201.511ZM84.7609 346.84C61.6036 298.777 53.5777 247.156 61.9882 201.51L56.0875 200.423C47.4143 247.494 55.7278 300.405 79.3556 349.445L84.7609 346.84ZM177.401 451.396C140.788 429.764 107.251 393.531 84.7611 346.84L79.3555 349.444C102.314 397.108 136.628 434.276 174.349 456.562L177.401 451.396ZM237.996 435.357C200.619 428.792 169.91 402.688 150.204 365.025L144.887 367.806C165.231 406.689 197.315 434.303 236.958 441.266L237.996 435.357ZM347.931 396.087C314.528 428.189 275.492 441.932 237.995 435.357L236.959 441.267C276.729 448.24 317.617 433.542 352.088 400.413L347.931 396.087ZM365.37 376.936C359.909 383.773 354.087 390.174 347.931 396.087L352.088 400.414C358.44 394.312 364.439 387.715 370.058 380.681L365.37 376.936ZM367.628 364.388C366.852 369.049 365.91 373.619 364.802 378.087L370.626 379.53C371.772 374.907 372.746 370.184 373.547 365.374L367.628 364.388ZM267.905 400.255C301.472 400.255 338.403 389.251 372.216 367.401L368.959 362.361C336.015 383.651 300.201 394.255 267.905 394.255V400.255ZM263.392 400.188C264.889 400.233 266.394 400.255 267.905 400.255V394.255C266.453 394.255 265.008 394.233 263.57 394.191L263.392 400.188ZM257.019 400.432C259.262 400.432 261.492 400.347 263.706 400.181L263.256 394.198C261.191 394.353 259.112 394.432 257.019 394.432V400.432ZM205.375 384.482C220.962 394.676 238.484 400.432 257.019 400.432V394.432C239.768 394.432 223.373 389.084 208.659 379.46L205.375 384.482ZM177.86 359.809C185.383 369.979 194.758 378.227 205.493 384.555L208.54 379.387C198.462 373.446 189.704 365.73 182.683 356.24L177.86 359.809ZM176.333 357.681C176.831 358.396 177.339 359.105 177.859 359.808L182.684 356.241C182.198 355.584 181.723 354.922 181.258 354.254L176.333 357.681ZM157.123 326.868C162.589 338.254 169.09 348.664 176.456 357.845L181.136 354.09C174.076 345.29 167.813 335.273 162.532 324.272L157.123 326.868ZM155.505 345.047C157.442 338.905 159.799 332.819 162.554 326.822L157.101 324.318C154.246 330.534 151.797 336.854 149.782 343.243L155.505 345.047ZM150.516 366.833C151.516 359.722 153.174 352.441 155.505 345.047L149.782 343.243C147.358 350.936 145.623 358.54 144.575 365.998L150.516 366.833ZM153.803 344.534C155.907 337.862 158.5 331.256 161.556 324.757L156.126 322.204C152.961 328.936 150.268 335.792 148.081 342.73L153.803 344.534ZM149.119 364.182C150.151 357.747 151.71 351.184 153.804 344.533L148.081 342.731C145.904 349.647 144.275 356.494 143.195 363.232L149.119 364.182ZM124.684 213.906C114.819 269.893 122.69 323.669 143.476 365.053L148.838 362.36C128.69 322.248 120.928 269.801 130.593 214.947L124.684 213.906ZM182.253 90.3553C154.383 121.641 133.37 164.62 124.684 213.906L130.593 214.947C139.101 166.674 159.659 124.739 186.733 94.3463L182.253 90.3553ZM207.555 92.9215C199.876 91.0724 192.242 89.8823 184.701 89.358L184.285 95.3435C191.478 95.8437 198.782 96.9804 206.15 98.7547L207.555 92.9215ZM143.889 238.848C143.889 176.673 170.555 123.268 208.499 98.3456L205.205 93.3306C165.176 119.622 137.889 175.177 137.889 238.848H143.889ZM161.563 322.218C150.387 298.125 143.889 269.525 143.889 238.848H137.889C137.889 270.36 144.561 299.825 156.12 324.742L161.563 322.218ZM139.661 238.848C139.661 269.532 146.034 298.254 157.097 322.654L162.562 320.176C151.866 296.587 145.661 268.714 145.661 238.848H139.661ZM207.577 93.8861C167.263 119.447 139.661 175.034 139.661 238.848H145.661C145.661 176.53 172.636 123.145 210.789 98.9533L207.577 93.8861ZM247.684 108.471C235.136 101.75 222.482 96.7553 209.933 93.515L208.433 99.3244C220.483 102.436 232.691 107.247 244.851 113.76L247.684 108.471ZM288.972 137.598C276.11 126.082 262.257 116.27 247.683 108.471L244.852 113.761C258.976 121.319 272.439 130.849 284.97 142.068L288.972 137.598ZM242.358 168.427C257.054 157.6 272.507 148.994 288.107 142.609L285.834 137.056C269.772 143.63 253.889 152.48 238.799 163.597L242.358 168.427ZM166.252 314.337C160.255 266.473 188.282 208.266 242.358 168.427L238.799 163.597C183.497 204.339 153.959 264.489 160.298 315.082L166.252 314.337ZM162.527 322.728C163.603 320.517 164.732 318.32 165.913 316.138L160.637 313.281C159.415 315.539 158.246 317.813 157.132 320.102L162.527 322.728ZM173.188 339.925C169.669 334.367 166.432 328.454 163.509 322.229L158.078 324.779C161.104 331.223 164.461 337.357 168.119 343.135L173.188 339.925ZM160.73 318.158C162.059 326.702 164.435 334.95 167.914 342.751L173.394 340.308C170.143 333.018 167.91 325.284 166.658 317.236L160.73 318.158ZM163.502 324.793C164.412 322.882 165.362 320.98 166.352 319.088L161.036 316.306C160.011 318.264 159.027 320.234 158.085 322.215L163.502 324.793ZM182.862 353.452C174.786 341.922 169.926 328.762 168.073 314.676L162.125 315.458C164.093 330.425 169.275 344.513 177.948 356.894L182.862 353.452ZM209.578 377.963C199.793 371.56 190.756 363.226 182.74 353.289L178.07 357.057C186.437 367.428 195.93 376.203 206.293 382.983L209.578 377.963ZM263.274 392.44C243.213 391.794 224.762 386.915 209.46 377.889L206.412 383.057C222.716 392.674 242.185 397.764 263.081 398.437L263.274 392.44ZM364.546 278.961C352.091 342.456 311.141 388.923 262.959 392.446L263.397 398.431C315.369 394.63 357.705 345.009 370.434 280.116L364.546 278.961ZM344.365 222.255C353.595 241.413 360.288 260.927 364.561 280.188L370.419 278.889C366.045 259.172 359.199 239.221 349.771 219.651L344.365 222.255ZM338.415 210.608C340.479 214.424 342.463 218.308 344.365 222.256L349.771 219.651C347.828 215.619 345.801 211.652 343.692 207.754L338.415 210.608ZM336.825 212.12C338.213 212.12 339.593 212.14 340.967 212.18L341.14 206.182C339.708 206.141 338.27 206.12 336.825 206.12V212.12ZM225.664 251.385C261.231 225.176 301.218 212.12 336.825 212.12V206.12C299.808 206.12 258.594 219.666 222.105 246.555L225.664 251.385ZM167.733 316.503C181.025 292.122 200.902 269.627 225.664 251.385L222.105 246.554C196.695 265.273 176.211 288.419 162.465 313.631L167.733 316.503ZM221.042 245.157C196.175 263.469 175.981 286 162.134 310.57L167.361 313.516C180.76 289.741 200.364 267.836 224.6 249.988L221.042 245.157ZM340.162 204.427C301.913 203.583 258.948 217.231 221.042 245.157L224.601 249.988C261.56 222.759 303.249 209.614 340.03 210.425L340.162 204.427ZM286.415 143.373C306.184 161.381 323.564 183.6 337.468 208.872L342.724 205.98C328.522 180.166 310.742 157.416 290.456 138.937L286.415 143.373ZM243.421 169.86C258.239 158.941 273.831 150.3 289.561 143.936L287.31 138.374C271.111 144.928 255.079 153.816 239.862 165.029L243.421 169.86ZM167.732 311.741C163.001 264.97 190.768 208.653 243.421 169.86L239.862 165.029C186 204.714 156.763 262.913 161.763 312.345L167.732 311.741ZM351.383 218.891C349.581 215.15 347.707 211.465 345.762 207.838L340.474 210.673C342.378 214.224 344.213 217.832 345.978 221.495L351.383 218.891ZM371.222 274.438C366.805 255.92 360.222 237.238 351.383 218.891L345.978 221.495C354.632 239.458 361.07 257.734 365.385 275.83L371.222 274.438ZM368.395 238.848C368.395 251.163 367.339 263.141 365.348 274.621L371.26 275.647C373.31 263.826 374.395 251.505 374.395 238.848H368.395ZM366.882 213.516C367.877 221.758 368.395 230.22 368.395 238.848H374.395C374.395 229.98 373.862 221.278 372.838 212.797L366.882 213.516ZM342.988 212.253C352.083 212.647 360.839 213.919 369.108 216.061L370.612 210.252C361.908 207.998 352.733 206.669 343.248 206.259L342.988 212.253ZM342.053 210.484C351.392 210.822 360.391 212.068 368.894 214.214L370.362 208.397C361.421 206.14 352.001 204.84 342.27 204.488L342.053 210.484ZM288.237 142.636C308.131 160.889 325.593 183.372 339.528 208.922L344.795 206.05C330.564 179.955 312.702 156.94 292.293 138.215L288.237 142.636ZM337.87 125.488C321.918 127.169 305.465 131.224 289.167 137.634L291.363 143.217C307.187 136.994 323.115 133.076 338.499 131.455L337.87 125.488ZM372.603 210.92C368.393 178.475 356.971 149.32 340.615 126.713L335.754 130.23C351.468 151.949 362.558 180.138 366.653 211.692L372.603 210.92ZM376.167 238.848C376.167 230.158 375.659 221.624 374.681 213.3L368.722 214C369.673 222.092 370.167 230.391 370.167 238.848H376.167ZM372.247 280.056C374.805 266.893 376.167 253.081 376.167 238.848H370.167C370.167 252.699 368.841 266.128 366.357 278.912L372.247 280.056ZM375.92 361.643C379.68 335.765 378.555 307.537 372.231 278.839L366.372 280.13C372.552 308.178 373.63 335.675 369.982 360.78L375.92 361.643ZM379.066 353.239C376.492 355.135 373.895 356.962 371.278 358.721L374.624 363.701C377.313 361.894 379.981 360.017 382.625 358.07L379.066 353.239ZM384.5 349.105C382.719 350.504 380.907 351.883 379.066 353.239L382.625 358.07C384.516 356.676 386.377 355.26 388.206 353.823L384.5 349.105ZM414.309 264.756C408.835 295.798 398.347 324.79 383.757 349.96L388.948 352.968C403.91 327.157 414.629 297.493 420.218 265.798L414.309 264.756ZM417.18 243.739C416.503 250.692 415.55 257.705 414.309 264.757L420.218 265.797C421.486 258.593 422.46 251.427 423.152 244.32L417.18 243.739ZM370.902 216.541C389.771 221.762 405.995 231.584 417.853 245.94L422.479 242.119C409.736 226.691 392.394 216.263 372.502 210.758L370.902 216.541ZM370.693 214.684C389.625 219.789 405.992 229.423 418.119 243.524L422.668 239.612C409.655 224.48 392.188 214.266 372.256 208.891L370.693 214.684ZM337.751 130.014C353.451 152.023 364.485 180.432 368.498 212.164L374.451 211.411C370.325 178.79 358.966 149.422 342.636 126.53L337.751 130.014ZM354.582 124.595C349.757 124.595 344.861 124.825 339.916 125.285L340.471 131.259C345.237 130.816 349.947 130.595 354.582 130.595V124.595ZM409.964 136.732C393.69 128.61 374.73 124.595 354.582 124.595V130.595C373.949 130.595 391.967 134.455 407.285 142.1L409.964 136.732ZM423.382 241.831C426.659 204.649 422.191 169.142 411.457 138.426L405.792 140.406C416.228 170.267 420.613 204.915 417.405 241.304L423.382 241.831ZM421.955 266.099C423.124 259.465 424.045 252.862 424.727 246.308L418.759 245.687C418.092 252.101 417.19 258.563 416.046 265.057L421.955 266.099ZM392.701 349.928C406.608 324.872 416.617 296.407 421.955 266.098L416.046 265.058C410.818 294.744 401.023 322.572 387.455 347.016L392.701 349.928ZM437.019 287.926C425.638 308.839 409.15 328.931 388.175 346.153L391.982 350.791C413.527 333.101 430.523 312.416 442.289 290.794L437.019 287.926ZM420.593 249.444C429.267 261.177 434.665 274.829 436.681 289.762L442.627 288.959C440.483 273.079 434.724 258.465 425.418 245.878L420.593 249.444ZM419.375 247.84C419.787 248.369 420.193 248.904 420.594 249.445L425.417 245.877C424.988 245.297 424.553 244.723 424.111 244.155L419.375 247.84ZM422.011 248.402C430.419 259.766 435.809 272.888 438.095 287.203L444.02 286.257C441.59 271.037 435.841 257.007 426.835 244.833L422.011 248.402ZM419.664 245.373C420.466 246.361 421.249 247.371 422.011 248.401L426.835 244.834C426.019 243.73 425.182 242.65 424.323 241.591L419.664 245.373ZM408.05 141.549C418.308 171.732 422.473 206.625 419.007 243.199L424.98 243.765C428.521 206.399 424.278 170.652 413.73 139.618L408.05 141.549ZM443.192 164.334C434.939 153.179 424.418 144.383 412.299 137.935L409.481 143.232C420.862 149.287 430.68 157.511 438.368 167.902L443.192 164.334ZM443.716 288.119C466.23 245.029 468.17 198.118 443.192 164.335L438.368 167.902C461.533 199.234 460.248 243.521 438.398 285.341L443.716 288.119ZM389.568 354.994C412.235 337.127 430.16 315.992 442.625 293.788L437.393 290.851C425.329 312.341 407.93 332.881 385.854 350.282L389.568 354.994ZM371.69 381.462C378.458 372.957 384.678 363.819 390.304 354.146L385.118 351.13C379.632 360.561 373.575 369.457 366.995 377.726L371.69 381.462ZM304.15 470.448C339.011 453.719 362.151 420.741 372.253 380.322L366.432 378.867C356.659 417.969 334.455 449.25 301.555 465.039L304.15 470.448ZM299.088 472.728C300.788 472.012 302.476 471.252 304.151 470.448L301.554 465.039C299.967 465.801 298.369 466.521 296.759 467.199L299.088 472.728ZM361.291 434.783C341.143 449.632 319.239 460.569 297.077 467.086L298.77 472.842C321.64 466.117 344.171 454.854 364.851 439.612L361.291 434.783ZM431.451 341.12C420.362 376.281 395.502 409.58 361.291 434.782L364.85 439.613C399.931 413.769 425.649 379.468 437.173 342.925L431.451 341.12ZM437.026 292.632C438.612 307.743 436.806 324.129 431.451 341.121L437.173 342.924C442.743 325.252 444.676 308.036 442.993 292.006L437.026 292.632ZM276.268 398.286C307.649 396.593 341.488 385.469 372.61 365.039L369.317 360.023C339.004 379.923 306.177 390.663 275.945 392.295L276.268 398.286ZM365.474 283.205C353.141 340.013 317.966 382.722 275.443 392.365L276.77 398.216C322.351 387.88 358.707 342.655 371.337 284.478L365.474 283.205ZM373.929 362.987C377.755 338.092 376.988 310.934 371.345 283.242L365.466 284.44C370.979 311.495 371.709 337.937 367.998 362.075L373.929 362.987ZM369.63 363.102C369.003 367.073 368.257 370.982 367.393 374.821L373.247 376.138C374.14 372.17 374.91 368.134 375.557 364.037L369.63 363.102ZM380.094 354.672C377.072 356.898 374.019 359.029 370.938 361.067L374.249 366.071C377.413 363.978 380.55 361.788 383.653 359.503L380.094 354.672ZM382.117 353.164C381.447 353.669 380.772 354.172 380.094 354.672L383.653 359.503C384.349 358.989 385.042 358.473 385.73 357.954L382.117 353.164ZM372.701 377.305C377.608 370.904 382.21 364.162 386.488 357.116L381.359 354.002C377.19 360.868 372.71 367.431 367.939 373.654L372.701 377.305ZM410.601 136.024C391.933 84.6132 355.359 46.7513 307.926 38.4199L306.888 44.3294C351.583 52.1799 386.78 88.0025 404.961 138.072L410.601 136.024ZM339.288 129.598C364.006 127.148 387.249 130.578 406.489 139.755L409.072 134.34C388.671 124.609 364.296 121.09 338.697 123.627L339.288 129.598ZM257.019 83.2642C287.789 83.2642 315.962 100.322 336.575 128.389L341.41 124.837C319.974 95.6502 290.165 77.2642 257.019 77.2642V83.2642ZM210.505 97.061C224.74 88.1788 240.487 83.2642 257.019 83.2642V77.2642C239.258 77.2642 222.423 82.5527 207.329 91.9707L210.505 97.061ZM185.761 93.6675C193.14 94.2603 200.629 95.5122 208.181 97.4241L209.653 91.6076C201.791 89.617 193.97 88.3076 186.241 87.6868L185.761 93.6675ZM288.64 36.7474C250.361 36.7474 213.275 56.2909 183.784 88.6566L188.218 92.6978C216.887 61.2357 252.465 42.7474 288.64 42.7474V36.7474ZM307.925 38.4197C301.495 37.2926 295.048 36.7474 288.64 36.7474V42.7474C294.707 42.7474 300.807 43.2635 306.889 44.3296L307.925 38.4197ZM339.381 125.033C318.33 96.7822 289.281 79.0329 257.019 79.0329V85.0329C286.926 85.0329 314.344 101.475 334.57 128.618L339.381 125.033ZM289.911 141.881C305.804 135.555 321.816 131.533 337.308 129.807L336.644 123.844C320.589 125.633 304.055 129.793 287.692 136.307L289.911 141.881ZM245.702 112.204C260.187 119.961 273.98 129.766 286.792 141.322L290.81 136.866C277.663 125.008 263.476 114.916 248.534 106.914L245.702 112.204ZM210.486 98.0277C222.148 101.183 233.947 105.907 245.701 112.204L248.534 106.915C236.409 100.42 224.188 95.5188 212.052 92.2359L210.486 98.0277ZM257.019 79.0329C240.169 79.0329 224.164 83.8833 209.724 92.5603L212.814 97.7032C226.408 89.5346 241.355 85.0329 257.019 85.0329V79.0329ZM234.927 344.156C227.647 336.748 224.756 325.608 226.762 312.936L220.836 311.998C218.614 326.037 221.708 339.265 230.648 348.362L234.927 344.156ZM265.755 352.654C253.2 354.563 242.202 351.559 234.927 344.156L230.648 348.362C239.593 357.464 252.699 360.708 266.657 358.586L265.755 352.654ZM281.84 347.706C276.434 350.207 270.995 351.858 265.755 352.654L266.657 358.586C272.499 357.698 278.481 355.871 284.359 353.151L281.84 347.706ZM285.851 351.624C286.834 349.362 287.632 346.953 288.239 344.422L282.405 343.022C281.874 345.234 281.183 347.31 280.348 349.233L285.851 351.624ZM288.239 344.422C290.934 333.193 289.825 319.672 284.281 306.522L278.752 308.852C283.855 320.955 284.769 333.169 282.405 343.022L288.239 344.422ZM284.281 306.522C278.737 293.37 269.807 283.079 259.855 277.067L256.753 282.203C265.515 287.496 273.65 296.75 278.752 308.852L284.281 306.522ZM259.855 277.067C254.72 273.965 249.329 272.006 243.974 271.377L243.274 277.336C247.66 277.851 252.241 279.478 256.753 282.203L259.855 277.067ZM226.762 312.936C228.685 300.786 235.093 287.658 245.796 276.426L241.452 272.287C229.995 284.31 222.968 298.528 220.836 311.998L226.762 312.936ZM233.068 272.682C223.225 284.482 217.007 297.963 214.936 311.049L220.863 311.987C222.748 300.074 228.456 287.578 237.675 276.526L233.068 272.682ZM214.936 311.049C212.496 326.47 215.797 341.81 226.405 352.605L230.684 348.399C221.739 339.297 218.637 326.048 220.863 311.987L214.936 311.049ZM226.405 352.605C237.018 363.405 252.216 366.876 267.547 364.545L266.645 358.613C252.711 360.732 239.624 357.496 230.684 348.399L226.405 352.605ZM267.547 364.545C271.223 363.986 274.93 363.093 278.622 361.88L276.748 356.18C273.358 357.294 269.976 358.107 266.645 358.613L267.547 364.545ZM269.387 368.56C273.462 366.884 277 364.306 279.924 361.026L275.445 357.034C273.091 359.675 270.291 361.7 267.104 363.011L269.387 368.56ZM238.811 364.784C248.763 370.795 259.738 372.529 269.387 368.56L267.104 363.011C259.644 366.08 250.68 364.944 241.914 359.649L238.811 364.784ZM214.385 335.33C219.93 348.482 228.86 358.773 238.811 364.784L241.914 359.649C233.152 354.356 225.016 345.102 219.914 332.999L214.385 335.33ZM210.428 297.43C207.733 308.659 208.841 322.179 214.385 335.33L219.914 332.999C214.812 320.897 213.897 308.683 216.262 298.83L210.428 297.43ZM229.28 273.292C219.625 277.264 213.124 286.195 210.428 297.43L216.262 298.83C218.627 288.976 224.11 281.906 231.563 278.841L229.28 273.292ZM234.82 271.655C232.93 272.009 231.078 272.552 229.28 273.292L231.563 278.841C232.974 278.26 234.431 277.832 235.923 277.553L234.82 271.655ZM250.903 271.512C261.591 262.09 273.7 256.467 284.922 254.761L284.02 248.829C271.54 250.727 258.391 256.912 246.935 267.011L250.903 271.512ZM284.922 254.761C297.478 252.852 308.475 255.856 315.751 263.259L320.03 259.053C311.085 249.951 297.979 246.707 284.02 248.829L284.922 254.761ZM315.751 263.259C323.031 270.667 325.921 281.807 323.916 294.479L329.842 295.417C332.064 281.379 328.97 268.15 320.03 259.053L315.751 263.259ZM323.916 294.479C321.911 307.145 315.033 320.872 303.502 332.403L307.744 336.645C320.081 324.309 327.62 309.456 329.842 295.417L323.916 294.479ZM303.502 332.403C299.039 336.865 294.252 340.626 289.328 343.67L292.483 348.773C297.806 345.483 302.957 341.432 307.744 336.645L303.502 332.403ZM288.26 344.444C288.178 344.783 288.093 345.12 288.005 345.456L293.806 346.987C293.906 346.608 294.002 346.227 294.094 345.844L288.26 344.444ZM284.302 306.57C289.846 319.721 290.95 333.232 288.26 344.444L294.094 345.844C297.115 333.256 295.816 318.438 289.83 304.239L284.302 306.57ZM259.856 277.097C269.823 283.117 278.757 293.419 284.302 306.57L289.83 304.239C283.844 290.039 274.116 278.701 262.958 271.961L259.856 277.097ZM248.2 272.174C252.151 273.149 256.084 274.818 259.856 277.097L262.958 271.961C258.722 269.402 254.232 267.483 249.638 266.349L248.2 272.174ZM288.987 357.601C297.086 353.559 304.913 347.962 311.95 340.925L307.707 336.682C301.115 343.275 293.813 348.487 286.308 352.232L288.987 357.601ZM311.95 340.925C325.091 327.784 333.299 311.797 335.741 296.367L329.815 295.429C327.59 309.486 320.043 324.346 307.707 336.682L311.95 340.925ZM335.741 296.366C338.182 280.946 334.881 265.605 324.273 254.811L319.993 259.016C328.939 268.119 332.04 281.367 329.815 295.429L335.741 296.366ZM324.273 254.811C313.659 244.011 298.461 240.539 283.13 242.87L284.032 248.802C297.967 246.683 311.053 249.919 319.993 259.016L324.273 254.811ZM283.13 242.87C267.965 245.176 252.221 253.17 239.167 266.054L243.381 270.325C255.635 258.231 270.251 250.897 284.032 248.802L283.13 242.87ZM229.232 273.312C233.072 271.732 237.098 271.059 241.179 271.188L241.368 265.191C236.491 265.037 231.618 265.842 226.949 267.763L229.232 273.312ZM210.407 297.408C213.097 286.197 219.583 277.281 229.232 273.312L226.949 267.763C215.092 272.64 207.593 283.424 204.573 296.008L210.407 297.408ZM214.365 335.282C208.821 322.131 207.716 308.62 210.407 297.408L204.573 296.008C201.552 308.596 202.85 323.414 208.836 337.613L214.365 335.282ZM238.811 364.755C228.844 358.734 219.909 348.433 214.365 335.282L208.836 337.613C214.823 351.813 224.551 363.151 235.708 369.891L238.811 364.755ZM269.435 368.54C259.779 372.512 248.782 370.778 238.811 364.755L235.708 369.891C246.857 376.625 259.867 378.964 271.717 374.089L269.435 368.54ZM284.966 353.571C281.531 360.417 276.296 365.718 269.435 368.54L271.717 374.089C280.11 370.637 286.346 364.201 290.329 356.262L284.966 353.571Z" fill="#014BDA"/>
</g>
<path d="M251.048 393.451C187.001 393.451 134.917 322.313 134.917 234.867C134.917 147.421 187.019 76.2832 251.048 76.2832C315.076 76.2832 367.195 147.421 367.195 234.867C367.195 322.313 315.076 393.451 251.048 393.451ZM251.048 78.0519C187.994 78.0519 136.69 148.394 136.69 234.867C136.69 321.34 187.994 391.682 251.048 391.682C314.101 391.682 365.423 321.34 365.423 234.867C365.423 148.394 314.101 78.0519 251.048 78.0519Z" fill="#014BDA"/>
<path d="M308.721 332.683C333.394 308.011 338.894 273.255 321.007 255.054C303.12 236.852 268.619 242.098 243.947 266.77C219.275 291.442 213.775 326.198 231.662 344.399C249.548 362.601 284.049 357.355 308.721 332.683Z" stroke="#014BDA" stroke-width="1.5" stroke-miterlimit="10"/>
<path d="M285.287 302.565C274.199 276.262 249.558 261.379 230.251 269.321C210.945 277.263 204.282 305.023 215.371 331.325C226.459 357.627 251.1 372.511 270.406 364.569C289.713 356.627 296.375 328.867 285.287 302.565Z" stroke="#014BDA" stroke-width="1.5" stroke-miterlimit="10"/>
<path d="M250.469 437.744C244.018 437.744 237.585 437.196 231.187 436.064C150.377 421.879 100.472 320.531 119.913 210.145C139.371 99.7589 220.927 21.4752 301.755 35.6604C382.566 49.8455 432.488 151.193 413.029 261.597C403.619 315.03 379.553 362.591 345.262 395.543C316.517 423.17 283.466 437.744 250.469 437.744ZM282.669 35.7665C209.319 35.7665 139.442 109.593 121.668 210.446C102.386 319.877 151.653 420.305 231.506 434.331C270.14 441.105 310.102 426.884 344.039 394.269C378.065 361.583 401.936 314.358 411.293 261.296L412.161 261.456L411.293 261.296C430.556 151.848 381.29 51.4197 301.436 37.3937C295.18 36.2971 288.907 35.7665 282.669 35.7665Z" fill="#014BDA"/>
<path d="M247.58 474.764C183.285 474.764 112.948 424.727 74.5099 344.939C50.94 296.034 42.7172 243.397 51.3299 196.667C59.9604 149.849 84.4694 114.581 120.338 97.371C156.207 80.1613 199.111 83.062 241.147 105.578C283.094 128.041 319.157 167.324 342.71 216.212C391.373 317.223 370.816 428.282 296.881 463.762C281.339 471.226 264.663 474.764 247.58 474.764ZM169.888 88.0675C152.751 88.0675 136.288 91.6934 121.1 98.9806C85.7631 115.925 61.5908 150.733 53.0666 196.986C44.5248 243.344 52.6945 295.61 76.0871 344.161C124.325 444.306 223.035 497.244 296.084 462.17C369.15 427.097 389.335 317.1 341.097 216.972C317.704 168.421 281.907 129.403 240.296 107.134C216.62 94.4526 192.66 88.0675 169.888 88.0675Z" fill="#014BDA"/>
<path d="M261.934 393.274C225.711 393.274 193.652 380.203 174.3 354.044C135.348 301.371 162.391 215.234 234.607 162.031C306.823 108.828 397.257 108.403 436.209 161.094C475.161 213.766 448.118 299.903 375.902 353.106C339.573 379.867 298.618 393.274 261.934 393.274ZM348.611 123.614C312.299 123.614 271.699 136.915 235.671 163.464C164.252 216.083 137.351 301.106 175.736 353C214.121 404.895 303.438 404.293 374.874 351.674L375.406 352.381L374.874 351.674C446.293 299.054 473.176 214.031 434.809 162.137C415.794 136.438 384.267 123.614 348.611 123.614Z" fill="#014BDA"/>
<path d="M244.124 474.888C206.377 474.888 175.311 460.95 156.543 435.587C137.634 410.029 133.541 375.963 144.971 339.651C156.384 303.445 181.903 269.327 216.85 243.592C289.066 190.388 379.5 189.964 418.452 242.637C437.361 268.195 441.472 302.278 430.024 338.572C418.611 374.778 393.092 408.897 358.145 434.632C323.198 460.367 283.023 474.658 244.992 474.87C244.709 474.888 244.407 474.888 244.124 474.888ZM330.854 205.14C294.542 205.14 253.942 218.44 217.913 244.989C183.268 270.512 157.979 304.312 146.672 340.164C135.401 375.928 139.424 409.427 157.979 434.525C176.392 459.429 206.979 473.119 244.142 473.119C244.425 473.119 244.709 473.119 244.992 473.119C282.651 472.907 322.471 458.739 357.1 433.217L357.631 433.924L357.1 433.217C391.745 407.694 417.034 373.894 428.341 338.042C439.612 302.278 435.589 268.778 417.034 243.68C398.019 217.98 366.51 205.14 330.854 205.14Z" fill="#014BDA"/>
<circle cx="97.76" cy="112.621" r="6.97142" fill="#014BDA" stroke="#01BAFB" stroke-width="2"/>
<circle cx="360.503" cy="183.283" r="6.97142" fill="#014BDA" stroke="#01BAFB" stroke-width="2"/>
<circle cx="168.422" cy="244.988" r="6.97142" fill="#014BDA" stroke="#01BAFB" stroke-width="2"/>
<circle cx="424.198" cy="351.478" r="6.97142" fill="#014BDA" stroke="#01BAFB" stroke-width="2"/>
<circle cx="231.122" cy="435.078" r="6.97142" fill="#014BDA" stroke="#01BAFB" stroke-width="2"/>
<path opacity="0.9" d="M250.67 328.333H260.648V337.791H250.67V328.333ZM251.571 322.854C251.571 321.663 251.651 320.605 251.812 319.683C251.972 318.721 252.232 317.876 252.593 317.145C252.954 316.376 253.415 315.665 253.976 315.011C254.577 314.358 255.298 313.704 256.14 313.05C256.821 312.474 257.522 311.955 258.243 311.493C259.005 310.993 259.706 310.474 260.347 309.936C260.988 309.398 261.509 308.821 261.91 308.206C262.311 307.552 262.511 306.803 262.511 305.957C262.511 304.611 261.97 303.554 260.888 302.785C259.846 302.016 258.484 301.632 256.801 301.632C254.757 301.632 253.114 302.227 251.872 303.419C250.63 304.611 249.988 306.111 249.948 307.918H240.571C240.611 305.995 241.012 304.208 241.773 302.554C242.535 300.863 243.617 299.402 245.019 298.171C246.462 296.902 248.185 295.922 250.189 295.23C252.232 294.5 254.557 294.134 257.161 294.134C259.486 294.134 261.589 294.423 263.473 294.999C265.356 295.538 266.959 296.307 268.282 297.306C269.604 298.306 270.626 299.536 271.347 300.997C272.068 302.42 272.429 303.996 272.429 305.726C272.429 307.918 271.968 309.705 271.047 311.09C270.165 312.474 269.143 313.608 267.981 314.492C266.338 315.723 264.956 316.664 263.834 317.318C262.752 317.972 261.89 318.625 261.249 319.279C260.768 319.817 260.447 320.336 260.287 320.836C260.127 321.336 260.027 322.009 259.987 322.854H251.571Z" fill="#014BDA"/>
</svg>
