<svg width="96" height="96" viewBox="0 0 96 96" fill="none" xmlns="http://www.w3.org/2000/svg">
<g clip-path="url(#clip0)">
<g filter="url(#filter0_d)">
<path fill-rule="evenodd" clip-rule="evenodd" d="M10 16H66C69.3137 16 72 18.6863 72 22V78C72 81.3137 69.3137 84 66 84H10C6.68629 84 4 81.3137 4 78V22C4 18.6863 6.68629 16 10 16ZM10 18C7.79086 18 6 19.7909 6 22V78C6 80.2091 7.79086 82 10 82H66C68.2091 82 70 80.2091 70 78V22C70 19.7909 68.2091 18 66 18H10Z" fill="url(#paint0_linear)"/>
</g>
<g filter="url(#filter1_d)">
<rect x="12.002" y="12" width="64" height="64" rx="4" fill="url(#paint1_linear)"/>
</g>
<g filter="url(#filter2_d)">
<path fill-rule="evenodd" clip-rule="evenodd" d="M49.2204 34.5818C49.2204 35.3001 49.2182 36.0184 49.2159 36.7367C49.2104 38.4997 49.2048 40.2628 49.2327 42.0259C49.2474 42.9159 48.936 43.242 48.0337 43.2371C43.1151 43.2053 38.1941 43.2004 33.2731 43.2371C32.2899 43.2445 32.003 42.8448 32.0055 41.9376C32.0251 37.0558 32.03 32.1765 32.0005 27.2947C31.9956 26.3556 32.3316 25.9952 33.2829 26.0001C38.1622 26.0295 43.044 26.032 47.9234 26.0001C48.9458 25.9927 49.2572 26.3998 49.2376 27.383C49.2036 29.0468 49.2097 30.7119 49.2158 32.3773L49.2158 32.3784C49.2185 33.1128 49.2212 33.8473 49.2204 34.5818ZM40.7024 38.169C40.9491 38.169 41.196 38.1668 41.4429 38.1645H41.4429C42.0109 38.1593 42.5789 38.1541 43.1446 38.1764C43.8581 38.2033 44.1891 37.9483 44.1768 37.1931C44.1474 35.5234 44.1474 33.8536 44.1768 32.1839C44.1891 31.4189 43.8286 31.1957 43.1323 31.2031C41.5042 31.2252 39.8737 31.2325 38.2456 31.2006C37.4267 31.1835 37.1741 31.5709 37.2035 32.3212C37.2254 32.8507 37.2196 33.3814 37.2138 33.9125V33.9125V33.9125V33.9126V33.9126V33.9126V33.9127V33.9127C37.2111 34.1561 37.2084 34.3996 37.2084 34.6431C37.2084 36.413 37.2084 37.2951 37.6495 37.7344C38.0876 38.1708 38.9611 38.1702 40.7024 38.169ZM45.3276 52.9709C46.2304 52.967 47.1333 52.9632 48.0361 52.9632C48.9437 52.9632 49.8512 52.9608 50.7587 52.9584H50.7588H50.7589H50.7589H50.759H50.7591H50.7592H50.7593H50.7594C53.0288 52.9524 55.2983 52.9463 57.5716 52.9779C58.6186 52.9926 59.0109 52.642 59.0011 51.568C58.9594 46.7622 58.9619 41.9565 58.9987 37.1507C59.006 36.1209 58.7118 35.6231 57.6109 35.7163C56.841 35.7825 56.0563 35.7948 55.2913 35.7139C54.0629 35.5864 53.754 36.1528 53.7736 37.2757C53.8125 39.4914 53.8038 41.7071 53.7951 43.9228C53.7923 44.6396 53.7895 45.3564 53.7883 46.0732C53.7834 47.7553 53.7687 47.7749 52.0769 47.7749C49.7711 47.7758 47.4652 47.7757 45.1594 47.7756C41.3158 47.7754 37.4722 47.7752 33.6286 47.7798C32.1329 47.7822 32.0226 47.8926 32.0177 49.3735C32.0157 50.0092 32.013 50.6448 32.0104 51.2804C31.9998 53.8224 31.9892 56.3641 32.0226 58.9042C32.0314 59.5706 32.0203 60.1207 32.0112 60.5746C31.9902 61.6138 31.9794 62.1491 32.2417 62.4231C32.5203 62.7142 33.107 62.7104 34.3171 62.7025H34.3173H34.3175H34.3177C34.7696 62.6995 35.3084 62.696 35.9505 62.7071C36.9068 62.7243 37.2378 62.3246 37.2206 61.3904C37.2018 60.3389 37.207 59.2874 37.2123 58.2362V58.2361C37.2186 56.9659 37.225 55.6961 37.1888 54.427C37.1593 53.3334 37.4756 52.9166 38.6305 52.9411C40.8619 52.99 43.0946 52.9804 45.3276 52.9709ZM72.7017 47.7834C72.1104 47.7815 71.5189 47.7797 70.9273 47.7797C70.3254 47.7789 69.7234 47.7824 69.1212 47.7859C67.7265 47.794 66.3313 47.8021 64.9372 47.7576C63.8118 47.7257 63.4416 48.1573 63.4759 49.2655C63.5081 50.3528 63.5009 51.4413 63.4937 52.5298C63.4861 53.6824 63.4785 54.835 63.5176 55.9863C63.5568 57.1362 63.2307 57.58 62.0195 57.5359C60.7359 57.4889 59.4509 57.4972 58.1656 57.5055C57.1698 57.5119 56.174 57.5184 55.1786 57.4991C54.1929 57.4819 53.7736 57.8326 53.7785 58.8378C53.8031 62.9105 53.8031 66.9856 53.7785 71.0583C53.7736 72.0096 54.1586 72.3382 55.0977 72.3185C56.2209 72.2964 57.3448 72.3014 58.4686 72.3064C59.7072 72.312 60.9458 72.3175 62.1837 72.2867C63.1964 72.2621 63.5298 72.6054 63.5151 73.6156C63.4875 75.3193 63.4909 77.0238 63.4944 78.7286C63.4973 80.201 63.5003 81.6736 63.4833 83.1462C63.471 84.0804 63.7922 84.5022 64.7485 84.4629C65.6826 84.4237 66.6217 84.4384 67.5584 84.4531C68.3209 84.4629 68.6789 84.1148 68.6789 83.3498C68.674 78.3405 68.674 73.3287 68.6813 68.3194C68.6813 67.5544 68.3552 67.2308 67.5682 67.2455C66.319 67.2677 65.0697 67.2625 63.8205 67.2574C63.2774 67.2551 62.7342 67.2529 62.1911 67.2529C60.5422 67.2529 59.7233 67.2529 59.3213 66.8434C58.9247 66.4394 58.9343 65.6365 58.9533 64.0413L58.9545 63.9403C58.9644 62.9595 59.3395 62.6702 60.2614 62.6874C62.0685 62.719 63.874 62.7108 65.6804 62.7026C66.1143 62.7006 66.5482 62.6986 66.9822 62.6972C68.6029 62.6923 68.6764 62.6138 68.6838 60.9465C68.6866 60.3515 68.684 59.7561 68.6814 59.1607V59.1603C68.6772 58.2075 68.673 57.2546 68.6911 56.3026C68.7026 55.6908 68.6939 55.1905 68.6867 54.7815V54.7815C68.6711 53.8912 68.6631 53.4335 68.8879 53.1995C69.1258 52.9518 69.6245 52.9547 70.6508 52.9607C71.0642 52.9631 71.5633 52.966 72.1655 52.9532C73.0507 52.9361 73.3008 53.3259 73.2615 54.1351C73.2387 54.6241 73.2453 55.1153 73.2519 55.6066V55.6068V55.6069V55.6071V55.6072V55.6074V55.6075V55.6077V55.6078C73.2574 56.0129 73.2628 56.4181 73.2517 56.8224C73.2321 57.553 73.5656 57.8571 74.2766 57.8473C75.2133 57.835 76.1499 57.8228 77.0865 57.8571C77.9619 57.8914 78.3272 57.5481 78.315 56.6409C78.2782 54.1154 78.2733 51.59 78.3199 49.0645C78.3395 48.1033 77.9692 47.7551 77.0375 47.7699C75.5916 47.7925 74.1469 47.7879 72.7017 47.7834ZM79.7724 43.2151L79.7742 43.2151C80.4826 43.2171 81.191 43.2191 81.8994 43.2191C82.6699 43.2199 83.4403 43.2177 84.2108 43.2156C85.88 43.2109 87.5492 43.2062 89.2184 43.2314C90.106 43.2461 90.4689 42.9298 90.4664 42.0373C90.4468 37.0746 90.4493 32.1143 90.4664 27.1516C90.4713 26.3106 90.1183 26.0017 89.2969 26.0041C84.3342 26.0213 79.3739 26.0237 74.4112 26.0066C73.4967 26.0041 73.2367 26.4161 73.2417 27.2767C73.2686 32.1977 73.2711 37.1187 73.2417 42.0397C73.2367 42.9469 73.5727 43.2461 74.4578 43.2314C76.228 43.2051 77.9995 43.2101 79.7714 43.2151H79.7715H79.7717H79.7719H79.772H79.7722H79.7724ZM82.4319 38.1642C82.1751 38.1662 81.9184 38.1681 81.6616 38.1681C79.9925 38.1694 79.1534 38.17 78.7315 37.7507C78.3049 37.3268 78.3049 36.4735 78.3049 34.7575C78.3049 34.5072 78.3077 34.2566 78.3104 34.006V34.0059V34.0059V34.0058V34.0058V34.0057V34.0057V34.0055C78.3167 33.4414 78.323 32.8772 78.2975 32.3154C78.2632 31.5602 78.5108 31.1826 79.3322 31.1998C80.9603 31.2341 82.5908 31.2243 84.2189 31.2022C84.9177 31.1924 85.2806 31.4302 85.2708 32.1854C85.2463 33.8552 85.2463 35.525 85.2708 37.1947C85.2831 37.9499 84.9324 38.2 84.2263 38.1755C83.6291 38.1549 83.0306 38.1595 82.4319 38.1642ZM42.7759 67.2595H42.7761C44.5195 67.2645 46.2634 67.2695 48.0061 67.2433C48.8765 67.231 49.2394 67.5007 49.2345 68.4227C49.2051 73.3853 49.2075 78.3456 49.232 83.3083C49.237 84.1591 48.8863 84.4656 48.0747 84.4656C43.112 84.4558 38.1518 84.4533 33.1891 84.4705C32.38 84.473 32.0024 84.1885 32.0048 83.3353C32.022 78.3726 32.022 73.4123 32.0048 68.4496C32.0024 67.5694 32.3407 67.2286 33.2381 67.2433C35.003 67.2711 36.7666 67.2656 38.5298 67.2601H38.53H38.5302H38.5303H38.5305H38.5307C39.2487 67.2578 39.9667 67.2555 40.6846 67.2555C41.3812 67.2555 42.078 67.2575 42.7749 67.2595H42.7751H42.7754H42.7756H42.7759ZM40.616 79.2651C40.8728 79.2651 41.1296 79.2631 41.3863 79.2611H41.3865C41.9852 79.2565 42.5835 79.2518 43.1807 79.2724C43.9212 79.2969 44.1884 78.9659 44.1762 78.2451C44.1492 76.5753 44.1517 74.9055 44.1737 73.2358C44.1835 72.5517 43.8869 72.2942 43.2175 72.3016C41.5477 72.3237 39.878 72.3286 38.2082 72.2991C37.4677 72.2869 37.1808 72.5983 37.2029 73.3191C37.2212 73.8971 37.2158 74.4762 37.2105 75.0556V75.0556V75.0557V75.0557V75.0558V75.0559C37.2079 75.3318 37.2054 75.6078 37.2054 75.8839C37.2078 79.27 37.2078 79.27 40.616 79.2651ZM83.8706 71.9842H83.8703H83.87H83.8698H83.8695C83.1719 71.9822 82.4744 71.9802 81.7771 71.9802C81.1065 71.9802 80.4359 71.9825 79.7653 71.9848C78.033 71.9907 76.3007 71.9967 74.5684 71.9631C73.5656 71.9459 73.215 72.3284 73.237 73.3313C73.2642 74.6046 73.2577 75.8791 73.2512 77.1537C73.2449 78.4046 73.2385 79.6555 73.264 80.9053C73.2784 81.6197 73.2618 82.1909 73.2485 82.6475V82.6476V82.6478V82.6479C73.2238 83.4969 73.2107 83.9496 73.4301 84.1896C73.6807 84.4637 74.2347 84.4605 75.4215 84.4534H75.4218C75.8625 84.4508 76.3906 84.4477 77.0228 84.4581C77.9374 84.4728 78.3812 84.159 78.3174 83.1806C78.2766 82.5615 78.2865 81.9389 78.2964 81.3168C78.3008 81.0421 78.3052 80.7675 78.3052 80.4933C78.3052 78.8264 78.3052 77.9934 78.7217 77.5771C79.1378 77.1612 79.9696 77.1612 81.6324 77.1612C83.4424 77.1612 84.3417 77.1612 84.7945 77.6108C85.2417 78.0549 85.2535 78.9375 85.2769 80.6917L85.2784 80.8072C85.2874 81.486 85.2732 82.0391 85.2616 82.4897V82.4897C85.2372 83.4385 85.2245 83.9324 85.4651 84.188C85.7263 84.4656 86.2862 84.4622 87.4541 84.455C87.9004 84.4522 88.4354 84.4489 89.0765 84.4605C90.045 84.4777 90.4814 84.1369 90.4716 83.1169C90.4373 79.8607 90.4397 76.6021 90.4716 73.3435C90.4814 72.3505 90.1014 71.9533 89.1059 71.968C87.3616 71.9943 85.616 71.9893 83.8709 71.9842H83.8706ZM90.4573 60.0072L90.4572 60.011C90.4512 62.0163 90.4452 64.0217 90.4768 66.027C90.4939 67.0691 90.1457 67.454 89.0669 67.4418C84.266 67.3952 79.4652 67.3878 74.6643 67.4467C73.5045 67.4614 73.1514 67.0372 73.2422 65.9583C73.3059 65.1909 73.2986 64.4112 73.2446 63.6413C73.1784 62.6924 73.5511 62.3491 74.5074 62.3614C75.8601 62.3796 77.2132 62.3748 78.5662 62.3701H78.5663H78.5664H78.5665C80.306 62.364 82.0453 62.3578 83.783 62.4006C84.9795 62.43 85.3081 62.0254 85.2909 60.8681C85.2588 58.8404 85.2624 56.812 85.266 54.7836C85.2693 52.9465 85.2726 51.1095 85.2492 49.273C85.2345 48.177 85.5729 47.6792 86.7081 47.7699C87.4364 47.8263 88.1744 47.8263 88.9026 47.7699C90.0477 47.6817 90.5062 48.1255 90.4817 49.3073C90.438 51.2743 90.4466 53.2438 90.4551 55.2132V55.2135V55.2136V55.2137V55.2138C90.4586 56.0108 90.462 56.8078 90.462 57.6046C90.462 58.4055 90.4596 59.2063 90.4573 60.0072ZM68.6831 36.7307C68.6847 36.033 68.6863 35.3352 68.6863 34.6374C68.6863 33.9517 68.6839 33.2658 68.6815 32.5797V32.5796V32.5795C68.6755 30.864 68.6695 29.1476 68.701 27.4312C68.7206 26.3793 68.3111 25.9919 67.2617 26.0042C65.614 26.0238 63.9657 26.0189 62.3174 26.014C60.6691 26.0091 59.0208 26.0042 57.3731 26.0238C56.7821 26.0304 56.2882 26.0212 55.8753 26.0135C54.8612 25.9946 54.3367 25.9848 54.0665 26.242C53.7771 26.5177 53.7795 27.0997 53.7844 28.3054V28.3054C53.7861 28.721 53.7881 29.2107 53.7786 29.7875C53.7614 30.8246 54.1414 31.2439 55.2105 31.2194C56.3816 31.1922 57.5533 31.1974 58.7246 31.2027C59.8734 31.2079 61.0218 31.213 62.1691 31.1875C63.1572 31.1655 63.5446 31.4744 63.5176 32.5042C63.476 34.1439 63.4847 35.7836 63.4933 37.4232C63.4969 38.1031 63.5004 38.7829 63.5004 39.4628V39.47V39.47C63.5004 41.3786 63.5004 42.3331 63.9776 42.8044C64.4551 43.2759 65.4101 43.2639 67.3205 43.2398L67.4015 43.2387C68.3602 43.2289 68.7059 42.8906 68.6961 41.9613C68.6751 40.2188 68.6791 38.4751 68.6831 36.7311V36.7309V36.7307ZM53.7931 80.6085C53.7931 80.3392 53.7938 80.0702 53.7944 79.8012V79.8009C53.796 79.1736 53.7975 78.5468 53.7907 77.9188C53.7833 77.242 54.0236 76.8301 54.7788 76.8424C55.5541 76.8562 56.3307 76.8554 57.1076 76.8546H57.1076C57.4314 76.8543 57.7552 76.8539 58.0791 76.8546C58.6822 76.8571 58.9691 77.1562 58.9691 77.7594C58.9667 79.6744 58.9642 81.5893 58.9716 83.5043C58.974 84.0952 58.7215 84.436 58.1109 84.4433C57.4274 84.4492 56.7439 84.4498 56.0604 84.4504H56.0589C55.6028 84.4508 55.1466 84.4512 54.6905 84.4532C53.9868 84.4556 53.7907 84.0314 53.7931 83.4209C53.7947 82.7947 53.7942 82.1697 53.7936 81.545V81.5447C53.7934 81.2326 53.7931 80.9206 53.7931 80.6085ZM46.3142 57.5103C46.0341 57.5096 45.754 57.5089 45.4736 57.5089C41.6756 57.4991 41.6756 57.4991 41.7369 61.2775C41.7376 61.3249 41.7387 61.372 41.7398 61.419C41.7426 61.5351 41.7453 61.6503 41.7418 61.7655C41.7222 62.3785 42.0459 62.6653 42.6294 62.6678C44.537 62.6751 46.4422 62.6751 48.3498 62.6653C48.9333 62.6604 49.2324 62.3687 49.2226 61.7532C49.2055 60.6572 49.2055 59.5612 49.2226 58.4652C49.2324 57.8007 48.9333 57.4991 48.2737 57.5065C47.6199 57.5133 46.9673 57.5118 46.3142 57.5103Z" fill="url(#paint2_linear)"/>
</g>
</g>
<defs>
<filter id="filter0_d" x="-2" y="14" width="76" height="76" filterUnits="userSpaceOnUse" color-interpolation-filters="sRGB">
<feFlood flood-opacity="0" result="BackgroundImageFix"/>
<feColorMatrix in="SourceAlpha" type="matrix" values="0 0 0 0 0 0 0 0 0 0 0 0 0 0 0 0 0 0 127 0"/>
<feOffset dx="-2" dy="2"/>
<feGaussianBlur stdDeviation="2"/>
<feColorMatrix type="matrix" values="0 0 0 0 0 0 0 0 0 0 0 0 0 0 0 0 0 0 0.25 0"/>
<feBlend mode="normal" in2="BackgroundImageFix" result="effect1_dropShadow"/>
<feBlend mode="normal" in="SourceGraphic" in2="effect1_dropShadow" result="shape"/>
</filter>
<filter id="filter1_d" x="6.00195" y="10" width="72" height="72" filterUnits="userSpaceOnUse" color-interpolation-filters="sRGB">
<feFlood flood-opacity="0" result="BackgroundImageFix"/>
<feColorMatrix in="SourceAlpha" type="matrix" values="0 0 0 0 0 0 0 0 0 0 0 0 0 0 0 0 0 0 127 0"/>
<feOffset dx="-2" dy="2"/>
<feGaussianBlur stdDeviation="2"/>
<feColorMatrix type="matrix" values="0 0 0 0 0 0 0 0 0 0 0 0 0 0 0 0 0 0 0.25 0"/>
<feBlend mode="normal" in2="BackgroundImageFix" result="effect1_dropShadow"/>
<feBlend mode="normal" in="SourceGraphic" in2="effect1_dropShadow" result="shape"/>
</filter>
<filter id="filter2_d" x="28" y="26" width="62.4826" height="62.4705" filterUnits="userSpaceOnUse" color-interpolation-filters="sRGB">
<feFlood flood-opacity="0" result="BackgroundImageFix"/>
<feColorMatrix in="SourceAlpha" type="matrix" values="0 0 0 0 0 0 0 0 0 0 0 0 0 0 0 0 0 0 127 0"/>
<feOffset dx="-2" dy="2"/>
<feGaussianBlur stdDeviation="1"/>
<feColorMatrix type="matrix" values="0 0 0 0 0 0 0 0 0 0 0 0 0 0 0 0 0 0 0.25 0"/>
<feBlend mode="normal" in2="BackgroundImageFix" result="effect1_dropShadow"/>
<feBlend mode="normal" in="SourceGraphic" in2="effect1_dropShadow" result="shape"/>
</filter>
<linearGradient id="paint0_linear" x1="72" y1="16" x2="4" y2="84" gradientUnits="userSpaceOnUse">
<stop stop-color="#153A55"/>
<stop offset="1" stop-color="#0F2A3D"/>
</linearGradient>
<linearGradient id="paint1_linear" x1="76.002" y1="12" x2="12.002" y2="76" gradientUnits="userSpaceOnUse">
<stop stop-color="#153A55"/>
<stop offset="1" stop-color="#0F2A3D"/>
</linearGradient>
<linearGradient id="paint2_linear" x1="90.4599" y1="26" x2="26.3284" y2="33.0725" gradientUnits="userSpaceOnUse">
<stop stop-color="#FF6B8B"/>
<stop offset="1" stop-color="#FC2D5A"/>
</linearGradient>
<clipPath id="clip0">
<rect width="96" height="96" fill="white"/>
</clipPath>
</defs>
</svg>
