<svg width="164" height="141" viewBox="0 0 164 141" fill="none" xmlns="http://www.w3.org/2000/svg">
<path fill-rule="evenodd" clip-rule="evenodd" d="M11.5609 9.58218H119.463C125.848 9.58218 131.024 14.7582 131.024 21.1431V129.045C131.024 135.43 125.848 140.606 119.463 140.606H11.5609C5.17601 140.606 0 135.43 0 129.045V21.1431C0 14.7582 5.17601 9.58218 11.5609 9.58218ZM11.5609 13.4358C7.30431 13.4358 3.85364 16.8865 3.85364 21.1431V129.045C3.85364 133.302 7.30431 136.752 11.5609 136.752H119.463C123.72 136.752 127.17 133.302 127.17 129.045V21.1431C127.17 16.8865 123.72 13.4358 119.463 13.4358H11.5609Z" fill="url(#paint0_linear)"/>
<rect x="14.998" width="123.317" height="123.317" rx="8" fill="url(#paint1_linear)"/>
<path fill-rule="evenodd" clip-rule="evenodd" d="M69.1921 112.939C61.5386 104.09 57.8375 93.7374 57.6035 82.1028C57.5168 79.7811 57.7551 77.4724 58.1235 75.2026C60.0824 63.0613 65.699 52.9818 75.3028 45.2066C83.6801 38.4277 93.3055 34.9842 104.04 34.6853C109.011 34.5467 113.904 35.257 118.654 36.7644C119.612 37.0676 120.24 36.89 120.934 36.171C122.435 34.6105 123.978 33.0863 125.52 31.5622L125.523 31.56L125.53 31.5526C126.116 30.9731 126.703 30.3937 127.287 29.8123C128.239 28.8606 128.236 28.8593 127.045 28.3761L127.04 28.3742C116.504 24.1076 105.631 22.9121 94.4539 25.0086C79.0299 27.9021 66.7305 35.8418 57.6381 48.5463C50.0453 59.1542 46.5956 71.0963 47.0376 84.1776C47.315 92.3166 49.2089 100.044 52.7669 107.317C58.4312 118.899 67.0512 127.718 78.5185 133.631C87.4765 138.248 97.0369 140.341 107.152 139.955C113.57 139.712 119.75 138.478 125.731 136.195C137.151 131.842 146.295 124.535 153.112 114.46C160.194 103.99 163.483 92.3556 162.954 79.6728C162.664 72.79 161.251 66.1713 158.62 59.804C158.265 58.9377 158.009 58.9463 157.398 59.5744C155.335 61.6968 153.268 63.8236 151.119 65.8551C150.217 66.7085 150.014 67.4708 150.373 68.6793C152.224 74.9384 152.839 81.3101 152.007 87.8204C150.724 97.8783 146.746 106.749 139.807 114.078C128.526 125.99 114.55 131.054 98.2677 128.858C86.6401 127.29 76.8976 121.849 69.1921 112.939ZM130.096 85.4554C128.397 98.1296 117.394 107.455 104.657 107.308C103.721 107.325 102.464 107.278 101.211 107.07C95.6857 106.182 90.8275 103.847 86.9748 99.8362C81.2151 93.8413 78.8012 86.599 79.9496 78.3084C80.7167 72.7683 83.109 67.9083 87.1178 64.0576C93.5232 57.9111 101.22 55.5764 110.018 57.2007C110.75 57.335 111.222 57.1834 111.73 56.6679C113.238 55.125 114.764 53.5981 116.291 52.0709L116.292 52.0704L116.292 52.0697C117.011 51.3507 117.73 50.6316 118.447 49.9107C119.361 48.9924 119.361 48.9838 118.1 48.4943C111.977 46.1163 105.662 45.4189 99.1788 46.4888C79.4773 49.7461 66.2071 68.2678 69.4445 87.8595C72.5215 106.472 89.4624 119.605 108.171 117.847C118.919 116.838 127.656 112.069 133.966 103.375C141.681 92.7498 143.028 81.1066 138.495 68.779C138.201 67.9733 137.962 67.7091 137.23 68.4584C134.963 70.7888 132.649 73.0715 130.326 75.3413C129.832 75.8221 129.68 76.2769 129.832 76.9613C130.447 79.7724 130.478 82.6096 130.096 85.4554ZM142.005 58.4609C141.397 58.4609 140.789 58.4638 140.181 58.4666C138.661 58.4737 137.141 58.4807 135.622 58.4436C134.828 58.4263 134.287 58.6819 133.732 59.2363C126.759 66.2014 119.768 73.1493 112.774 80.0884C110.702 82.1416 107.681 81.9033 106.143 79.5989C105.198 78.1825 105.263 76.2896 106.355 74.8386C106.667 74.4211 107.042 74.0466 107.414 73.676L107.525 73.5651C108.636 72.4599 109.747 71.3545 110.858 70.249L110.891 70.2155L110.894 70.2123C116.501 64.6317 122.109 59.0502 127.738 53.4927C128.423 52.8169 128.666 52.1282 128.618 51.1926C128.544 49.7202 128.5 48.2464 128.455 46.7729C128.421 45.6497 128.388 44.5267 128.341 43.4045C128.284 42.092 128.722 41.0264 129.654 40.1038C132.162 37.6127 134.665 35.1144 137.167 32.6159L137.171 32.612C139.445 30.3416 141.72 28.071 143.999 25.8054C144.04 25.7648 144.081 25.7237 144.122 25.6823L144.123 25.6813C144.746 25.0562 145.422 24.3787 146.421 24.7441C147.416 25.1126 147.461 26.0643 147.502 26.9135C147.505 26.9928 147.509 27.0712 147.514 27.1481C147.713 30.6784 147.869 34.2086 147.964 37.7431C147.99 38.6874 148.207 39.0686 149.238 39.0902C152.775 39.1725 156.307 39.3371 159.839 39.5234C159.946 39.5293 160.055 39.5332 160.166 39.5372C161.033 39.5685 161.988 39.6029 162.357 40.5976C162.714 41.5614 162.025 42.2419 161.413 42.8454C161.357 42.9009 161.302 42.9559 161.247 43.0103C157.988 46.2946 154.713 49.5647 151.437 52.8346L151.434 52.8376C149.907 54.3622 148.38 55.8868 146.855 57.4127C145.472 58.7858 143.782 58.8854 142.005 58.4609ZM90.442 83.1726C90.988 90.6618 97.4151 96.5961 106.039 96.5961C108.458 96.5354 111.591 95.4958 114.256 93.2564C117.611 90.4409 119.392 86.8197 119.578 82.4362C119.581 82.3835 119.588 82.3267 119.595 82.2683C119.625 82.0293 119.657 81.7653 119.396 81.6608C119.15 81.5645 118.993 81.7511 118.844 81.9293C118.798 81.9833 118.754 82.0366 118.707 82.081C118.365 82.4088 118.03 82.7448 117.695 83.0808C117.086 83.6906 116.478 84.3005 115.829 84.8619C112.965 87.3438 108.328 87.8073 105.077 85.9924C99.27 82.7524 98.1388 75.4711 102.689 70.6154C103.182 70.0919 103.692 69.5845 104.201 69.0771C104.484 68.7952 104.767 68.5133 105.047 68.2287C105.059 68.2166 105.071 68.2043 105.083 68.192C105.223 68.0502 105.378 67.8934 105.298 67.6743C105.219 67.4585 105.027 67.4607 104.847 67.4627C104.81 67.4631 104.774 67.4635 104.739 67.462C104.085 67.436 103.448 67.5227 102.802 67.6223C95.2395 68.7918 89.8829 75.5187 90.442 83.1726Z" fill="url(#paint2_linear)"/>
<defs>
<linearGradient id="paint0_linear" x1="131.024" y1="9.5822" x2="-17.9215" y2="34.8139" gradientUnits="userSpaceOnUse">
<stop stop-color="#FFD15C"/>
<stop offset="1" stop-color="#FF912C"/>
</linearGradient>
<linearGradient id="paint1_linear" x1="138.315" y1="1.08473e-05" x2="-1.86921" y2="23.7475" gradientUnits="userSpaceOnUse">
<stop stop-color="#FFD15C"/>
<stop offset="1" stop-color="#FF912C"/>
</linearGradient>
<linearGradient id="paint2_linear" x1="163.009" y1="24" x2="47.0092" y2="140.009" gradientUnits="userSpaceOnUse">
<stop stop-color="#153A55"/>
<stop offset="1" stop-color="#0F2A3D"/>
</linearGradient>
</defs>
</svg>
