<svg width="92" height="80" viewBox="0 0 92 80" fill="none" xmlns="http://www.w3.org/2000/svg">
<g filter="url(#filter0_d)">
<path fill-rule="evenodd" clip-rule="evenodd" d="M12 6H68C71.3137 6 74 8.68629 74 12V68C74 71.3137 71.3137 74 68 74H12C8.68629 74 6 71.3137 6 68V12C6 8.68629 8.68629 6 12 6ZM12 8C9.79086 8 8 9.79086 8 12V68C8 70.2091 9.79086 72 12 72H68C70.2091 72 72 70.2091 72 68V12C72 9.79086 70.2091 8 68 8H12Z" fill="url(#paint0_linear)"/>
</g>
<g filter="url(#filter1_d)">
<rect x="14.002" y="2" width="64" height="64" rx="4" fill="url(#paint1_linear)"/>
</g>
<g filter="url(#filter2_d)">
<path fill-rule="evenodd" clip-rule="evenodd" d="M88.7959 22.4846C89.7579 23.5051 90.7198 24.5256 91.6809 25.5471C91.7057 25.5733 91.7329 25.5994 91.7605 25.626C91.9068 25.767 92.0665 25.921 91.9712 26.1566C91.8731 26.3816 91.6597 26.3731 91.4599 26.3652C91.4165 26.3635 91.3737 26.3618 91.3329 26.3625C91.2277 26.3643 91.1224 26.3664 91.0171 26.3684L91.0164 26.3684C90.4028 26.3802 89.7884 26.3921 89.1769 26.3605C88.4398 26.3213 88.1124 26.5808 88.1494 27.3592C88.1823 28.0459 88.1745 28.7356 88.1666 29.4256V29.4257L88.1666 29.4266C88.1632 29.7293 88.1597 30.0321 88.1597 30.3346V72.1088C88.1597 73.6306 88.1556 73.6326 86.6359 73.6347C83.8293 73.6367 81.0247 73.6367 78.2181 73.6347C76.7623 73.6347 76.7561 73.6306 76.7561 72.1315V49.9605C76.7561 48.1606 76.755 46.3606 76.7539 44.5607L76.7539 44.542V44.5419V44.5418C76.7505 38.9228 76.7471 33.3041 76.7767 27.6866C76.7808 26.6529 76.4863 26.2369 75.4403 26.3522C74.9744 26.4026 74.5014 26.3868 74.0294 26.371L74.0293 26.371L74.0292 26.371C73.8837 26.3662 73.7383 26.3613 73.5932 26.3584C73.5476 26.3576 73.4994 26.3604 73.4504 26.3632C73.2541 26.3745 73.0464 26.3865 72.9508 26.169C72.8541 25.9494 73.0078 25.8106 73.1525 25.6801L73.1525 25.6801L73.1525 25.68C73.1896 25.6466 73.2261 25.6136 73.2576 25.58C75.3115 23.382 77.3696 21.1881 79.4276 18.9942L79.4309 18.9907C79.6919 18.7114 79.9553 18.4344 80.2188 18.1574L80.2191 18.157C80.7808 17.5663 81.3425 16.9757 81.8793 16.3632C82.3035 15.8814 82.6041 15.8958 83.0324 16.355C84.9487 18.403 86.8723 20.4438 88.7958 22.4845L88.7959 22.4846ZM52.2359 23.6019C54.2955 23.6082 56.3548 23.6146 58.4131 23.5785C59.3603 23.5621 59.6362 23.8792 59.6321 24.8099C59.6099 30.9145 59.6121 37.0203 59.6143 43.1255V43.1257V43.1258C59.615 44.9573 59.6156 46.7887 59.6156 48.62C59.6156 51.2427 59.6159 53.8654 59.6161 56.4881C59.6165 61.7334 59.617 66.9788 59.6156 72.2242C59.6156 73.6223 59.6115 73.6265 58.1866 73.6285C55.347 73.6306 52.5074 73.6306 49.6678 73.6285C48.2532 73.6285 48.2285 73.6079 48.2285 72.2015C48.2254 65.0681 48.2258 57.9359 48.2261 50.8031L48.2264 43.6698L48.2261 38.9997C48.2258 34.3302 48.2254 29.6612 48.2285 24.9911C48.2305 23.6136 48.247 23.5991 49.5875 23.5971C50.4703 23.5965 51.3531 23.5992 52.2359 23.6019ZM73.9762 44.0981C73.9783 43.122 73.6653 42.7596 72.6851 42.772C69.7096 42.8111 66.7341 42.8091 63.7587 42.772C62.8279 42.7596 62.5273 43.0829 62.5355 44.026C62.5672 47.487 62.5624 50.9481 62.5576 54.4091C62.5558 55.6677 62.554 56.9262 62.554 58.1848C62.554 59.7462 62.5538 61.3078 62.5536 62.8695V62.8697C62.5531 65.9935 62.5527 69.1175 62.554 72.2406C62.554 73.6203 62.5602 73.6264 63.8966 73.6285C64.7968 73.6298 65.6971 73.6267 66.5972 73.6237L66.5995 73.6236H66.5996C68.606 73.6168 70.6121 73.61 72.6172 73.6512C73.6447 73.6718 73.9803 73.3567 73.9762 72.3127C73.9453 62.9085 73.9474 53.5043 73.9762 44.0981ZM44.2399 51.3134C45.115 51.301 45.4466 51.5687 45.4425 52.4809C45.4136 59.1505 45.4136 65.8201 45.4425 72.4857C45.4466 73.4082 45.0945 73.6532 44.2296 73.6429C41.2191 73.6058 38.2086 73.5935 35.2002 73.6491C34.2097 73.6676 33.9915 73.2702 34.0018 72.3786C34.0286 69.9735 34.0241 67.5685 34.0196 65.1634C34.0179 64.2512 34.0162 63.3389 34.0162 62.4267C34.0162 61.5145 34.0188 60.6024 34.0214 59.6903C34.028 57.3532 34.0347 55.0164 33.9976 52.6806C33.9832 51.684 34.2386 51.2825 35.3134 51.3051C38.2889 51.369 41.2644 51.3525 44.2399 51.3134Z" fill="url(#paint2_linear)"/>
</g>
<defs>
<filter id="filter0_d" x="0" y="4" width="76" height="76" filterUnits="userSpaceOnUse" color-interpolation-filters="sRGB">
<feFlood flood-opacity="0" result="BackgroundImageFix"/>
<feColorMatrix in="SourceAlpha" type="matrix" values="0 0 0 0 0 0 0 0 0 0 0 0 0 0 0 0 0 0 127 0"/>
<feOffset dx="-2" dy="2"/>
<feGaussianBlur stdDeviation="2"/>
<feColorMatrix type="matrix" values="0 0 0 0 0 0 0 0 0 0 0 0 0 0 0 0 0 0 0.25 0"/>
<feBlend mode="normal" in2="BackgroundImageFix" result="effect1_dropShadow"/>
<feBlend mode="normal" in="SourceGraphic" in2="effect1_dropShadow" result="shape"/>
</filter>
<filter id="filter1_d" x="8.00195" y="0" width="72" height="72" filterUnits="userSpaceOnUse" color-interpolation-filters="sRGB">
<feFlood flood-opacity="0" result="BackgroundImageFix"/>
<feColorMatrix in="SourceAlpha" type="matrix" values="0 0 0 0 0 0 0 0 0 0 0 0 0 0 0 0 0 0 127 0"/>
<feOffset dx="-2" dy="2"/>
<feGaussianBlur stdDeviation="2"/>
<feColorMatrix type="matrix" values="0 0 0 0 0 0 0 0 0 0 0 0 0 0 0 0 0 0 0.25 0"/>
<feBlend mode="normal" in2="BackgroundImageFix" result="effect1_dropShadow"/>
<feBlend mode="normal" in="SourceGraphic" in2="effect1_dropShadow" result="shape"/>
</filter>
<filter id="filter2_d" x="29.9971" y="16.0062" width="62.0029" height="61.6459" filterUnits="userSpaceOnUse" color-interpolation-filters="sRGB">
<feFlood flood-opacity="0" result="BackgroundImageFix"/>
<feColorMatrix in="SourceAlpha" type="matrix" values="0 0 0 0 0 0 0 0 0 0 0 0 0 0 0 0 0 0 127 0"/>
<feOffset dx="-2" dy="2"/>
<feGaussianBlur stdDeviation="1"/>
<feColorMatrix type="matrix" values="0 0 0 0 0 0 0 0 0 0 0 0 0 0 0 0 0 0 0.25 0"/>
<feBlend mode="normal" in2="BackgroundImageFix" result="effect1_dropShadow"/>
<feBlend mode="normal" in="SourceGraphic" in2="effect1_dropShadow" result="shape"/>
</filter>
<linearGradient id="paint0_linear" x1="74" y1="6" x2="6" y2="74" gradientUnits="userSpaceOnUse">
<stop stop-color="#153A55"/>
<stop offset="1" stop-color="#0F2A3D"/>
</linearGradient>
<linearGradient id="paint1_linear" x1="78.002" y1="2" x2="14.002" y2="66" gradientUnits="userSpaceOnUse">
<stop stop-color="#153A55"/>
<stop offset="1" stop-color="#0F2A3D"/>
</linearGradient>
<linearGradient id="paint2_linear" x1="92" y1="16.0062" x2="26.0863" y2="27.2413" gradientUnits="userSpaceOnUse">
<stop stop-color="#8C79FF"/>
<stop offset="1" stop-color="#6850F9"/>
</linearGradient>
</defs>
</svg>
