<svg width="96" height="96" viewBox="0 0 96 96" fill="none" xmlns="http://www.w3.org/2000/svg">
<g clip-path="url(#clip0)">
<g filter="url(#filter0_d)">
<path fill-rule="evenodd" clip-rule="evenodd" d="M10 16H66C69.3137 16 72 18.6863 72 22V78C72 81.3137 69.3137 84 66 84H10C6.68629 84 4 81.3137 4 78V22C4 18.6863 6.68629 16 10 16ZM10 18C7.79086 18 6 19.7909 6 22V78C6 80.2091 7.79086 82 10 82H66C68.2091 82 70 80.2091 70 78V22C70 19.7909 68.2091 18 66 18H10Z" fill="url(#paint0_linear)"/>
</g>
<g filter="url(#filter1_d)">
<rect x="12.002" y="12" width="64" height="64" rx="4" fill="url(#paint1_linear)"/>
</g>
<g filter="url(#filter2_d)">
<path fill-rule="evenodd" clip-rule="evenodd" d="M86.7959 32.4846C87.7579 33.5051 88.7198 34.5256 89.6809 35.5471C89.7057 35.5733 89.7329 35.5994 89.7605 35.626C89.9068 35.767 90.0665 35.921 89.9712 36.1566C89.8731 36.3816 89.6597 36.3731 89.4599 36.3652C89.4165 36.3635 89.3737 36.3618 89.3329 36.3625C89.2277 36.3643 89.1224 36.3664 89.0171 36.3684L89.0164 36.3684C88.4028 36.3802 87.7884 36.3921 87.1769 36.3605C86.4398 36.3213 86.1124 36.5808 86.1494 37.3592C86.1823 38.0459 86.1745 38.7356 86.1666 39.4256V39.4257L86.1666 39.4266C86.1632 39.7293 86.1597 40.0321 86.1597 40.3346V82.1088C86.1597 83.6306 86.1556 83.6326 84.6359 83.6347C81.8293 83.6367 79.0247 83.6367 76.2181 83.6347C74.7623 83.6347 74.7561 83.6306 74.7561 82.1315V59.9605C74.7561 58.1606 74.755 56.3606 74.7539 54.5607L74.7539 54.542V54.5419V54.5418C74.7505 48.9228 74.7471 43.3041 74.7767 37.6866C74.7808 36.6529 74.4863 36.2369 73.4403 36.3522C72.9744 36.4026 72.5014 36.3868 72.0294 36.371L72.0293 36.371L72.0292 36.371C71.8837 36.3662 71.7383 36.3613 71.5932 36.3584C71.5476 36.3576 71.4994 36.3604 71.4504 36.3632C71.2541 36.3745 71.0464 36.3865 70.9508 36.169C70.8541 35.9494 71.0078 35.8106 71.1525 35.6801L71.1525 35.6801L71.1525 35.68C71.1896 35.6466 71.2261 35.6136 71.2576 35.58C73.3115 33.382 75.3696 31.1881 77.4276 28.9942L77.4309 28.9907C77.6919 28.7114 77.9553 28.4344 78.2188 28.1574L78.2191 28.157C78.7808 27.5663 79.3425 26.9757 79.8793 26.3632C80.3035 25.8814 80.6041 25.8958 81.0324 26.355C82.9487 28.403 84.8723 30.4438 86.7958 32.4845L86.7959 32.4846ZM50.2359 33.6019C52.2955 33.6082 54.3548 33.6146 56.4131 33.5785C57.3603 33.5621 57.6362 33.8792 57.6321 34.8099C57.6099 40.9145 57.6121 47.0203 57.6143 53.1255V53.1257V53.1258C57.615 54.9573 57.6156 56.7887 57.6156 58.62C57.6156 61.2427 57.6159 63.8654 57.6161 66.4881C57.6165 71.7334 57.617 76.9788 57.6156 82.2242C57.6156 83.6223 57.6115 83.6265 56.1866 83.6285C53.347 83.6306 50.5074 83.6306 47.6678 83.6285C46.2532 83.6285 46.2285 83.6079 46.2285 82.2015C46.2254 75.0681 46.2258 67.9359 46.2261 60.8031L46.2264 53.6698L46.2261 48.9997C46.2258 44.3302 46.2254 39.6612 46.2285 34.9911C46.2305 33.6136 46.247 33.5991 47.5875 33.5971C48.4703 33.5965 49.3531 33.5992 50.2359 33.6019ZM71.9762 54.0981C71.9783 53.122 71.6653 52.7596 70.6851 52.772C67.7096 52.8111 64.7341 52.8091 61.7587 52.772C60.8279 52.7596 60.5273 53.0829 60.5355 54.026C60.5672 57.487 60.5624 60.9481 60.5576 64.4091C60.5558 65.6677 60.554 66.9262 60.554 68.1848C60.554 69.7462 60.5538 71.3078 60.5536 72.8695V72.8697C60.5531 75.9935 60.5527 79.1175 60.554 82.2406C60.554 83.6203 60.5602 83.6264 61.8966 83.6285C62.7968 83.6298 63.6971 83.6267 64.5972 83.6237L64.5995 83.6236H64.5996C66.606 83.6168 68.6121 83.61 70.6172 83.6512C71.6447 83.6718 71.9803 83.3567 71.9762 82.3127C71.9453 72.9085 71.9474 63.5043 71.9762 54.0981ZM42.2399 61.3134C43.115 61.301 43.4466 61.5687 43.4425 62.4809C43.4136 69.1505 43.4136 75.8201 43.4425 82.4857C43.4466 83.4082 43.0945 83.6532 42.2296 83.6429C39.2191 83.6058 36.2086 83.5935 33.2002 83.6491C32.2097 83.6676 31.9915 83.2702 32.0018 82.3786C32.0286 79.9735 32.0241 77.5685 32.0196 75.1634C32.0179 74.2512 32.0162 73.3389 32.0162 72.4267C32.0162 71.5145 32.0188 70.6024 32.0214 69.6903C32.028 67.3532 32.0347 65.0164 31.9976 62.6806C31.9832 61.684 32.2386 61.2825 33.3134 61.3051C36.2889 61.369 39.2644 61.3525 42.2399 61.3134Z" fill="url(#paint2_linear)"/>
</g>
</g>
<defs>
<filter id="filter0_d" x="-2" y="14" width="76" height="76" filterUnits="userSpaceOnUse" color-interpolation-filters="sRGB">
<feFlood flood-opacity="0" result="BackgroundImageFix"/>
<feColorMatrix in="SourceAlpha" type="matrix" values="0 0 0 0 0 0 0 0 0 0 0 0 0 0 0 0 0 0 127 0"/>
<feOffset dx="-2" dy="2"/>
<feGaussianBlur stdDeviation="2"/>
<feColorMatrix type="matrix" values="0 0 0 0 0 0 0 0 0 0 0 0 0 0 0 0 0 0 0.25 0"/>
<feBlend mode="normal" in2="BackgroundImageFix" result="effect1_dropShadow"/>
<feBlend mode="normal" in="SourceGraphic" in2="effect1_dropShadow" result="shape"/>
</filter>
<filter id="filter1_d" x="6.00195" y="10" width="72" height="72" filterUnits="userSpaceOnUse" color-interpolation-filters="sRGB">
<feFlood flood-opacity="0" result="BackgroundImageFix"/>
<feColorMatrix in="SourceAlpha" type="matrix" values="0 0 0 0 0 0 0 0 0 0 0 0 0 0 0 0 0 0 127 0"/>
<feOffset dx="-2" dy="2"/>
<feGaussianBlur stdDeviation="2"/>
<feColorMatrix type="matrix" values="0 0 0 0 0 0 0 0 0 0 0 0 0 0 0 0 0 0 0.25 0"/>
<feBlend mode="normal" in2="BackgroundImageFix" result="effect1_dropShadow"/>
<feBlend mode="normal" in="SourceGraphic" in2="effect1_dropShadow" result="shape"/>
</filter>
<filter id="filter2_d" x="27.9971" y="26.0062" width="62.0029" height="61.6459" filterUnits="userSpaceOnUse" color-interpolation-filters="sRGB">
<feFlood flood-opacity="0" result="BackgroundImageFix"/>
<feColorMatrix in="SourceAlpha" type="matrix" values="0 0 0 0 0 0 0 0 0 0 0 0 0 0 0 0 0 0 127 0"/>
<feOffset dx="-2" dy="2"/>
<feGaussianBlur stdDeviation="1"/>
<feColorMatrix type="matrix" values="0 0 0 0 0 0 0 0 0 0 0 0 0 0 0 0 0 0 0.25 0"/>
<feBlend mode="normal" in2="BackgroundImageFix" result="effect1_dropShadow"/>
<feBlend mode="normal" in="SourceGraphic" in2="effect1_dropShadow" result="shape"/>
</filter>
<linearGradient id="paint0_linear" x1="72" y1="16" x2="4" y2="84" gradientUnits="userSpaceOnUse">
<stop stop-color="#153A55"/>
<stop offset="1" stop-color="#0F2A3D"/>
</linearGradient>
<linearGradient id="paint1_linear" x1="76.002" y1="12" x2="12.002" y2="76" gradientUnits="userSpaceOnUse">
<stop stop-color="#153A55"/>
<stop offset="1" stop-color="#0F2A3D"/>
</linearGradient>
<linearGradient id="paint2_linear" x1="89.9775" y1="26.0062" x2="26.3811" y2="33.0617" gradientUnits="userSpaceOnUse">
<stop stop-color="#FF6B8B"/>
<stop offset="1" stop-color="#FC2D5A"/>
</linearGradient>
<clipPath id="clip0">
<rect width="96" height="96" fill="white"/>
</clipPath>
</defs>
</svg>
