<svg width="158" height="141" viewBox="0 0 158 141" fill="none" xmlns="http://www.w3.org/2000/svg">
<path fill-rule="evenodd" clip-rule="evenodd" d="M11.5609 9.58218H119.463C125.848 9.58218 131.024 14.7582 131.024 21.1431V129.045C131.024 135.43 125.848 140.606 119.463 140.606H11.5609C5.17601 140.606 0 135.43 0 129.045V21.1431C0 14.7582 5.17601 9.58218 11.5609 9.58218ZM11.5609 13.4358C7.30431 13.4358 3.85364 16.8865 3.85364 21.1431V129.045C3.85364 133.302 7.30431 136.752 11.5609 136.752H119.463C123.72 136.752 127.17 133.302 127.17 129.045V21.1431C127.17 16.8865 123.72 13.4358 119.463 13.4358H11.5609Z" fill="url(#paint0_linear)"/>
<rect x="14.998" width="123.317" height="123.317" rx="8" fill="url(#paint1_linear)"/>
<path fill-rule="evenodd" clip-rule="evenodd" d="M131.31 95.795C136.081 88.3477 138.437 80.1798 138.381 71.0537C138.441 63.9429 136.683 57.0103 133.385 50.4261C122.536 28.7096 95.8115 18.8828 73.814 29.0066C56.5873 36.9369 47.1762 50.8141 46.2774 69.7393C45.5766 84.535 51.4324 96.9313 62.6885 106.624C77.3773 119.269 99.6639 121.039 116.083 110.789C118.094 109.534 118.918 110.044 120.189 111.561C124.517 116.717 128.897 121.833 133.278 126.948C134.8 128.726 136.323 130.504 137.843 132.283C140.67 135.593 144.142 137.502 148.596 136.793C153.264 136.049 156.368 133.289 157.58 128.728C158.791 124.159 157.342 120.275 153.791 117.226C146.458 110.923 139.102 104.652 131.714 98.4161C130.708 97.5648 130.578 96.9353 131.31 95.795ZM126.765 71.323C126.622 90.557 111.332 105.776 92.169 105.658C74.7642 105.859 57.8503 91.7566 57.9057 71.1369C57.9612 51.7722 73.2359 36.8578 92.2324 36.8261C112.286 36.7904 126.9 53.1223 126.765 71.323ZM106.069 65.0776C103.379 65.0481 100.689 65.0275 97.9985 65.0149C98.002 62.4686 98.0024 59.9237 97.9839 57.3819C97.9602 54.2583 97.0112 53.1058 94.4529 53.0352C92.8119 52.9882 91.171 52.9882 89.5339 53.0352C87.3434 53.1011 86.1057 54.2442 86.078 56.8221C86.0473 59.5515 86.0261 62.281 86.0137 65.0104C83.3119 65.0205 80.61 65.0379 77.9082 65.0618C75.3098 65.0855 74.0857 66.3587 74.0276 68.5335C73.9889 70.1073 73.9937 71.681 74.0276 73.2547C74.0905 75.9633 75.2711 76.9598 78.5372 76.9835C81.0303 77.001 83.5219 77.0016 86.0136 76.9985C86.024 79.3992 86.0404 81.8 86.0622 84.2007C86.0859 86.7268 87.3592 87.917 89.5339 87.9734C91.1077 88.0111 92.6814 88.0064 94.2552 87.9734C96.9638 87.9123 97.9602 86.7645 97.9839 83.5891C97.9998 81.3915 98.0017 79.195 97.9997 76.9985C100.499 77.0016 102.998 77.0011 105.493 76.9835C108.706 76.9598 109.891 76.0108 109.964 73.4525C110.012 71.8115 110.012 70.1705 109.964 68.5335C109.896 66.3429 108.721 65.1053 106.069 65.0776Z" fill="url(#paint2_linear)"/>
<defs>
<linearGradient id="paint0_linear" x1="141.28" y1="9.58142" x2="63.0547" y2="21.7232" gradientUnits="userSpaceOnUse">
<stop stop-color="#8DE3FF"/>
<stop offset="1" stop-color="#00BEFB"/>
</linearGradient>
<linearGradient id="paint1_linear" x1="147.967" y1="-0.000715332" x2="74.3436" y2="11.4268" gradientUnits="userSpaceOnUse">
<stop stop-color="#8DE3FF"/>
<stop offset="1" stop-color="#00BEFB"/>
</linearGradient>
<linearGradient id="paint2_linear" x1="158" y1="25.0107" x2="46.0709" y2="136.79" gradientUnits="userSpaceOnUse">
<stop stop-color="#153A55"/>
<stop offset="1" stop-color="#0F2A3D"/>
</linearGradient>
</defs>
</svg>
