<svg width="171" height="141" viewBox="0 0 171 141" fill="none" xmlns="http://www.w3.org/2000/svg">
<path fill-rule="evenodd" clip-rule="evenodd" d="M11.5609 9.58218H119.463C125.848 9.58218 131.024 14.7582 131.024 21.1431V129.045C131.024 135.43 125.848 140.606 119.463 140.606H11.5609C5.17601 140.606 0 135.43 0 129.045V21.1431C0 14.7582 5.17601 9.58218 11.5609 9.58218ZM11.5609 13.4358C7.30431 13.4358 3.85364 16.8865 3.85364 21.1431V129.045C3.85364 133.302 7.30431 136.752 11.5609 136.752H119.463C123.72 136.752 127.17 133.302 127.17 129.045V21.1431C127.17 16.8865 123.72 13.4358 119.463 13.4358H11.5609Z" fill="url(#paint0_linear)"/>
<rect x="14.998" width="123.317" height="123.317" rx="8" fill="url(#paint1_linear)"/>
<path d="M170.987 70.097C170.822 67.5753 169.073 64.904 166.427 64.7947C164.153 64.7025 163.313 63.5454 162.548 61.4498C162.422 61.1044 162.245 60.7992 162.056 60.4596C156.085 50.0047 147.131 44.4951 135.445 44.0691C125.245 43.7064 116.691 47.7824 110.04 56.1993C109.457 56.9362 109.246 56.9765 108.297 56.539C102.046 53.6719 95.76 53.6835 89.6058 56.585C88.6859 57.0226 88.4687 56.9017 87.8859 56.1532C81.7145 48.266 73.4689 44.1727 63.3662 44H63.3491C61.7777 44.023 60.5663 44.1094 59.4235 44.2821C47.9151 45.9977 39.5952 52.3075 34.6981 63.033C34.1667 64.1959 33.7381 64.5068 32.6182 64.5298C29.7953 64.5932 27.6297 66.5563 27.0925 69.5212C26.6068 72.2041 28.0754 74.8178 30.5096 75.595C32.0067 76.0728 32.2696 76.827 32.2582 78.1281C32.2582 78.2778 32.2753 78.4275 32.2982 78.5772C32.3096 78.6405 32.3153 78.6981 32.321 78.7614C33.0639 87.1725 37.4238 95.0425 44.2751 100.362C49.8522 104.686 56.6349 107 63.4634 107C65.1662 107 66.8691 106.856 68.5547 106.562C77.0289 105.1 84.6288 100.091 89.4116 92.826C94.2001 85.549 95.76 76.9076 93.8001 68.5022C93.6401 67.8114 93.8001 67.6041 94.2401 67.3681C97.4171 65.6755 100.503 65.664 103.68 67.3278C104.183 67.5926 104.36 67.8171 104.183 68.5541C103.508 71.3059 103.263 74.1903 103.446 77.1321C104.017 86.3493 107.851 93.9947 114.84 99.8554C121.308 105.279 129.548 107.743 138.051 106.787C146.508 105.837 154.291 101.433 159.41 94.7086C163.21 89.7114 165.37 83.891 165.827 77.4085C165.896 76.424 166.13 76.1131 167.022 75.8253C169.565 75.0078 171.159 72.7049 170.987 70.097ZM154.308 75.4683C154.331 80.667 152.291 85.6008 148.571 89.366C144.805 93.1714 139.834 95.267 134.577 95.267C134.571 95.267 134.559 95.267 134.554 95.267C123.788 95.2555 115.04 86.3665 115.051 75.4568C115.057 70.143 117.103 65.1746 120.811 61.4671C124.514 57.7652 129.457 55.7272 134.748 55.7272C134.759 55.7272 134.771 55.7272 134.782 55.7272C145.319 55.7445 154.262 64.7831 154.308 75.4683ZM82.9317 75.5259C82.9259 80.8397 80.886 85.8139 77.1775 89.5214C73.4804 93.229 68.5319 95.267 63.2463 95.267C63.2348 95.267 63.2234 95.267 63.2177 95.267C52.5093 95.2497 43.7437 86.4011 43.6751 75.5374C43.6408 70.356 45.6751 65.4222 49.4008 61.6513C53.1721 57.8343 58.1435 55.7272 63.4005 55.7272C63.4062 55.7272 63.412 55.7272 63.4177 55.7272C74.1832 55.733 82.9374 64.6162 82.9317 75.5259Z" fill="url(#paint2_linear)"/>
<defs>
<linearGradient id="paint0_linear" x1="131.024" y1="9.5822" x2="-17.9215" y2="34.8139" gradientUnits="userSpaceOnUse">
<stop stop-color="#FFD15C"/>
<stop offset="1" stop-color="#FF912C"/>
</linearGradient>
<linearGradient id="paint1_linear" x1="138.315" y1="1.08473e-05" x2="-1.86921" y2="23.7475" gradientUnits="userSpaceOnUse">
<stop stop-color="#FFD15C"/>
<stop offset="1" stop-color="#FF912C"/>
</linearGradient>
<linearGradient id="paint2_linear" x1="171" y1="44" x2="124.731" y2="149.757" gradientUnits="userSpaceOnUse">
<stop stop-color="#153A55"/>
<stop offset="1" stop-color="#0F2A3D"/>
</linearGradient>
</defs>
</svg>
