<svg width="64" height="64" viewBox="0 0 64 64" fill="none" xmlns="http://www.w3.org/2000/svg">
<path d="M43.6236 15.6455L43.6237 15.6455L43.6236 15.6455ZM43.3697 48.6293L43.3692 48.6288C42.3691 47.5928 41.3723 46.5477 40.3765 45.5039C39.6112 44.7016 38.8466 43.9 38.0817 43.1038C36.3214 41.2716 34.5591 39.443 32.7962 37.6139C31.4767 36.2448 30.1569 34.8755 28.8376 33.5041L28.8306 33.4969C28.6698 33.33 28.5209 33.1754 28.416 33.038C28.3105 32.8998 28.185 32.6989 28.1877 32.4403C28.1903 32.1835 28.3183 31.9854 28.4234 31.85C28.5245 31.7197 28.6664 31.5726 28.819 31.4142L28.8436 31.3887C28.8436 31.3887 28.8436 31.3887 28.8436 31.3886C29.9852 30.2032 31.1265 29.0173 32.2678 27.8314C35.9406 24.0151 39.6138 20.1983 43.2997 16.3936L43.3001 16.3932C43.3896 16.301 43.4352 16.2396 43.4571 16.2017C43.457 16.2016 43.4569 16.2014 43.4568 16.2012C43.4307 16.1617 43.3793 16.1013 43.2827 16.0111L43.2827 16.0111C41.752 14.5837 40.247 13.1291 38.7591 11.6594L38.7589 11.6592C38.6732 11.5745 38.6156 11.5308 38.5792 11.5094C38.5788 11.5092 38.5783 11.5089 38.5779 11.5087C38.5454 11.5286 38.4915 11.5705 38.4118 11.6536C34.029 16.2469 29.6355 20.8316 25.2437 25.4147C24.4973 26.1936 23.7509 26.9724 23.0046 27.7513L23.0045 27.7514C22.6567 28.1142 22.309 28.4782 21.9608 28.8427C20.8667 29.988 19.7688 31.1374 18.6524 32.2655L18.6524 32.2655C18.5677 32.3511 18.5267 32.4076 18.5079 32.4411C18.5072 32.4424 18.5065 32.4435 18.5059 32.4446C18.5073 32.4473 18.5089 32.4503 18.5108 32.4536C18.5322 32.4907 18.5753 32.5488 18.6584 32.635L18.6588 32.6354C23.2325 37.3883 27.7929 42.1545 32.3521 46.9194L33.0212 47.6187C33.0212 47.6187 33.0212 47.6187 33.0212 47.6187C33.9933 48.6343 34.9649 49.6547 35.9357 50.6743C36.7402 51.5193 37.5443 52.3638 38.3476 53.2045C38.3847 53.2431 38.4225 53.2852 38.4536 53.3198C38.4625 53.3297 38.4709 53.339 38.4785 53.3475C38.517 53.39 38.5469 53.4216 38.575 53.448C38.5892 53.434 38.6027 53.4202 38.6208 53.4019C38.6382 53.3844 38.6589 53.3637 38.6809 53.3426C39.1862 52.8576 39.6912 52.3702 40.1968 51.8821C41.2638 50.8522 42.3334 49.8197 43.4141 48.803C43.4392 48.7794 43.4581 48.7597 43.4721 48.7438C43.4496 48.7151 43.4169 48.678 43.3697 48.6293Z" stroke="white"/>
<path d="M38.9643 49C39.1694 49 39.2828 48.8502 39.4096 48.7309C40.8644 47.3591 42.3071 45.974 43.7755 44.6167C44.1223 44.2959 44.0305 44.0984 43.7498 43.8135C42.1155 42.15 40.5001 40.4707 38.8698 38.8032C36.029 35.8978 33.18 33.0004 30.3365 30.0963C29.7036 29.4508 29.7117 29.4495 30.3419 28.8066C34.7874 24.2709 39.2261 19.7299 43.685 15.2074C44.0845 14.8032 44.0548 14.5818 43.6526 14.2133C42.2437 12.9223 40.8577 11.6061 39.4865 10.2754C39.1168 9.91619 38.8792 9.89896 38.5081 10.2794C33.7752 15.1531 29.0288 20.0162 24.2864 24.8793C22.9531 26.2458 21.6291 27.623 20.2742 28.9683C19.9003 29.3395 19.9165 29.5714 20.2755 29.9372C24.7034 34.4584 29.1179 38.9928 33.5323 43.5259C35.1747 45.2118 36.809 46.9058 38.4487 48.5918C38.6012 48.7482 38.7335 48.9364 38.9643 49Z" fill="white"/>
</svg>
