<svg width="96" height="96" viewBox="0 0 96 96" fill="none" xmlns="http://www.w3.org/2000/svg">
<g filter="url(#filter0_d)">
<circle r="32" transform="matrix(-1 0 0 1 48 44)" fill="url(#paint0_linear)"/>
<path d="M55.4322 56.9591L55.4326 56.9596C55.4331 56.96 55.4335 56.9605 55.434 56.961C54.6146 57.7306 53.803 58.5122 52.994 59.2913C52.6054 59.6655 52.2174 60.0392 51.8294 60.4107L55.4322 56.9591ZM55.4322 56.9591C54.6629 56.164 53.8953 55.3613 53.1289 54.5597M55.4322 56.9591L53.1289 54.5597M55.3792 32.0576L55.3788 32.058C52.5434 34.978 49.7177 37.9073 46.8924 40.8361C46.0145 41.7462 45.1367 42.6563 44.2586 43.566L55.3792 32.0576ZM55.3792 32.0576C55.402 32.0341 55.4207 32.0137 55.4358 31.996C55.4182 31.9774 55.3966 31.9559 55.37 31.9312L55.37 31.9312M55.3792 32.0576L55.37 31.9312M55.37 31.9312C54.1915 30.8348 53.033 29.7177 51.8878 28.5892L51.8877 28.589M55.37 31.9312L51.8877 28.589M51.8877 28.589C51.8662 28.5678 51.8475 28.5505 51.8311 28.5363C51.8174 28.549 51.8019 28.5642 51.7843 28.5825C48.4129 32.1076 45.0332 35.6262 41.6549 39.1434C41.0807 39.7411 40.5066 40.3388 39.9326 40.9365L39.9325 40.9366M51.8877 28.589L39.9325 40.9366M39.9325 40.9366C39.6653 41.2147 39.3981 41.4938 39.1304 41.7733C38.2886 42.6525 37.443 43.5356 36.5835 44.4022L36.5834 44.4023M39.9325 40.9366L36.5834 44.4023M36.5834 44.4023C36.5615 44.4243 36.5444 44.443 36.5311 44.4585C36.5456 44.4758 36.5645 44.497 36.5891 44.5225L36.5895 44.5229M36.5834 44.4023L36.5895 44.5229M36.5895 44.5229C40.1081 48.1708 43.6164 51.8289 47.1237 55.4859L47.6377 56.0219M36.5895 44.5229L47.6377 56.0219M51.7346 60.3082C51.7646 60.3395 51.7956 60.3739 51.8197 60.4007C51.823 60.4043 51.8261 60.4077 51.8291 60.411L51.7346 60.3082ZM51.7346 60.3082C51.1173 59.6638 50.4991 59.016 49.8804 58.3677C49.1333 57.5849 48.3855 56.8013 47.6378 56.0219M51.7346 60.3082L47.6378 56.0219M47.6378 56.0219C47.6377 56.0219 47.6377 56.0219 47.6377 56.0219M47.6378 56.0219L47.6377 56.0219M53.1289 54.5597C52.5402 53.944 51.9522 53.329 51.3647 52.7188M53.1289 54.5597L51.3647 52.7188M51.3647 52.7188C50.0106 51.3127 48.6552 49.9096 47.2993 48.506M51.3647 52.7188L47.2993 48.506M47.2993 48.506C46.2843 47.4554 45.2691 46.4045 44.2541 45.3519M47.2993 48.506L44.2541 45.3519M44.2541 45.3519L44.2538 45.3516M44.2541 45.3519L44.2538 45.3516M44.2538 45.3516L44.2452 45.3427C44.1243 45.2175 44.0057 45.0947 43.9209 44.9839C43.835 44.8716 43.7188 44.6913 43.7213 44.4529C43.7237 44.2165 43.842 44.0389 43.9272 43.9294C44.009 43.8243 44.1222 43.7071 44.2377 43.5876C44.2446 43.5804 44.2516 43.5733 44.2585 43.5661L44.2538 45.3516ZM51.9415 60.5197C51.9416 60.5197 51.9412 60.5195 51.9403 60.5192L51.9415 60.5197Z" stroke="white"/>
<path d="M52.2232 57C52.377 57 52.4621 56.8848 52.5572 56.793C53.6483 55.7378 54.7303 54.6723 55.8316 53.6282C56.0917 53.3815 56.0229 53.2296 55.8124 53.0104C54.5866 51.7308 53.3751 50.439 52.1523 49.1563C50.0217 46.9214 47.885 44.6926 45.7524 42.4587C45.2777 41.9622 45.2837 41.9611 45.7564 41.4666C49.0905 37.9776 52.4196 34.4845 55.7638 31.0057C56.0634 30.6947 56.0411 30.5245 55.7395 30.241C54.6828 29.2479 53.6433 28.2355 52.6149 27.2118C52.3376 26.9355 52.1594 26.9223 51.8811 27.2149C48.3314 30.9639 44.7716 34.7048 41.2148 38.4456C40.2148 39.4968 39.2218 40.5562 38.2056 41.591C37.9253 41.8765 37.9374 42.0549 38.2066 42.3363C41.5276 45.8141 44.8384 49.3021 48.1492 52.7891C49.381 54.086 50.6068 55.3891 51.8365 56.686C51.9509 56.8063 52.0501 56.9511 52.2232 57Z" fill="white"/>
</g>
<defs>
<filter id="filter0_d" x="0" y="0" width="96" height="96" filterUnits="userSpaceOnUse" color-interpolation-filters="sRGB">
<feFlood flood-opacity="0" result="BackgroundImageFix"/>
<feColorMatrix in="SourceAlpha" type="matrix" values="0 0 0 0 0 0 0 0 0 0 0 0 0 0 0 0 0 0 127 0"/>
<feOffset dy="4"/>
<feGaussianBlur stdDeviation="8"/>
<feColorMatrix type="matrix" values="0 0 0 0 0.00784314 0 0 0 0 0.0901961 0 0 0 0 0.152941 0 0 0 0.25 0"/>
<feBlend mode="normal" in2="BackgroundImageFix" result="effect1_dropShadow"/>
<feBlend mode="normal" in="SourceGraphic" in2="effect1_dropShadow" result="shape"/>
</filter>
<linearGradient id="paint0_linear" x1="63.9751" y1="2.05883e-06" x2="-6.20707" y2="7.73821" gradientUnits="userSpaceOnUse">
<stop stop-color="#FF6385"/>
<stop offset="1" stop-color="#FC2D5A"/>
</linearGradient>
</defs>
</svg>
