<svg width="163" height="141" viewBox="0 0 163 141" fill="none" xmlns="http://www.w3.org/2000/svg">
<path fill-rule="evenodd" clip-rule="evenodd" d="M11.5609 9.58218H119.463C125.848 9.58218 131.024 14.7582 131.024 21.1431V129.045C131.024 135.43 125.848 140.606 119.463 140.606H11.5609C5.17601 140.606 0 135.43 0 129.045V21.1431C0 14.7582 5.17601 9.58218 11.5609 9.58218ZM11.5609 13.4358C7.30431 13.4358 3.85364 16.8865 3.85364 21.1431V129.045C3.85364 133.302 7.30431 136.752 11.5609 136.752H119.463C123.72 136.752 127.17 133.302 127.17 129.045V21.1431C127.17 16.8865 123.72 13.4358 119.463 13.4358H11.5609Z" fill="url(#paint0_linear)"/>
<rect x="14.998" width="123.317" height="123.317" rx="8" fill="url(#paint1_linear)"/>
<path d="M146.376 106.326L142.868 102.773C142.682 102.583 142.487 102.385 142.272 102.195C140.07 100.231 136.764 100.34 134.745 102.446C132.774 104.503 132.843 107.753 134.907 109.847C135.56 110.51 136.221 111.169 136.882 111.827C137.535 112.478 138.192 113.129 138.841 113.788C139.23 114.184 139.616 114.588 140.025 115.017H85.4277L85.2776 115.013C85.1438 115.009 85.0099 115.009 84.8801 115.017C84.5557 113.933 84.065 112.797 83.343 111.443C83.2214 111.217 83.2133 111.205 83.4363 110.991C84.2434 110.223 85.0424 109.418 85.813 108.642C86.1252 108.327 86.4416 108.012 86.7539 107.696L94.0622 100.404C107.097 87.4009 120.578 73.9528 133.82 60.7109C134.376 60.1571 134.505 60.1288 135.065 60.4441C137.353 61.7255 139.883 62.4409 142.58 62.5622C148.274 62.8209 153.774 60.6301 157.676 56.5435C161.537 52.4973 163.447 47.0001 162.911 41.4624C161.942 31.4056 152.93 23.5801 142.828 24.0248C134.96 24.3683 127.814 29.7605 125.445 37.1373C125.234 37.8003 125.113 37.8973 124.358 37.8973C110.808 37.8609 98.2031 37.8609 85.8251 37.9013C84.9896 37.9013 84.7909 37.776 84.5192 36.9878C81.5261 28.3377 73.1268 23.0546 64.0948 24.142C58.8954 24.7685 54.3044 27.3393 51.1734 31.3854C47.9734 35.5205 46.6189 40.7429 47.357 46.0987C48.0221 50.925 50.4961 55.2662 54.3287 58.3301C58.3033 61.5072 63.3364 62.9139 68.4952 62.2914C76.4606 61.3293 82.0817 56.6688 84.7463 48.819C84.868 48.4552 84.8842 48.4431 85.2654 48.4472C87.5975 48.4714 89.9619 48.4674 92.2534 48.4633C93.1051 48.4633 93.9527 48.4593 94.8044 48.4593H101.18C108.894 48.4633 116.871 48.4633 124.719 48.4431C125.319 48.4269 125.348 48.528 125.429 48.8877C125.64 49.8376 126.049 50.7997 126.65 51.7374C126.929 52.178 126.982 52.3155 126.422 52.8733C114.17 65.0481 101.731 77.4452 89.7023 89.4341L80.6257 98.4803C79.0116 100.089 77.3934 101.694 75.7914 103.315C75.694 103.416 75.6372 103.46 75.6048 103.48C75.5764 103.472 75.5318 103.452 75.4629 103.416C71.8614 101.467 67.9761 100.74 63.9204 101.249C58.7048 101.904 54.0854 104.58 50.9098 108.776C47.7382 112.967 46.4323 118.121 47.2272 123.283C48.525 131.698 55.1236 138.186 63.6446 139.431C72.924 140.785 81.9357 135.065 84.6044 126.124C84.7382 125.68 84.7706 125.651 85.2411 125.647C97.7123 125.664 110.179 125.664 122.651 125.668C128.361 125.668 134.076 125.668 139.786 125.672C139.583 125.853 139.384 126.039 139.194 126.237C138.695 126.743 138.184 127.236 137.673 127.729C136.493 128.873 135.272 130.053 134.205 131.371C133.293 132.499 132.912 133.926 133.127 135.389C133.346 136.872 134.169 138.202 135.394 139.043C136.326 139.686 137.328 140.001 138.33 140.001C139.758 140.001 141.197 139.358 142.467 138.097C146.153 134.439 149.828 130.773 153.502 127.107L156.094 124.524C158.685 121.937 158.694 118.824 156.106 116.197C152.87 112.907 149.625 109.616 146.376 106.326Z" fill="url(#paint2_linear)"/>
<defs>
<linearGradient id="paint0_linear" x1="131.024" y1="9.5822" x2="-17.9215" y2="34.8139" gradientUnits="userSpaceOnUse">
<stop stop-color="#19EE94"/>
<stop offset="1" stop-color="#04B375"/>
</linearGradient>
<linearGradient id="paint1_linear" x1="138.315" y1="1.08473e-05" x2="-1.86921" y2="23.7475" gradientUnits="userSpaceOnUse">
<stop stop-color="#19EE94"/>
<stop offset="1" stop-color="#04B375"/>
</linearGradient>
<linearGradient id="paint2_linear" x1="163" y1="24.0009" x2="47" y2="140.001" gradientUnits="userSpaceOnUse">
<stop stop-color="#153A55"/>
<stop offset="1" stop-color="#0F2A3D"/>
</linearGradient>
</defs>
</svg>
