<svg width="164" height="141" viewBox="0 0 164 141" fill="none" xmlns="http://www.w3.org/2000/svg">
<path fill-rule="evenodd" clip-rule="evenodd" d="M11.5609 9.58218H119.463C125.848 9.58218 131.024 14.7582 131.024 21.1431V129.045C131.024 135.43 125.848 140.606 119.463 140.606H11.5609C5.17601 140.606 0 135.43 0 129.045V21.1431C0 14.7582 5.17601 9.58218 11.5609 9.58218ZM11.5609 13.4358C7.30431 13.4358 3.85364 16.8865 3.85364 21.1431V129.045C3.85364 133.302 7.30431 136.752 11.5609 136.752H119.463C123.72 136.752 127.17 133.302 127.17 129.045V21.1431C127.17 16.8865 123.72 13.4358 119.463 13.4358H11.5609Z" fill="url(#paint0_linear)"/>
<rect x="14.998" width="123.317" height="123.317" rx="8" fill="url(#paint1_linear)"/>
<path fill-rule="evenodd" clip-rule="evenodd" d="M105.526 141C73.4452 141.017 47.0172 114.611 47 82.5258C46.9828 50.4452 73.3936 24.0172 105.474 24C137.555 23.9828 163.983 50.3936 164 82.4742C164.017 114.555 137.611 140.987 105.526 141ZM149.122 82.4828C149.11 58.4449 129.516 38.8647 105.483 38.8776C81.4449 38.8904 61.8647 58.4879 61.8776 82.5172C61.8904 106.555 81.4836 126.135 105.517 126.122C129.555 126.11 149.135 106.512 149.122 82.4828ZM105.449 78.9236H81.2734C79.8678 78.9236 79.8592 78.915 79.8592 77.4793C79.8578 76.2033 79.8595 74.9269 79.8612 73.6503V73.65C79.8648 70.9142 79.8684 68.1777 79.842 65.4431C79.8334 64.4845 80.1042 64.1406 81.1101 64.1406C97.3718 64.1664 113.633 64.1664 129.895 64.1406C130.901 64.1406 131.176 64.4802 131.168 65.4431C131.136 68.3598 131.141 71.2766 131.147 74.195C131.148 75.2895 131.15 76.3842 131.15 77.4793C131.15 78.915 131.142 78.9236 129.736 78.9236H105.449ZM81.2734 100.842H105.449H129.736C131.142 100.842 131.15 100.833 131.15 99.3977C131.152 98.12 131.15 96.8428 131.148 95.5658C131.145 92.8302 131.141 90.0959 131.168 87.3616C131.176 86.403 130.901 86.0591 129.895 86.0591C113.633 86.0849 97.3718 86.0849 81.1101 86.0591C80.1042 86.0591 79.8334 86.403 79.842 87.3616C79.8684 90.0961 79.8648 92.8327 79.8612 95.5685C79.8595 96.8452 79.8578 98.1217 79.8592 99.3977C79.8592 100.833 79.8678 100.842 81.2734 100.842Z" fill="url(#paint2_linear)"/>
<defs>
<linearGradient id="paint0_linear" x1="131.024" y1="9.5822" x2="-17.9215" y2="34.8139" gradientUnits="userSpaceOnUse">
<stop stop-color="#8C79FF"/>
<stop offset="1" stop-color="#6850F9"/>
</linearGradient>
<linearGradient id="paint1_linear" x1="138.315" y1="1.08473e-05" x2="-1.86921" y2="23.7475" gradientUnits="userSpaceOnUse">
<stop stop-color="#8C79FF"/>
<stop offset="1" stop-color="#6850F9"/>
</linearGradient>
<linearGradient id="paint2_linear" x1="164" y1="24" x2="47" y2="141" gradientUnits="userSpaceOnUse">
<stop stop-color="#153A55"/>
<stop offset="1" stop-color="#0F2A3D"/>
</linearGradient>
</defs>
</svg>
