<svg width="164" height="141" viewBox="0 0 164 141" fill="none" xmlns="http://www.w3.org/2000/svg">
<path fill-rule="evenodd" clip-rule="evenodd" d="M11.5609 9.58218H119.463C125.848 9.58218 131.024 14.7582 131.024 21.1431V129.045C131.024 135.43 125.848 140.606 119.463 140.606H11.5609C5.17601 140.606 0 135.43 0 129.045V21.1431C0 14.7582 5.17601 9.58218 11.5609 9.58218ZM11.5609 13.4358C7.30431 13.4358 3.85364 16.8865 3.85364 21.1431V129.045C3.85364 133.302 7.30431 136.752 11.5609 136.752H119.463C123.72 136.752 127.17 133.302 127.17 129.045V21.1431C127.17 16.8865 123.72 13.4358 119.463 13.4358H11.5609Z" fill="url(#paint0_linear)"/>
<rect x="14.998" width="123.317" height="123.317" rx="8" fill="url(#paint1_linear)"/>
<path fill-rule="evenodd" clip-rule="evenodd" d="M47 82.5C47 50.2439 73.2439 24 105.5 24C137.756 24 164 50.2439 164 82.5C164 114.756 137.756 141 105.5 141C73.2439 141 47 114.756 47 82.5ZM60.2639 82.5C60.2639 92.0396 63.2468 101.162 68.8999 108.952C77.8081 99.2159 97.2405 96.0419 105.5 96.0419C113.759 96.0419 133.192 99.2217 142.1 108.952C147.753 101.162 150.736 92.0453 150.736 82.5C150.736 57.5593 130.441 37.2639 105.5 37.2639C80.5593 37.2639 60.2639 57.5593 60.2639 82.5ZM126.542 68.0893C126.542 79.7108 117.121 89.1319 105.5 89.1319C93.8781 89.1319 84.457 79.7108 84.457 68.0893C84.457 56.4677 93.8781 47.0466 105.5 47.0466C117.121 47.0466 126.542 56.4677 126.542 68.0893Z" fill="url(#paint2_linear)"/>
<defs>
<linearGradient id="paint0_linear" x1="131.024" y1="9.5822" x2="-17.9215" y2="34.8139" gradientUnits="userSpaceOnUse">
<stop stop-color="#19EE94"/>
<stop offset="1" stop-color="#04B375"/>
</linearGradient>
<linearGradient id="paint1_linear" x1="138.315" y1="1.08473e-05" x2="-1.86921" y2="23.7475" gradientUnits="userSpaceOnUse">
<stop stop-color="#19EE94"/>
<stop offset="1" stop-color="#04B375"/>
</linearGradient>
<linearGradient id="paint2_linear" x1="164" y1="24" x2="47" y2="141" gradientUnits="userSpaceOnUse">
<stop stop-color="#153A55"/>
<stop offset="1" stop-color="#0F2A3D"/>
</linearGradient>
</defs>
</svg>
