<svg width="96" height="96" viewBox="0 0 96 96" fill="none" xmlns="http://www.w3.org/2000/svg">
<g clip-path="url(#clip0)">
<g filter="url(#filter0_d)">
<path fill-rule="evenodd" clip-rule="evenodd" d="M10 16H66C69.3137 16 72 18.6863 72 22V78C72 81.3137 69.3137 84 66 84H10C6.68629 84 4 81.3137 4 78V22C4 18.6863 6.68629 16 10 16ZM10 18C7.79086 18 6 19.7909 6 22V78C6 80.2091 7.79086 82 10 82H66C68.2091 82 70 80.2091 70 78V22C70 19.7909 68.2091 18 66 18H10Z" fill="url(#paint0_linear)"/>
</g>
<g filter="url(#filter1_d)">
<rect x="12.002" y="12" width="64" height="64" rx="4" fill="url(#paint1_linear)"/>
</g>
<g filter="url(#filter2_d)">
<path fill-rule="evenodd" clip-rule="evenodd" d="M59.9978 32.6279V32.6281V32.6284C60.0004 32.9931 60.003 33.3577 60.003 33.7221C60.003 33.7234 60.004 33.7246 60.0052 33.7241C60.0054 33.724 60.0057 33.7238 60.006 33.7235C60.0066 33.723 60.0075 33.7234 60.0075 33.7241C60.0075 34.1432 60.0055 34.5621 60.0036 34.9808V34.981C59.9992 35.9124 59.9949 36.8431 60.012 37.7738C60.0346 39.0422 60.6202 39.7816 61.5269 39.7635C62.4245 39.7431 62.9649 38.9993 63.0033 37.7241C63.0101 37.5002 63.0093 37.2752 63.0084 37.0497C63.0081 36.9746 63.0079 36.8994 63.0079 36.8242C63.0079 36.193 63.0092 35.5618 63.0106 34.9306C63.0142 33.2737 63.0178 31.6167 62.9965 29.9598C62.9875 29.2159 63.182 28.7343 63.8829 28.3318C65.4023 27.4614 66.1891 26.0618 66.0783 24.3095C65.9291 21.9875 64.3147 20.3573 62.0198 20.0339C60.1658 19.7739 58.0721 21.0356 57.344 22.8579C56.5278 24.8974 57.2084 27.0747 59.1619 28.3454C59.8221 28.775 60.0392 29.2702 60.0143 30.0118C59.9856 30.8831 59.9917 31.7556 59.9978 32.6277V32.6277V32.6279ZM48.3704 31.8206C48.3682 31.8568 48.3697 31.8947 48.3713 31.9324C48.3745 32.0125 48.3778 32.0923 48.3455 32.1553C47.5896 33.6985 48.5282 34.5846 49.5312 35.5315L49.5642 35.5626C51.0241 36.9359 52.4284 38.3703 53.8315 39.8033L53.8315 39.8033L53.8316 39.8033L53.8316 39.8034C54.0039 39.9793 54.1761 40.1553 54.3485 40.3311C55.0969 41.0953 55.1263 42.0291 54.457 42.6034C53.6476 43.2975 52.9308 42.9855 52.2796 42.3343C51.8474 41.901 51.4138 41.4688 50.9802 41.0366L50.9801 41.0366L50.98 41.0365L50.98 41.0365C49.6331 39.6941 48.286 38.3514 46.9776 36.9712C46.288 36.2432 45.6481 36.0148 44.6239 36.2545C42.0215 36.8582 39.5818 34.9069 39.2698 32.1168C38.9985 29.6908 41.0899 27.3642 43.6652 27.2285C46.1478 27.0951 48.4043 29.3019 48.3704 31.8206ZM76.0319 51.0716C76.4514 51.0689 76.8709 51.0662 77.2904 51.0662C77.292 51.0662 77.2932 51.0681 77.2932 51.0697C77.293 51.0722 77.2952 51.0753 77.2978 51.0753C77.6728 51.0753 78.0481 51.0778 78.4233 51.0804H78.4234H78.4235H78.4235H78.4236C79.3242 51.0865 80.2249 51.0926 81.1234 51.064C81.8469 51.0413 82.2833 51.2878 82.6541 51.9322C83.6082 53.594 85.1321 54.3062 87.011 54.1389C89.0504 53.958 90.7259 52.2713 90.9836 50.2681C91.2662 48.0817 90.0656 45.9654 88.1483 45.2667C86.0953 44.5183 83.8863 45.2238 82.7603 47.1208C82.3104 47.8805 81.8107 48.1269 80.9651 48.1111C78.374 48.0659 75.7806 48.084 73.1872 48.1043C72.0319 48.1133 71.2857 48.7419 71.3038 49.6079C71.3219 50.4467 72.0025 51.0278 73.1239 51.0572C74.0923 51.084 75.0619 51.0778 76.0317 51.0716H76.0319ZM69.8862 61.7088C68.5915 59.565 67.3992 59.0543 65.4419 60.0191C65.0767 60.1991 64.6283 59.9499 64.6248 59.5428C64.6241 58.7112 64.626 57.8794 64.6279 57.0475C64.6325 55.0635 64.637 53.079 64.6067 51.0956C64.5819 49.4587 63.3654 48.2128 61.8099 48.0862C60.2792 47.9619 58.8886 49.0449 58.5947 50.6321C58.493 51.1816 58.459 51.7491 58.4568 52.3098C58.4486 54.7402 58.4499 57.1706 58.4513 59.601C58.4518 60.5124 58.4523 61.4237 58.4523 62.3351C58.4523 62.8657 58.4529 63.3962 58.4536 63.9268C58.4553 65.3859 58.4571 66.845 58.4455 68.3042C58.445 68.3968 58.4546 68.4976 58.4644 68.6003C58.4965 68.9364 58.5306 69.2929 58.2171 69.4505C57.8762 69.6226 57.6662 69.3574 57.4656 69.1042L57.4656 69.1041C57.3949 69.0148 57.3254 68.927 57.2517 68.8604C56.9067 68.5468 56.5752 68.2181 56.2435 67.8894C55.8817 67.5308 55.5197 67.172 55.1399 66.8322C53.6838 65.5299 51.8773 65.4666 50.6789 66.6401C49.4286 67.8633 49.3766 69.5748 50.6314 71.1033L51.1199 71.6987C53.4575 74.5486 55.7962 77.3998 58.2081 80.1857C59.7682 81.9878 61.7556 83.1658 64.141 83.6157C66.7841 84.1131 69.4362 84.0543 72.102 83.8486C76.8229 83.4823 80.8023 79.2994 80.8588 74.5626C80.8905 71.7861 80.8815 69.0073 80.8634 66.2286C80.843 63.3141 78.5843 61.9914 76.0316 63.4L75.9986 63.4185C75.6692 63.6028 75.5191 63.6868 75.2651 63.2598C73.9492 61.035 72.8006 60.6981 70.5667 61.8716C70.2163 62.057 70.0987 62.0593 69.8862 61.7088ZM79.7279 27.3302C81.1162 27.4139 82.4864 28.2233 83.2913 29.8354C84.1188 31.4927 83.9786 33.1365 82.8368 34.5971C81.738 36.0035 80.2276 36.6976 78.4686 36.2363C77.3788 35.9515 76.7389 36.2612 76.0267 37.0119C74.6581 38.4542 73.2414 39.8514 71.8244 41.2489C71.5044 41.5645 71.1843 41.8802 70.8648 42.1964C69.9287 43.1211 69.1962 43.2296 68.5247 42.5852C67.8464 41.9341 67.9436 41.0274 68.8367 40.1434C70.6794 38.3255 72.5266 36.5122 74.3988 34.726C74.9391 34.2082 75.1268 33.7379 74.912 32.9534C74.1093 30.0367 76.2957 27.2963 79.7279 27.3302ZM44.7969 50.9012C45.1375 50.8956 45.4781 50.89 45.8185 50.8899C45.8217 50.8899 45.8233 50.8945 45.8265 50.8945C46.2355 50.8945 46.6444 50.8935 47.0534 50.8925C48.0349 50.8902 49.0165 50.8878 49.9981 50.899C50.5113 50.9058 50.9794 50.8357 51.3185 50.4151C51.6735 49.9765 51.8159 49.4926 51.5446 48.9523C51.219 48.3011 50.6583 48.0727 49.9687 48.0727C49.2582 48.0721 48.5477 48.0675 47.8373 48.0629C46.0291 48.0512 44.2213 48.0395 42.4147 48.0931C41.3633 48.1247 40.728 47.8444 40.1491 46.9106C39.0412 45.1221 36.9656 44.5117 35.0121 45.19C33.1378 45.8411 31.9349 47.6115 32.0027 49.6238C32.0683 51.5683 33.348 53.2165 35.2382 53.7863C37.1397 54.3606 39.1159 53.7501 40.1627 52.034C40.7438 51.0821 41.4063 50.7995 42.4418 50.8719C43.2246 50.927 44.0106 50.9141 44.7969 50.9012Z" fill="url(#paint2_linear)"/>
</g>
</g>
<defs>
<filter id="filter0_d" x="-2" y="14" width="76" height="76" filterUnits="userSpaceOnUse" color-interpolation-filters="sRGB">
<feFlood flood-opacity="0" result="BackgroundImageFix"/>
<feColorMatrix in="SourceAlpha" type="matrix" values="0 0 0 0 0 0 0 0 0 0 0 0 0 0 0 0 0 0 127 0"/>
<feOffset dx="-2" dy="2"/>
<feGaussianBlur stdDeviation="2"/>
<feColorMatrix type="matrix" values="0 0 0 0 0 0 0 0 0 0 0 0 0 0 0 0 0 0 0.25 0"/>
<feBlend mode="normal" in2="BackgroundImageFix" result="effect1_dropShadow"/>
<feBlend mode="normal" in="SourceGraphic" in2="effect1_dropShadow" result="shape"/>
</filter>
<filter id="filter1_d" x="6.00195" y="10" width="72" height="72" filterUnits="userSpaceOnUse" color-interpolation-filters="sRGB">
<feFlood flood-opacity="0" result="BackgroundImageFix"/>
<feColorMatrix in="SourceAlpha" type="matrix" values="0 0 0 0 0 0 0 0 0 0 0 0 0 0 0 0 0 0 127 0"/>
<feOffset dx="-2" dy="2"/>
<feGaussianBlur stdDeviation="2"/>
<feColorMatrix type="matrix" values="0 0 0 0 0 0 0 0 0 0 0 0 0 0 0 0 0 0 0.25 0"/>
<feBlend mode="normal" in2="BackgroundImageFix" result="effect1_dropShadow"/>
<feBlend mode="normal" in="SourceGraphic" in2="effect1_dropShadow" result="shape"/>
</filter>
<filter id="filter2_d" x="28" y="20" width="63.0247" height="68" filterUnits="userSpaceOnUse" color-interpolation-filters="sRGB">
<feFlood flood-opacity="0" result="BackgroundImageFix"/>
<feColorMatrix in="SourceAlpha" type="matrix" values="0 0 0 0 0 0 0 0 0 0 0 0 0 0 0 0 0 0 127 0"/>
<feOffset dx="-2" dy="2"/>
<feGaussianBlur stdDeviation="1"/>
<feColorMatrix type="matrix" values="0 0 0 0 0 0 0 0 0 0 0 0 0 0 0 0 0 0 0.25 0"/>
<feBlend mode="normal" in2="BackgroundImageFix" result="effect1_dropShadow"/>
<feBlend mode="normal" in="SourceGraphic" in2="effect1_dropShadow" result="shape"/>
</filter>
<linearGradient id="paint0_linear" x1="72" y1="16" x2="4" y2="84" gradientUnits="userSpaceOnUse">
<stop stop-color="#153A55"/>
<stop offset="1" stop-color="#0F2A3D"/>
</linearGradient>
<linearGradient id="paint1_linear" x1="76.002" y1="12" x2="12.002" y2="76" gradientUnits="userSpaceOnUse">
<stop stop-color="#153A55"/>
<stop offset="1" stop-color="#0F2A3D"/>
</linearGradient>
<linearGradient id="paint2_linear" x1="91.0247" y1="20" x2="23.6457" y2="30.5269" gradientUnits="userSpaceOnUse">
<stop stop-color="#19EE94"/>
<stop offset="1" stop-color="#04B375"/>
</linearGradient>
<clipPath id="clip0">
<rect width="96" height="96" fill="white"/>
</clipPath>
</defs>
</svg>
