<svg width="128" height="128" viewBox="0 0 128 128" fill="none" xmlns="http://www.w3.org/2000/svg">
<path opacity="0.25" fill-rule="evenodd" clip-rule="evenodd" d="M64 128C99.3462 128 128 99.3462 128 64C128 28.6538 99.3462 0 64 0C28.6538 0 0 28.6538 0 64C0 99.3462 28.6538 128 64 128Z" fill="#FC2D5A"/>
<path opacity="0.25" fill-rule="evenodd" clip-rule="evenodd" d="M64 112C90.5097 112 112 90.5097 112 64C112 37.4903 90.5097 16 64 16C37.4903 16 16 37.4903 16 64C16 90.5097 37.4903 112 64 112Z" fill="#FC2D5A"/>
<path fill-rule="evenodd" clip-rule="evenodd" d="M92.818 64.7148C92.818 80.6874 79.8697 93.6358 63.8971 93.6358C47.9244 93.6358 34.9761 80.6874 34.9761 64.7148C34.9761 48.7422 47.9244 35.7938 63.8971 35.7938C79.8697 35.7938 92.818 48.7422 92.818 64.7148ZM95.7101 64.7148C95.7101 82.2847 81.4669 96.5279 63.8971 96.5279C46.3272 96.5279 32.084 82.2847 32.084 64.7148C32.084 47.1449 46.3272 32.9017 63.8971 32.9017C81.4669 32.9017 95.7101 47.1449 95.7101 64.7148ZM63.8971 79.1756C71.8834 79.1756 78.3576 72.7014 78.3576 64.7151C78.3576 56.7288 71.8834 50.2546 63.8971 50.2546C55.9108 50.2546 49.4366 56.7288 49.4366 64.7151C49.4366 72.7014 55.9108 79.1756 63.8971 79.1756Z" fill="#FC2D5A"/>
</svg>
