<svg width="96" height="96" viewBox="0 0 96 96" fill="none" xmlns="http://www.w3.org/2000/svg">
<g clip-path="url(#clip0)">
<g filter="url(#filter0_d)">
<path fill-rule="evenodd" clip-rule="evenodd" d="M10 16H66C69.3137 16 72 18.6863 72 22V78C72 81.3137 69.3137 84 66 84H10C6.68629 84 4 81.3137 4 78V22C4 18.6863 6.68629 16 10 16ZM10 18C7.79086 18 6 19.7909 6 22V78C6 80.2091 7.79086 82 10 82H66C68.2091 82 70 80.2091 70 78V22C70 19.7909 68.2091 18 66 18H10Z" fill="url(#paint0_linear)"/>
</g>
<g filter="url(#filter1_d)">
<rect x="12.002" y="12" width="64" height="64" rx="4" fill="url(#paint1_linear)"/>
</g>
<g filter="url(#filter2_d)">
<path fill-rule="evenodd" clip-rule="evenodd" d="M70.0962 28.0007C67.3696 28.0011 64.643 28.0015 61.9165 28.0015L56.2358 28.0013C48.662 28.0009 41.0887 28.0006 33.5126 28.006C32.9102 28.006 32.2987 28.0265 31.7054 28.1265C29.4481 28.5039 28.0227 30.1679 28.0205 32.4479C28.017 37.2507 28.0162 42.0535 28.0154 46.8565C28.014 54.6611 28.0127 62.4661 28 70.272C27.9977 71.0563 28.241 71.62 28.8366 72.1361C29.7964 72.9673 30.7405 73.8163 31.6849 74.6656L31.6849 74.6657L31.685 74.6658C32.4271 75.3331 33.1693 76.0006 33.9195 76.6598C34.4173 77.0962 34.6265 77.5986 34.6151 78.2487C34.5983 79.2518 34.6026 80.256 34.6069 81.2606C34.6084 81.6153 34.6099 81.9699 34.6105 82.3246C34.6151 83.9454 34.6537 83.9977 36.2427 83.9977H36.2674H36.2691H36.2708C54.5541 84 72.835 84.0023 91.116 83.9955C93.8711 83.9932 95.6852 82.1996 95.6874 79.4717C95.6923 68.3247 95.6914 57.1765 95.6904 46.0289V45.9851V45.9849V45.9847C95.6901 41.52 95.6897 37.0555 95.6897 32.5911C95.6897 32.0615 95.6715 31.5432 95.4783 31.0317C94.6986 28.9653 93.1755 28.006 90.5454 28.0038C83.729 27.9989 76.9126 27.9998 70.0962 28.0007ZM56.2945 33.4051L56.3059 33.4051C58.1251 33.4049 59.9686 33.4047 61.8528 33.4047C71.0957 33.4047 79.3409 33.4047 88.5816 33.4024C90.2433 33.4024 90.2501 33.4047 90.2501 35.0073C90.2524 49.6582 90.2524 62.3091 90.2501 76.9601C90.2501 78.5922 90.2455 78.5945 88.6111 78.5945C84.6479 78.5951 80.8019 78.5947 77.0165 78.5943H76.9982H76.9799C65.148 78.5931 53.9053 78.592 41.5164 78.6195C40.3729 78.6218 39.866 78.3194 40.0683 77.1646C40.4078 75.2411 39.7026 74.7008 38.2843 73.6141L38.2834 73.6134L38.2819 73.6123C38.1908 73.5424 38.0967 73.4703 37.9997 73.3954C37.1995 72.778 36.455 72.0889 35.7102 71.3995C35.2319 70.9569 34.7536 70.5141 34.2602 70.0902C33.7374 69.6401 33.4487 69.1627 33.4487 68.4466C33.4623 56.8168 33.4692 46.187 33.4419 34.5572C33.4396 33.4252 34.0557 33.3933 34.8967 33.3956C42.3262 33.4065 49.1213 33.4058 56.2937 33.4051H56.2945ZM55.0341 67.988C57.446 67.9877 59.8579 67.9875 62.2698 67.9875C64.2507 67.9875 66.2314 67.9886 68.2121 67.9897H68.2154H68.2155C73.1662 67.9925 78.1168 67.9953 83.0698 67.9807C83.4484 67.9795 83.7729 67.986 84.0511 67.9916H84.0512C84.85 68.0077 85.2664 68.0161 85.4824 67.8122C85.7175 67.5902 85.715 67.1165 85.7099 66.127V66.1268C85.7086 65.8867 85.7072 65.6164 85.709 65.3119C85.7181 63.557 85.7067 63.5524 83.9699 63.5524C81.4144 63.552 78.8589 63.5515 76.3034 63.5509C64.8036 63.5484 53.3038 63.5458 41.804 63.557C41.4289 63.5575 41.1036 63.5525 40.8215 63.5482C39.8839 63.5339 39.424 63.5269 39.2015 63.7532C38.9874 63.971 38.9931 64.4048 39.0044 65.2562C39.0086 65.5766 39.0136 65.956 39.0079 66.4053C38.9897 67.9807 39.0125 67.9875 40.5628 67.9875C45.3866 67.989 50.2104 67.9885 55.0341 67.988ZM55.8521 47.9558C55.8521 47.0275 55.8513 46.0994 55.8506 45.1714V45.17C55.8488 42.851 55.8469 40.5324 55.8566 38.2127C55.8612 36.9875 56.018 36.8965 57.0569 37.4898C59.155 38.6886 61.2519 39.8896 63.3487 41.0905L63.3533 41.0931C66.9687 43.1638 70.5842 45.2345 74.2061 47.2942C74.9926 47.7421 75.0244 48.0353 74.222 48.4945C70.9851 50.3498 67.7532 52.2124 64.5216 54.0748C62.0158 55.5189 59.5102 56.9629 57.0023 58.4035C56.043 58.9536 55.8612 58.8422 55.8566 57.6965C55.8469 55.378 55.8487 53.0595 55.8506 50.7402L55.8506 50.7335C55.8514 49.8077 55.8521 48.8818 55.8521 47.9558ZM58.5983 75.203C59.8159 75.2051 61.0335 75.2071 62.2511 75.2071C63.4348 75.2071 64.6182 75.2099 65.8017 75.2127C68.5909 75.2194 71.3797 75.226 74.1696 75.1957C75.9306 75.1776 76.6884 75.338 77.0158 75.0344C77.3438 74.7302 77.2395 73.9599 77.2793 72.0769C77.3021 71.0244 76.8929 70.7379 75.8745 70.7425C66.868 70.7743 57.8638 70.7766 48.8595 70.7425C47.8048 70.7402 47.2955 71.013 47.416 72.1337C47.4774 72.6929 47.4774 73.2703 47.416 73.8295C47.2933 74.9479 47.7979 75.2366 48.8573 75.2253C52.1043 75.1922 55.3513 75.1976 58.5983 75.203Z" fill="url(#paint2_linear)"/>
</g>
</g>
<defs>
<filter id="filter0_d" x="-2" y="14" width="76" height="76" filterUnits="userSpaceOnUse" color-interpolation-filters="sRGB">
<feFlood flood-opacity="0" result="BackgroundImageFix"/>
<feColorMatrix in="SourceAlpha" type="matrix" values="0 0 0 0 0 0 0 0 0 0 0 0 0 0 0 0 0 0 127 0"/>
<feOffset dx="-2" dy="2"/>
<feGaussianBlur stdDeviation="2"/>
<feColorMatrix type="matrix" values="0 0 0 0 0 0 0 0 0 0 0 0 0 0 0 0 0 0 0.25 0"/>
<feBlend mode="normal" in2="BackgroundImageFix" result="effect1_dropShadow"/>
<feBlend mode="normal" in="SourceGraphic" in2="effect1_dropShadow" result="shape"/>
</filter>
<filter id="filter1_d" x="6.00195" y="10" width="72" height="72" filterUnits="userSpaceOnUse" color-interpolation-filters="sRGB">
<feFlood flood-opacity="0" result="BackgroundImageFix"/>
<feColorMatrix in="SourceAlpha" type="matrix" values="0 0 0 0 0 0 0 0 0 0 0 0 0 0 0 0 0 0 127 0"/>
<feOffset dx="-2" dy="2"/>
<feGaussianBlur stdDeviation="2"/>
<feColorMatrix type="matrix" values="0 0 0 0 0 0 0 0 0 0 0 0 0 0 0 0 0 0 0.25 0"/>
<feBlend mode="normal" in2="BackgroundImageFix" result="effect1_dropShadow"/>
<feBlend mode="normal" in="SourceGraphic" in2="effect1_dropShadow" result="shape"/>
</filter>
<filter id="filter2_d" x="24" y="28" width="71.6912" height="60" filterUnits="userSpaceOnUse" color-interpolation-filters="sRGB">
<feFlood flood-opacity="0" result="BackgroundImageFix"/>
<feColorMatrix in="SourceAlpha" type="matrix" values="0 0 0 0 0 0 0 0 0 0 0 0 0 0 0 0 0 0 127 0"/>
<feOffset dx="-2" dy="2"/>
<feGaussianBlur stdDeviation="1"/>
<feColorMatrix type="matrix" values="0 0 0 0 0 0 0 0 0 0 0 0 0 0 0 0 0 0 0.25 0"/>
<feBlend mode="normal" in2="BackgroundImageFix" result="effect1_dropShadow"/>
<feBlend mode="normal" in="SourceGraphic" in2="effect1_dropShadow" result="shape"/>
</filter>
<linearGradient id="paint0_linear" x1="72" y1="16" x2="4" y2="84" gradientUnits="userSpaceOnUse">
<stop stop-color="#153A55"/>
<stop offset="1" stop-color="#0F2A3D"/>
</linearGradient>
<linearGradient id="paint1_linear" x1="76.002" y1="12" x2="12.002" y2="76" gradientUnits="userSpaceOnUse">
<stop stop-color="#153A55"/>
<stop offset="1" stop-color="#0F2A3D"/>
</linearGradient>
<linearGradient id="paint2_linear" x1="100.99" y1="27.9997" x2="61.0098" y2="35.5007" gradientUnits="userSpaceOnUse">
<stop stop-color="#8DE3FF"/>
<stop offset="1" stop-color="#00BEFB"/>
</linearGradient>
<clipPath id="clip0">
<rect width="96" height="96" fill="white"/>
</clipPath>
</defs>
</svg>
