<svg width="96" height="96" viewBox="0 0 96 96" fill="none" xmlns="http://www.w3.org/2000/svg">
<g clip-path="url(#clip0)">
<g filter="url(#filter0_d)">
<path fill-rule="evenodd" clip-rule="evenodd" d="M10 16H66C69.3137 16 72 18.6863 72 22V78C72 81.3137 69.3137 84 66 84H10C6.68629 84 4 81.3137 4 78V22C4 18.6863 6.68629 16 10 16ZM10 18C7.79086 18 6 19.7909 6 22V78C6 80.2091 7.79086 82 10 82H66C68.2091 82 70 80.2091 70 78V22C70 19.7909 68.2091 18 66 18H10Z" fill="url(#paint0_linear)"/>
</g>
<g filter="url(#filter1_d)">
<rect x="12.002" y="12" width="64" height="64" rx="4" fill="url(#paint1_linear)"/>
</g>
<g filter="url(#filter2_d)">
<path fill-rule="evenodd" clip-rule="evenodd" d="M40.8363 65.8887C40.1754 68.2268 39.955 70.642 39.8173 73.0049C39.8862 75.1833 40.1258 77.2625 41.0125 79.2095C42.3537 82.1617 45.2261 83.6929 48.4013 83.1641C52.8021 82.4316 56.1867 79.8787 59.3179 76.9485C60.2019 76.1223 60.7582 76.048 61.5128 76.9485C61.7427 77.2218 62.0238 77.4524 62.3038 77.682C62.3793 77.7439 62.4547 77.8057 62.529 77.8683C65.0654 79.9971 67.7064 81.9496 70.9643 82.8502C75.8911 84.2134 79.6006 81.9276 80.603 76.9017C81.3631 73.0985 80.8922 69.3422 79.9696 65.6409C79.675 64.4539 79.9889 63.994 81.0822 63.6663C83.7232 62.8732 86.2238 61.7413 88.4765 60.133C94.4938 55.8341 94.4388 50.1032 88.3581 45.8925C86.1219 44.3448 83.6489 43.2735 81.0795 42.4198C80.2037 42.1306 79.9751 41.6927 80.1762 40.7867C80.8206 37.8813 81.118 34.9539 80.8977 31.9521C80.424 25.5189 75.847 22.4868 69.8021 24.7396C66.569 25.943 63.8977 28.0305 61.4192 30.3521C60.5957 31.1232 60.1524 31.1149 59.3372 30.3383C56.7044 27.8295 53.8073 25.6676 50.2905 24.5358C45.3307 22.9385 41.5496 25.1141 40.3433 30.1675C39.5034 33.6871 39.9495 37.1708 40.7041 40.6187C40.9657 41.8194 40.6132 42.2187 39.5475 42.5575C36.923 43.3892 34.4307 44.5403 32.2 46.1844C30.5972 47.3658 29.2285 48.7676 28.4739 50.6595C27.298 53.6062 28.3307 56.7264 31.3463 59.26C33.7642 61.2952 36.5594 62.6666 39.5612 63.5451C40.9823 63.961 41.2026 64.5944 40.8363 65.8887ZM60.4388 63.4212V63.4157C59.9776 63.4157 59.5165 63.4145 59.0554 63.4133C57.8258 63.41 56.5965 63.4067 55.3688 63.4267C54.504 63.4377 53.912 63.099 53.4438 62.3692C51.8382 59.8659 50.3676 57.2882 49.043 54.6279C48.707 53.956 48.7015 53.3556 49.0375 52.6782C50.6017 49.5194 52.3918 46.4956 54.3471 43.5654C54.7436 42.9678 55.2283 42.753 55.9333 42.7089C58.9461 42.5217 61.9534 42.4914 64.9662 42.7089C65.6712 42.7585 66.1559 42.9926 66.5525 43.5792C68.5243 46.5011 70.2813 49.5442 71.8868 52.6782C72.2393 53.3666 72.1788 53.9615 71.8318 54.6169C70.4438 57.2414 68.998 59.8329 67.4062 62.3444C66.9077 63.1321 66.2936 63.457 65.3738 63.4322C64.2184 63.4032 63.0617 63.4095 61.9055 63.4159C61.4164 63.4185 60.9275 63.4212 60.4388 63.4212ZM76.9128 66.0622C77.5324 68.4637 77.7362 70.9147 77.9152 73.4978C77.8511 73.8834 77.8103 74.2875 77.7685 74.7014C77.6918 75.4611 77.6117 76.2537 77.3782 77.0256C76.6098 79.584 74.8308 80.647 72.2449 79.9861C68.6207 79.0608 65.8502 76.7557 63.1899 74.2855C62.7686 73.8917 62.7989 73.5336 63.1762 73.1123C64.9497 71.1405 66.5855 69.0558 68.125 66.8994C68.516 66.3486 69.0833 66.1917 69.6672 66.1393C71.672 65.9603 73.6466 65.5886 75.6074 65.17C76.4694 64.9855 76.7172 65.3049 76.9128 66.0622ZM43.7582 77.5819C43.1771 76.1141 43.0642 74.5691 42.9816 72.9663C43.1854 70.6943 43.436 68.3893 43.9895 66.1173C44.2236 65.1562 44.6422 65.0075 45.5345 65.203C47.4044 65.6106 49.2881 65.9686 51.2048 66.1256C51.9043 66.1834 52.4882 66.445 52.926 67.0839C54.3471 69.1604 55.9168 71.124 57.616 72.9774C57.9933 73.3877 58.2549 73.7485 57.7096 74.2331C54.8979 76.731 52.0558 79.1792 48.2278 79.9944C46.1211 80.4433 44.5486 79.5813 43.7582 77.5819ZM43.7527 40.1753C43.3286 38.1594 43.0863 36.1298 42.9871 34.2847C43.0174 32.5635 43.1826 31.0681 43.7444 29.6498C44.5266 27.6697 46.1872 26.7664 48.2334 27.2126C52.0503 28.0443 54.9144 30.4512 57.7014 32.9821C58.164 33.4034 57.996 33.7559 57.6711 34.1552C56.2831 35.8489 54.9034 37.5481 53.5319 39.2555C53.2565 39.597 52.9481 39.7898 52.4992 39.8283C49.9986 40.0459 47.5256 40.47 45.0746 41.0015C44.2649 41.1777 43.929 41.0125 43.7527 40.1753ZM77.7502 34.2066C77.7501 34.2896 77.75 34.3725 77.75 34.4554C77.8023 36.3446 77.4856 38.187 77.1303 40.0321C76.9733 40.8583 76.6759 41.1915 75.7478 40.985C73.2941 40.4397 70.8156 40.0128 68.3067 39.8256C67.7312 39.7815 67.4227 39.44 67.1005 39.0352L67.0999 39.0344C65.8471 37.4622 64.5942 35.89 63.3111 34.3397C62.9201 33.8633 62.6557 33.4805 63.234 32.9545C65.8888 30.5448 68.6069 28.2343 72.1898 27.3145C74.7564 26.6535 76.4694 27.6147 77.3066 30.1125C77.7534 31.4477 77.7518 32.8271 77.7502 34.2066ZM87.4162 49.0788C88.9419 50.2767 89.7764 51.7088 89.7764 53.0609C89.8287 54.4159 89.1099 55.4293 88.2121 56.2913C85.7419 58.6652 82.6492 59.8989 79.4574 60.9344C78.8873 61.1217 78.634 60.8546 78.4412 60.3533C77.6921 58.3953 76.9293 56.4373 76.1417 54.493C75.9021 53.9009 75.9076 53.3666 76.1664 52.7828C77.1276 50.61 78.0088 48.4068 78.7166 46.1376C78.9479 45.4023 79.2894 45.0883 80.1211 45.3802C82.7208 46.289 85.2296 47.3631 87.4162 49.0788ZM33.0206 56.5612C31.9879 55.6304 31.1425 54.5481 31.17 53.0334C31.2003 51.4857 32.0705 50.3814 33.1528 49.4313C35.3945 47.4677 38.0851 46.3359 40.8638 45.3775C41.5358 45.1462 41.8966 45.3417 42.1114 45.9916C42.8962 48.3765 43.805 50.7174 44.8433 53.0059C45.0581 53.4768 44.9259 53.8816 44.7524 54.3167C43.9758 56.2665 43.2019 58.2191 42.4529 60.1798C42.2188 60.794 41.8938 61.0694 41.2136 60.8463C38.2449 59.8687 35.3808 58.6845 33.0206 56.5612ZM59.1922 70.0798C58.285 69.0452 57.3544 67.9837 56.5475 66.6295C57.2394 66.6295 57.9134 66.6289 58.5746 66.6283C60.2925 66.6267 61.9236 66.6251 63.5562 66.6351C64.1455 66.6378 64.1455 66.9765 63.8454 67.3428C62.8677 68.5408 61.8708 69.725 60.8739 70.9092C60.5985 71.2369 60.268 71.3305 59.9541 70.9587C59.7042 70.6639 59.4491 70.3729 59.1922 70.0798ZM75.7919 44.89C75.3045 46.4791 74.7757 48.0516 73.9578 49.7535C73.7245 49.3641 73.4955 48.9823 73.2701 48.6064C72.2982 46.986 71.3936 45.4776 70.5016 43.962C70.1271 43.3258 70.587 43.2349 71.0386 43.3093C71.9599 43.4634 72.8789 43.6381 73.7977 43.8127C74.3072 43.9095 74.8167 44.0063 75.3265 44.0997C75.8029 44.185 75.9213 44.4659 75.7919 44.89ZM45.4078 44.174C47.0657 43.7554 48.7373 43.4139 50.6926 43.2597C49.357 45.551 48.1562 47.6082 46.8812 49.792C46.1591 48.3177 45.6944 46.8893 45.2331 45.4711C45.1895 45.337 45.1459 45.203 45.1021 45.069C44.9782 44.6835 44.9397 44.2924 45.4078 44.174ZM72.0087 62.6368C71.7079 62.6787 71.3817 62.7242 70.9147 62.7906C71.1596 62.3545 71.398 61.9306 71.6314 61.5156C72.2722 60.3762 72.8756 59.3032 73.4731 58.2273C73.7953 57.6435 74.0349 57.6077 74.3764 58.2438C76.1664 61.5706 75.9076 62.1048 72.1898 62.6116C72.1298 62.6199 72.0698 62.6283 72.0087 62.6368ZM48.2317 59.7161C48.7944 60.6977 49.3573 61.6796 49.9656 62.741C49.7027 62.7118 49.4701 62.6919 49.258 62.6737C48.8701 62.6405 48.5504 62.6131 48.2389 62.5455C46.4969 62.1649 45.6663 62.1717 45.445 61.808C45.2308 61.4557 45.5879 60.7559 46.2423 59.0204C46.3575 58.7114 46.4848 58.4061 46.6412 58.031C46.7203 57.8412 46.807 57.6335 46.9032 57.3984C47.36 58.1954 47.7958 58.9557 48.2317 59.7161ZM62.7953 38.5389C63.0714 38.8664 63.3627 39.2118 63.6746 39.5832C61.3723 39.2665 59.4887 39.3657 57.2938 39.5116C57.5715 39.1777 57.8346 38.8617 58.0871 38.5584C58.7384 37.7761 59.3187 37.079 59.8962 36.3804C60.2735 35.9233 60.6205 35.9288 61.0033 36.3942C61.5658 37.0807 62.1378 37.7591 62.7953 38.5389ZM53.2842 53.6366C53.2897 57.5003 56.6219 60.8271 60.4829 60.8243C64.344 60.8216 67.6762 57.4838 67.6707 53.6256C67.6652 49.7618 64.3302 46.4351 60.4692 46.4406C56.6082 46.4461 53.2814 49.7756 53.2842 53.6366Z" fill="url(#paint2_linear)"/>
</g>
</g>
<defs>
<filter id="filter0_d" x="-2" y="14" width="76" height="76" filterUnits="userSpaceOnUse" color-interpolation-filters="sRGB">
<feFlood flood-opacity="0" result="BackgroundImageFix"/>
<feColorMatrix in="SourceAlpha" type="matrix" values="0 0 0 0 0 0 0 0 0 0 0 0 0 0 0 0 0 0 127 0"/>
<feOffset dx="-2" dy="2"/>
<feGaussianBlur stdDeviation="2"/>
<feColorMatrix type="matrix" values="0 0 0 0 0 0 0 0 0 0 0 0 0 0 0 0 0 0 0.25 0"/>
<feBlend mode="normal" in2="BackgroundImageFix" result="effect1_dropShadow"/>
<feBlend mode="normal" in="SourceGraphic" in2="effect1_dropShadow" result="shape"/>
</filter>
<filter id="filter1_d" x="6.00195" y="10" width="72" height="72" filterUnits="userSpaceOnUse" color-interpolation-filters="sRGB">
<feFlood flood-opacity="0" result="BackgroundImageFix"/>
<feColorMatrix in="SourceAlpha" type="matrix" values="0 0 0 0 0 0 0 0 0 0 0 0 0 0 0 0 0 0 127 0"/>
<feOffset dx="-2" dy="2"/>
<feGaussianBlur stdDeviation="2"/>
<feColorMatrix type="matrix" values="0 0 0 0 0 0 0 0 0 0 0 0 0 0 0 0 0 0 0.25 0"/>
<feBlend mode="normal" in2="BackgroundImageFix" result="effect1_dropShadow"/>
<feBlend mode="normal" in="SourceGraphic" in2="effect1_dropShadow" result="shape"/>
</filter>
<filter id="filter2_d" x="24" y="24" width="68.9543" height="63.2673" filterUnits="userSpaceOnUse" color-interpolation-filters="sRGB">
<feFlood flood-opacity="0" result="BackgroundImageFix"/>
<feColorMatrix in="SourceAlpha" type="matrix" values="0 0 0 0 0 0 0 0 0 0 0 0 0 0 0 0 0 0 127 0"/>
<feOffset dx="-2" dy="2"/>
<feGaussianBlur stdDeviation="1"/>
<feColorMatrix type="matrix" values="0 0 0 0 0 0 0 0 0 0 0 0 0 0 0 0 0 0 0.25 0"/>
<feBlend mode="normal" in2="BackgroundImageFix" result="effect1_dropShadow"/>
<feBlend mode="normal" in="SourceGraphic" in2="effect1_dropShadow" result="shape"/>
</filter>
<linearGradient id="paint0_linear" x1="72" y1="16" x2="4" y2="84" gradientUnits="userSpaceOnUse">
<stop stop-color="#153A55"/>
<stop offset="1" stop-color="#0F2A3D"/>
</linearGradient>
<linearGradient id="paint1_linear" x1="76.002" y1="12" x2="12.002" y2="76" gradientUnits="userSpaceOnUse">
<stop stop-color="#153A55"/>
<stop offset="1" stop-color="#0F2A3D"/>
</linearGradient>
<linearGradient id="paint2_linear" x1="98.0386" y1="23.9997" x2="59.4416" y2="30.5654" gradientUnits="userSpaceOnUse">
<stop stop-color="#8DE3FF"/>
<stop offset="1" stop-color="#00BEFB"/>
</linearGradient>
<clipPath id="clip0">
<rect width="96" height="96" fill="white"/>
</clipPath>
</defs>
</svg>
