<svg width="64" height="64" viewBox="0 0 64 64" fill="none" xmlns="http://www.w3.org/2000/svg">
<path d="M20.3764 15.6455L20.3763 15.6455L20.3764 15.6455ZM20.6303 48.6293L20.6308 48.6288C21.6309 47.5928 22.6277 46.5477 23.6235 45.5039C24.3888 44.7016 25.1534 43.9 25.9183 43.1038C27.6786 41.2716 29.4409 39.443 31.2038 37.6139C32.5233 36.2448 33.8431 34.8755 35.1624 33.5041L35.1694 33.4969C35.3302 33.33 35.4791 33.1754 35.584 33.038C35.6895 32.8998 35.815 32.6989 35.8123 32.4403C35.8097 32.1835 35.6817 31.9854 35.5766 31.85C35.4755 31.7197 35.3336 31.5726 35.181 31.4142L35.1564 31.3887C35.1564 31.3887 35.1564 31.3887 35.1564 31.3886C34.0148 30.2032 32.8735 29.0173 31.7322 27.8314C28.0594 24.0151 24.3862 20.1983 20.7003 16.3936L20.6999 16.3932C20.6104 16.301 20.5648 16.2396 20.5429 16.2017C20.543 16.2016 20.5431 16.2014 20.5432 16.2012C20.5693 16.1617 20.6207 16.1013 20.7173 16.0111L20.7173 16.0111C22.248 14.5837 23.753 13.1291 25.2409 11.6594L25.2411 11.6592C25.3268 11.5745 25.3844 11.5308 25.4208 11.5094C25.4212 11.5092 25.4217 11.5089 25.4221 11.5087C25.4546 11.5286 25.5085 11.5705 25.5882 11.6536C29.971 16.2469 34.3645 20.8316 38.7563 25.4147C39.5027 26.1936 40.2491 26.9724 40.9954 27.7513L40.9955 27.7514C41.3433 28.1142 41.691 28.4782 42.0392 28.8427C43.1333 29.988 44.2312 31.1374 45.3476 32.2655L45.3476 32.2655C45.4323 32.3511 45.4733 32.4076 45.4921 32.4411C45.4928 32.4424 45.4935 32.4435 45.4941 32.4446C45.4927 32.4473 45.4911 32.4503 45.4892 32.4536C45.4678 32.4907 45.4247 32.5488 45.3416 32.635L45.3412 32.6354C40.7675 37.3883 36.2071 42.1545 31.6479 46.9194L30.9788 47.6187C30.9788 47.6187 30.9788 47.6187 30.9788 47.6187C30.0067 48.6343 29.0351 49.6547 28.0643 50.6743C27.2598 51.5193 26.4557 52.3638 25.6524 53.2045C25.6153 53.2431 25.5775 53.2852 25.5464 53.3198C25.5375 53.3297 25.5291 53.339 25.5215 53.3475C25.483 53.39 25.4531 53.4216 25.425 53.448C25.4108 53.434 25.3973 53.4202 25.3792 53.4019C25.3618 53.3844 25.3411 53.3637 25.3191 53.3426C24.8138 52.8576 24.3088 52.3702 23.8032 51.8821C22.7362 50.8522 21.6666 49.8197 20.5859 48.803C20.5608 48.7794 20.5419 48.7597 20.5279 48.7438C20.5504 48.7151 20.5831 48.678 20.6303 48.6293Z" stroke="white"/>
<path d="M25.0357 49C24.8306 49 24.7172 48.8502 24.5904 48.7309C23.1356 47.3591 21.6929 45.974 20.2245 44.6167C19.8777 44.2959 19.9695 44.0984 20.2502 43.8135C21.8845 42.15 23.4999 40.4707 25.1302 38.8032C27.971 35.8978 30.82 33.0004 33.6635 30.0963C34.2964 29.4508 34.2883 29.4495 33.6581 28.8066C29.2126 24.2709 24.7739 19.7299 20.315 15.2074C19.9155 14.8032 19.9452 14.5818 20.3474 14.2133C21.7563 12.9223 23.1423 11.6061 24.5135 10.2754C24.8832 9.91619 25.1208 9.89896 25.4919 10.2794C30.2248 15.1531 34.9712 20.0162 39.7136 24.8793C41.0469 26.2458 42.3709 27.623 43.7258 28.9683C44.0997 29.3395 44.0835 29.5714 43.7245 29.9372C39.2966 34.4584 34.8821 38.9928 30.4677 43.5259C28.8253 45.2118 27.191 46.9058 25.5513 48.5918C25.3988 48.7482 25.2665 48.9364 25.0357 49Z" fill="white"/>
</svg>
