<svg width="52" height="66" viewBox="0 0 52 66" fill="none" xmlns="http://www.w3.org/2000/svg">
<g filter="url(#filter0_d)">
<path d="M16.5678 41.9591L16.5674 41.9596C16.5669 41.96 16.5665 41.9605 16.566 41.961C17.3854 42.7306 18.197 43.5122 19.006 44.2913C19.3946 44.6655 19.7826 45.0392 20.1706 45.4107L16.5678 41.9591ZM16.5678 41.9591C17.3371 41.164 18.1047 40.3613 18.8711 39.5597M16.5678 41.9591L18.8711 39.5597M16.6208 17.0576L16.6212 17.058C19.4566 19.978 22.2823 22.9073 25.1076 25.8361C25.9855 26.7462 26.8633 27.6563 27.7414 28.566L16.6208 17.0576ZM16.6208 17.0576C16.598 17.0341 16.5793 17.0137 16.5642 16.996C16.5818 16.9774 16.6034 16.9559 16.63 16.9312L16.63 16.9312M16.6208 17.0576L16.63 16.9312M16.63 16.9312C17.8085 15.8348 18.967 14.7177 20.1122 13.5892L20.1123 13.589M16.63 16.9312L20.1123 13.589M20.1123 13.589C20.1338 13.5678 20.1525 13.5505 20.1689 13.5363C20.1826 13.549 20.1981 13.5642 20.2157 13.5825C23.5871 17.1076 26.9668 20.6262 30.3451 24.1434C30.9193 24.7411 31.4934 25.3388 32.0674 25.9365L32.0675 25.9366M20.1123 13.589L32.0675 25.9366M32.0675 25.9366C32.3347 26.2147 32.6019 26.4938 32.8696 26.7733C33.7114 27.6525 34.557 28.5356 35.4165 29.4022L35.4166 29.4023M32.0675 25.9366L35.4166 29.4023M35.4166 29.4023C35.4385 29.4243 35.4556 29.443 35.4689 29.4585C35.4544 29.4758 35.4355 29.497 35.4109 29.5225L35.4105 29.5229M35.4166 29.4023L35.4105 29.5229M35.4105 29.5229C31.8919 33.1708 28.3836 36.8289 24.8763 40.4859L24.3623 41.0219M35.4105 29.5229L24.3623 41.0219M20.2654 45.3082C20.2354 45.3395 20.2044 45.3739 20.1803 45.4007C20.177 45.4043 20.1739 45.4077 20.1709 45.411L20.2654 45.3082ZM20.2654 45.3082C20.8827 44.6638 21.5009 44.016 22.1196 43.3677C22.8667 42.5849 23.6145 41.8013 24.3622 41.0219M20.2654 45.3082L24.3622 41.0219M24.3622 41.0219C24.3623 41.0219 24.3623 41.0219 24.3623 41.0219M24.3622 41.0219L24.3623 41.0219M18.8711 39.5597C19.4598 38.944 20.0478 38.329 20.6353 37.7188M18.8711 39.5597L20.6353 37.7188M20.6353 37.7188C21.9894 36.3127 23.3448 34.9096 24.7007 33.506M20.6353 37.7188L24.7007 33.506M24.7007 33.506C25.7157 32.4554 26.7309 31.4045 27.7459 30.3519M24.7007 33.506L27.7459 30.3519M27.7459 30.3519L27.7462 30.3516M27.7459 30.3519L27.7462 30.3516M27.7462 30.3516L27.7548 30.3427C27.8757 30.2175 27.9943 30.0947 28.0791 29.9839C28.165 29.8716 28.2812 29.6913 28.2787 29.4529C28.2763 29.2165 28.158 29.0389 28.0728 28.9294C27.991 28.8243 27.8778 28.7071 27.7623 28.5876C27.7554 28.5804 27.7484 28.5733 27.7415 28.5661L27.7462 30.3516ZM20.0585 45.5197C20.0584 45.5197 20.0588 45.5195 20.0597 45.5192L20.0585 45.5197Z" stroke="white"/>
<path d="M19.7768 42C19.623 42 19.5379 41.8848 19.4428 41.793C18.3517 40.7378 17.2697 39.6723 16.1684 38.6282C15.9083 38.3815 15.9771 38.2296 16.1876 38.0104C17.4134 36.7308 18.6249 35.439 19.8477 34.1563C21.9783 31.9214 24.115 29.6926 26.2476 27.4587C26.7223 26.9622 26.7163 26.9611 26.2436 26.4666C22.9095 22.9776 19.5804 19.4845 16.2362 16.0057C15.9366 15.6947 15.9589 15.5245 16.2605 15.241C17.3172 14.2479 18.3567 13.2355 19.3851 12.2118C19.6624 11.9355 19.8406 11.9223 20.1189 12.2149C23.6686 15.9639 27.2284 19.7048 30.7852 23.4456C31.7852 24.4968 32.7782 25.5562 33.7944 26.591C34.0747 26.8765 34.0626 27.0549 33.7934 27.3363C30.4724 30.8141 27.1616 34.3021 23.8508 37.7891C22.619 39.086 21.3932 40.3891 20.1635 41.686C20.0491 41.8063 19.9499 41.9511 19.7768 42Z" fill="white"/>
</g>
<defs>
<filter id="filter0_d" x="0" y="0" width="52" height="66" filterUnits="userSpaceOnUse" color-interpolation-filters="sRGB">
<feFlood flood-opacity="0" result="BackgroundImageFix"/>
<feColorMatrix in="SourceAlpha" type="matrix" values="0 0 0 0 0 0 0 0 0 0 0 0 0 0 0 0 0 0 127 0"/>
<feOffset dy="4"/>
<feGaussianBlur stdDeviation="8"/>
<feColorMatrix type="matrix" values="0 0 0 0 0.00784314 0 0 0 0 0.0901961 0 0 0 0 0.152941 0 0 0 0.25 0"/>
<feBlend mode="normal" in2="BackgroundImageFix" result="effect1_dropShadow"/>
<feBlend mode="normal" in="SourceGraphic" in2="effect1_dropShadow" result="shape"/>
</filter>
</defs>
</svg>
