<svg width="96" height="96" viewBox="0 0 96 96" fill="none" xmlns="http://www.w3.org/2000/svg">
<g filter="url(#filter0_d)">
<circle cx="48" cy="44" r="32" fill="url(#paint0_linear)"/>
<path d="M40.5678 56.9591L40.5674 56.9596C40.5669 56.96 40.5665 56.9605 40.566 56.961C41.3854 57.7306 42.197 58.5122 43.006 59.2913C43.3946 59.6655 43.7826 60.0392 44.1706 60.4107L40.5678 56.9591ZM40.5678 56.9591C41.3371 56.164 42.1047 55.3613 42.8711 54.5597M40.5678 56.9591L42.8711 54.5597M40.6208 32.0576L40.6212 32.058C43.4566 34.978 46.2823 37.9073 49.1076 40.8361C49.9855 41.7462 50.8633 42.6563 51.7414 43.566L40.6208 32.0576ZM40.6208 32.0576C40.598 32.0341 40.5793 32.0137 40.5642 31.996C40.5818 31.9774 40.6034 31.9559 40.63 31.9312L40.63 31.9312M40.6208 32.0576L40.63 31.9312M40.63 31.9312C41.8085 30.8348 42.967 29.7177 44.1122 28.5892L44.1123 28.589M40.63 31.9312L44.1123 28.589M44.1123 28.589C44.1338 28.5678 44.1525 28.5505 44.1689 28.5363C44.1826 28.549 44.1981 28.5642 44.2157 28.5825C47.5871 32.1076 50.9668 35.6262 54.3451 39.1434C54.9193 39.7411 55.4934 40.3388 56.0674 40.9365L56.0675 40.9366M44.1123 28.589L56.0675 40.9366M56.0675 40.9366C56.3347 41.2147 56.6019 41.4938 56.8696 41.7733C57.7114 42.6525 58.557 43.5356 59.4165 44.4022L59.4166 44.4023M56.0675 40.9366L59.4166 44.4023M59.4166 44.4023C59.4385 44.4243 59.4556 44.443 59.4689 44.4585C59.4544 44.4758 59.4355 44.497 59.4109 44.5225L59.4105 44.5229M59.4166 44.4023L59.4105 44.5229M59.4105 44.5229C55.8919 48.1708 52.3836 51.8289 48.8763 55.4859L48.3623 56.0219M59.4105 44.5229L48.3623 56.0219M44.2654 60.3082C44.2354 60.3395 44.2044 60.3739 44.1803 60.4007C44.177 60.4043 44.1739 60.4077 44.1709 60.411L44.2654 60.3082ZM44.2654 60.3082C44.8827 59.6638 45.5009 59.016 46.1196 58.3677C46.8667 57.5849 47.6145 56.8013 48.3622 56.0219M44.2654 60.3082L48.3622 56.0219M48.3622 56.0219C48.3623 56.0219 48.3623 56.0219 48.3623 56.0219M48.3622 56.0219L48.3623 56.0219M42.8711 54.5597C43.4598 53.944 44.0478 53.329 44.6353 52.7188M42.8711 54.5597L44.6353 52.7188M44.6353 52.7188C45.9894 51.3127 47.3448 49.9096 48.7007 48.506M44.6353 52.7188L48.7007 48.506M48.7007 48.506C49.7157 47.4554 50.7309 46.4045 51.7459 45.3519M48.7007 48.506L51.7459 45.3519M51.7459 45.3519L51.7462 45.3516M51.7459 45.3519L51.7462 45.3516M51.7462 45.3516L51.7548 45.3427C51.8757 45.2175 51.9943 45.0947 52.0791 44.9839C52.165 44.8716 52.2812 44.6913 52.2787 44.4529C52.2763 44.2165 52.158 44.0389 52.0728 43.9294C51.991 43.8243 51.8778 43.7071 51.7623 43.5876C51.7554 43.5804 51.7484 43.5733 51.7415 43.5661L51.7462 45.3516ZM44.0585 60.5197C44.0584 60.5197 44.0588 60.5195 44.0597 60.5192L44.0585 60.5197Z" stroke="white"/>
<path d="M43.7768 57C43.623 57 43.5379 56.8848 43.4428 56.793C42.3517 55.7378 41.2697 54.6723 40.1684 53.6282C39.9083 53.3815 39.9771 53.2296 40.1876 53.0104C41.4134 51.7308 42.6249 50.439 43.8477 49.1563C45.9783 46.9214 48.115 44.6926 50.2476 42.4587C50.7223 41.9622 50.7163 41.9611 50.2436 41.4666C46.9095 37.9776 43.5804 34.4845 40.2362 31.0057C39.9366 30.6947 39.9589 30.5245 40.2605 30.241C41.3172 29.2479 42.3567 28.2355 43.3851 27.2118C43.6624 26.9355 43.8406 26.9223 44.1189 27.2149C47.6686 30.9639 51.2284 34.7048 54.7852 38.4456C55.7852 39.4968 56.7782 40.5562 57.7944 41.591C58.0747 41.8765 58.0626 42.0549 57.7934 42.3363C54.4724 45.8141 51.1616 49.3021 47.8508 52.7891C46.619 54.086 45.3932 55.3891 44.1635 56.686C44.0491 56.8063 43.9499 56.9511 43.7768 57Z" fill="white"/>
</g>
<defs>
<filter id="filter0_d" x="0" y="0" width="96" height="96" filterUnits="userSpaceOnUse" color-interpolation-filters="sRGB">
<feFlood flood-opacity="0" result="BackgroundImageFix"/>
<feColorMatrix in="SourceAlpha" type="matrix" values="0 0 0 0 0 0 0 0 0 0 0 0 0 0 0 0 0 0 127 0"/>
<feOffset dy="4"/>
<feGaussianBlur stdDeviation="8"/>
<feColorMatrix type="matrix" values="0 0 0 0 0.00784314 0 0 0 0 0.0901961 0 0 0 0 0.152941 0 0 0 0.25 0"/>
<feBlend mode="normal" in2="BackgroundImageFix" result="effect1_dropShadow"/>
<feBlend mode="normal" in="SourceGraphic" in2="effect1_dropShadow" result="shape"/>
</filter>
<linearGradient id="paint0_linear" x1="79.9751" y1="12" x2="9.79293" y2="19.7382" gradientUnits="userSpaceOnUse">
<stop stop-color="#FF6385"/>
<stop offset="1" stop-color="#FC2D5A"/>
</linearGradient>
</defs>
</svg>
