<svg width="96" height="96" viewBox="0 0 96 96" fill="none" xmlns="http://www.w3.org/2000/svg">
<g clip-path="url(#clip0)">
<g filter="url(#filter0_d)">
<path fill-rule="evenodd" clip-rule="evenodd" d="M10 16H66C69.3137 16 72 18.6863 72 22V78C72 81.3137 69.3137 84 66 84H10C6.68629 84 4 81.3137 4 78V22C4 18.6863 6.68629 16 10 16ZM10 18C7.79086 18 6 19.7909 6 22V78C6 80.2091 7.79086 82 10 82H66C68.2091 82 70 80.2091 70 78V22C70 19.7909 68.2091 18 66 18H10Z" fill="url(#paint0_linear)"/>
</g>
<g filter="url(#filter1_d)">
<rect x="12.002" y="12" width="64" height="64" rx="4" fill="url(#paint1_linear)"/>
</g>
<g filter="url(#filter2_d)">
<path fill-rule="evenodd" clip-rule="evenodd" d="M78.7188 20C85.7853 20 91.5002 25.7149 91.5002 32.7813C91.5002 39.4524 85.3112 48.334 81.5465 53.1195C80.0813 54.9819 77.3564 54.9819 75.8912 53.1195C72.1265 48.334 65.9375 39.4524 65.9375 32.7813C65.9375 25.7149 71.6524 20 78.7188 20ZM78.7188 28.216C76.1986 28.216 74.1535 30.2611 74.1535 32.7813C74.1535 35.3016 76.1986 37.3467 78.7188 37.3467C81.2391 37.3467 83.2842 35.3016 83.2842 32.7813C83.2842 30.2611 81.2391 28.216 78.7188 28.216ZM79.1183 60.5253C84.5475 60.5474 88.9125 63.7851 90.5131 68.9753C91.5193 72.2378 90.9499 75.7927 88.954 78.7298C86.9304 81.7 83.779 83.5587 80.3097 83.8318C78.4493 83.9779 76.6607 83.9972 75.1541 83.9972C69.1602 83.9986 63.1663 83.9986 57.1725 83.9986C51.1744 83.9986 45.1764 83.9986 39.1783 84H39.0125H38.8328C38.067 84 37.2792 83.9835 36.4748 83.7353C34.9295 83.2609 34.0283 82.0943 34.0006 80.5334C33.973 78.9008 34.8631 77.6625 36.4416 77.1413C37.3262 76.8489 38.1942 76.8269 39.159 76.8269C44.9172 76.8324 50.6727 76.8324 56.4309 76.8296H58.8691C60.9396 76.8296 63.0074 76.8296 65.0752 76.8324C65.4426 76.8326 65.8111 76.8329 66.1804 76.8331C70.3957 76.8358 74.7259 76.8387 78.9883 76.8158C81.7555 76.8021 83.6657 75.2108 83.8564 72.7646C83.9781 71.2119 83.58 69.8937 82.712 68.9505C81.8578 68.0211 80.5945 67.5247 79.0657 67.5137C74.2651 67.4798 69.388 67.4853 64.6489 67.4907L63.8201 67.4916L63.8119 67.4916C61.9597 67.4944 60.1103 67.4971 58.2582 67.4971H58.2471C56.9976 67.4971 55.8476 67.4392 54.7336 67.3234C48.7597 66.7001 44.0215 61.4188 44.1708 55.5529C44.3312 49.2871 49.2877 44.2293 55.4578 44.0417C57.4869 43.9783 59.5436 44.0004 61.5312 44.0224L61.8325 44.0252C64.1214 44.05 65.6999 45.4206 65.758 47.4339C65.816 49.4167 64.2099 50.9198 61.9403 51.0108C60.8982 51.0521 59.8477 51.0466 58.8332 51.0411C57.7716 51.0356 56.6742 51.0301 55.6071 51.0797C53.9872 51.1542 52.5469 52.0422 51.7508 53.4542C50.9574 54.8662 50.9463 56.554 51.7231 57.9715C52.663 59.6814 54.2277 60.5143 56.5083 60.5143H56.5111C58.4821 60.5143 60.4503 60.5143 62.4213 60.5115C62.9026 60.5113 63.3854 60.511 63.8694 60.5107C68.887 60.508 74.0406 60.5052 79.1183 60.5253Z" fill="url(#paint2_linear)"/>
</g>
</g>
<defs>
<filter id="filter0_d" x="-2" y="14" width="76" height="76" filterUnits="userSpaceOnUse" color-interpolation-filters="sRGB">
<feFlood flood-opacity="0" result="BackgroundImageFix"/>
<feColorMatrix in="SourceAlpha" type="matrix" values="0 0 0 0 0 0 0 0 0 0 0 0 0 0 0 0 0 0 127 0"/>
<feOffset dx="-2" dy="2"/>
<feGaussianBlur stdDeviation="2"/>
<feColorMatrix type="matrix" values="0 0 0 0 0 0 0 0 0 0 0 0 0 0 0 0 0 0 0.25 0"/>
<feBlend mode="normal" in2="BackgroundImageFix" result="effect1_dropShadow"/>
<feBlend mode="normal" in="SourceGraphic" in2="effect1_dropShadow" result="shape"/>
</filter>
<filter id="filter1_d" x="6.00195" y="10" width="72" height="72" filterUnits="userSpaceOnUse" color-interpolation-filters="sRGB">
<feFlood flood-opacity="0" result="BackgroundImageFix"/>
<feColorMatrix in="SourceAlpha" type="matrix" values="0 0 0 0 0 0 0 0 0 0 0 0 0 0 0 0 0 0 127 0"/>
<feOffset dx="-2" dy="2"/>
<feGaussianBlur stdDeviation="2"/>
<feColorMatrix type="matrix" values="0 0 0 0 0 0 0 0 0 0 0 0 0 0 0 0 0 0 0.25 0"/>
<feBlend mode="normal" in2="BackgroundImageFix" result="effect1_dropShadow"/>
<feBlend mode="normal" in="SourceGraphic" in2="effect1_dropShadow" result="shape"/>
</filter>
<filter id="filter2_d" x="30" y="20" width="61.5002" height="68" filterUnits="userSpaceOnUse" color-interpolation-filters="sRGB">
<feFlood flood-opacity="0" result="BackgroundImageFix"/>
<feColorMatrix in="SourceAlpha" type="matrix" values="0 0 0 0 0 0 0 0 0 0 0 0 0 0 0 0 0 0 127 0"/>
<feOffset dx="-2" dy="2"/>
<feGaussianBlur stdDeviation="1"/>
<feColorMatrix type="matrix" values="0 0 0 0 0 0 0 0 0 0 0 0 0 0 0 0 0 0 0.25 0"/>
<feBlend mode="normal" in2="BackgroundImageFix" result="effect1_dropShadow"/>
<feBlend mode="normal" in="SourceGraphic" in2="effect1_dropShadow" result="shape"/>
</filter>
<linearGradient id="paint0_linear" x1="72" y1="16" x2="4" y2="84" gradientUnits="userSpaceOnUse">
<stop stop-color="#153A55"/>
<stop offset="1" stop-color="#0F2A3D"/>
</linearGradient>
<linearGradient id="paint1_linear" x1="76.002" y1="12" x2="12.002" y2="76" gradientUnits="userSpaceOnUse">
<stop stop-color="#153A55"/>
<stop offset="1" stop-color="#0F2A3D"/>
</linearGradient>
<linearGradient id="paint2_linear" x1="96.001" y1="19.9996" x2="61.5153" y2="24.8087" gradientUnits="userSpaceOnUse">
<stop stop-color="#00BEFB"/>
<stop offset="1" stop-color="#007CF9"/>
</linearGradient>
<clipPath id="clip0">
<rect width="96" height="96" fill="white"/>
</clipPath>
</defs>
</svg>
