<svg width="96" height="96" viewBox="0 0 96 96" fill="none" xmlns="http://www.w3.org/2000/svg">
<g clip-path="url(#clip0)">
<g filter="url(#filter0_d)">
<path fill-rule="evenodd" clip-rule="evenodd" d="M10 16H66C69.3137 16 72 18.6863 72 22V78C72 81.3137 69.3137 84 66 84H10C6.68629 84 4 81.3137 4 78V22C4 18.6863 6.68629 16 10 16ZM10 18C7.79086 18 6 19.7909 6 22V78C6 80.2091 7.79086 82 10 82H66C68.2091 82 70 80.2091 70 78V22C70 19.7909 68.2091 18 66 18H10Z" fill="url(#paint0_linear)"/>
</g>
<g filter="url(#filter1_d)">
<rect x="16" y="12" width="64" height="64" rx="4" fill="url(#paint1_linear)"/>
</g>
<g filter="url(#filter2_d)">
<path fill-rule="evenodd" clip-rule="evenodd" d="M68.1381 26.6246C68.8344 26.9373 69.5421 27.225 70.4897 27.2135C70.5211 27.2101 70.5629 27.2079 70.6121 27.2052C70.7609 27.1971 70.9779 27.1853 71.184 27.1291C74.1315 26.3291 77.1209 25.7129 80.1104 25.0966C80.4399 25.0286 80.7693 24.9607 81.0988 24.8926L81.1145 24.8893C81.4625 24.8171 81.8802 24.7305 81.8046 24.2903C81.7403 23.9216 81.4462 23.9866 81.1796 24.0456C81.1203 24.0588 81.0624 24.0716 81.0086 24.0793C80.324 24.1787 79.6401 24.2863 78.9563 24.3938C77.5038 24.6222 76.0512 24.8506 74.5906 25.0019C73.3913 25.1267 72.1987 25.2939 71.0062 25.4611C70.0914 25.5893 69.1766 25.7176 68.2589 25.8267C68.2394 25.8291 68.2194 25.8313 68.1993 25.8335C67.9944 25.8561 67.7706 25.8808 67.7391 26.1393C67.7065 26.404 67.9482 26.5383 68.1381 26.6246ZM91.0307 32.6882L91.0305 32.6882L91.0302 32.6881C90.0404 32.428 89.0939 32.1793 88.1524 31.9165C84.1071 30.7868 80.0637 29.6493 76.0261 28.5004C75.9559 28.4803 75.8733 28.4689 75.7883 28.4572C75.5087 28.4187 75.2031 28.3767 75.2281 28.0074C75.2564 27.5811 75.7002 27.4832 76.0779 27.3998L76.097 27.3956C77.1798 27.1603 78.2629 26.9261 79.3461 26.6919L79.3472 26.6916C82.6616 25.9749 85.9767 25.2581 89.284 24.5107C90.0321 24.3419 90.3985 24.4839 90.6459 25.2204C91.384 27.4239 92.16 29.6159 92.9356 31.807L93.1184 32.3232C93.3504 32.9792 93.0205 33.1154 92.6331 33.1115C92.0833 32.9648 91.5511 32.825 91.0309 32.6883L91.0307 32.6882ZM39.0806 54.7729C39.2705 54.9609 39.5314 54.9973 39.9323 54.9897C39.9626 54.9773 40.0019 54.9625 40.0477 54.9453C40.1728 54.8983 40.3458 54.8333 40.5115 54.7518C41.5018 54.2639 42.4909 53.7739 43.4801 53.2838C45.1121 52.4752 46.7442 51.6666 48.3815 50.8676C50.5356 49.8165 52.5304 48.5985 54.2625 46.8703C55.8294 45.3069 57.4778 43.8257 59.1266 42.3442C60.1783 41.3992 61.2301 40.4541 62.261 39.4875C62.5878 39.1811 62.9352 38.8894 63.2831 38.5973C64.1439 37.8744 65.0072 37.1495 65.5659 36.196C66.4473 34.6893 67.2152 33.1153 67.9833 31.5411L67.9833 31.5409L67.9835 31.5407L67.9835 31.5405C68.332 30.8263 68.6805 30.1121 69.0396 29.404C69.3081 28.8727 69.1202 28.5792 68.5984 28.3893C68.422 28.3247 68.2455 28.2605 68.0689 28.1962C67.1703 27.8691 66.2714 27.5419 65.3913 27.1732C64.768 26.9124 64.2443 26.9891 63.6727 27.3132C62.2676 28.1083 60.8487 28.88 59.43 29.6517L59.4271 29.6532L59.4262 29.6538C59.169 29.7936 58.912 29.9334 58.6549 30.0734C55.6282 31.723 52.6628 33.4474 50.2402 35.9678C49.1833 37.0668 48.0593 38.116 46.8758 39.077C42.6598 42.5047 39.5544 46.8377 36.6964 51.3778C36.5008 51.6905 36.3531 52.0338 36.6523 52.3427C37.4483 53.1655 38.2635 53.9711 39.0806 54.7729ZM93.3376 34.9416C93.432 37.8904 93.2433 40.8276 93.0547 43.7647C92.9557 45.3058 92.8567 46.8468 92.7986 48.3895C92.674 51.7146 92.4997 55.0396 92.3253 58.3647C92.2367 60.0555 92.148 61.7463 92.0659 63.4371C91.9836 65.142 91.8848 66.8462 91.786 68.5504C91.5811 72.0861 91.3761 75.6219 91.3179 79.1656C91.3097 79.6353 91.2213 80.1041 91.133 80.5726L91.1329 80.5727C91.0968 80.7641 91.0607 80.9556 91.0301 81.147C91.0277 81.162 91.0254 81.1773 91.0231 81.1928L91.0163 81.2408C90.985 81.4657 90.951 81.7101 90.6772 81.7588C90.4233 81.8038 90.2947 81.6052 90.1761 81.4223C90.1532 81.3868 90.1306 81.352 90.1075 81.3196C89.2405 80.1163 88.4894 78.8416 87.7378 77.5661L87.7377 77.5661C87.5033 77.1683 87.2689 76.7705 87.0309 76.3747C86.1732 74.9496 85.3162 73.5241 84.4592 72.0986L84.4552 72.092L84.4513 72.0854C81.9821 67.9782 79.513 63.8711 77.026 59.7735C76.5829 59.0427 76.6271 58.4787 77.0951 57.7767C80.6434 52.4624 84.1771 47.1382 87.7108 41.8141L87.7128 41.8111C89.1258 39.6822 90.5388 37.5533 91.9528 35.425C92.0944 35.2124 92.2535 35.0123 92.4129 34.8116L92.4129 34.8115L92.413 34.8114L92.4131 34.8113L92.4131 34.8113L92.4132 34.8112L92.4132 34.8111L92.4133 34.811C92.4523 34.762 92.4913 34.7128 92.5301 34.6635C92.5656 34.6186 92.598 34.5666 92.6306 34.5142C92.7513 34.3204 92.8752 34.1213 93.1727 34.2588C93.4527 34.3949 93.3971 34.6884 93.3376 34.9416ZM88.2753 82.453C87.463 82.3409 86.6389 82.2266 85.8071 82.1111L85.8035 82.1106L85.789 82.1086L85.785 82.1081L85.7682 82.1057C84.165 81.8833 82.533 81.6568 80.9001 81.4345C80.0496 81.3187 79.1977 81.2119 78.3459 81.105C76.5447 80.879 74.7439 80.6531 72.9572 80.3431C71.9629 80.1703 70.9619 80.0532 69.9612 79.9362C68.6298 79.7805 67.2989 79.6249 65.9849 79.338C65.3984 79.2097 64.7985 79.1496 64.1965 79.0894C63.7552 79.0452 63.3127 79.0009 62.8737 78.9295C61.5594 78.715 60.2331 78.5724 58.9066 78.4298L58.9065 78.4297C57.8016 78.311 56.6966 78.1922 55.5983 78.0318C55.0854 77.9567 54.5732 77.8774 54.0611 77.7981L54.0605 77.798C52.6619 77.5814 51.264 77.3649 49.8517 77.2358C49.5141 77.2051 49.094 77.1456 48.9905 76.7467C48.8961 76.3813 49.1653 76.2509 49.4166 76.1292C49.4872 76.0949 49.5564 76.0614 49.6158 76.0235C54.4889 72.8883 59.3651 69.757 64.2415 66.6255L64.2433 66.6243L64.2452 66.6231L64.2471 66.6219C67.0061 64.8502 69.7652 63.0784 72.5237 61.3059C73.2737 60.8244 74.0237 60.3411 74.7564 59.8328C75.3357 59.4319 75.7366 59.43 76.1451 60.1147C77.5521 62.4761 78.9783 64.8258 80.4044 67.1754L80.4047 67.176L80.4051 67.1766L80.4054 67.1772L80.4058 67.1778L80.4061 67.1784L80.4065 67.179L80.4069 67.1796L80.4072 67.1802L80.4076 67.1808L80.4079 67.1814L80.4083 67.1819C81.1447 68.3953 81.8812 69.6087 82.6149 70.8235C84.7364 74.3394 86.852 77.8592 88.9619 81.3808C88.9923 81.4316 89.0285 81.4825 89.0652 81.534L89.0653 81.5341C89.2145 81.7435 89.3718 81.9643 89.1749 82.2382C89.0092 82.4685 88.7491 82.4627 88.4305 82.4556C88.3801 82.4545 88.3284 82.4533 88.2753 82.453ZM47.2297 74.6981C47.5116 73.4897 47.8454 72.0646 48.1791 70.6394C48.3873 69.748 48.5946 68.8565 48.8019 67.965L48.8024 67.9626L48.803 67.9602L48.8035 67.9578L48.8035 67.9577L48.8036 67.9575L48.8036 67.9574L48.8037 67.9572L48.8037 67.9571L48.8037 67.9569L48.8038 67.9568L48.8038 67.9566L48.8038 67.9565C49.3349 65.6722 49.8659 63.3883 50.4118 61.1083C50.7585 59.6554 51.1147 58.2048 51.4709 56.754L51.471 56.7535L51.4712 56.753L51.4713 56.7524L51.4714 56.7519L51.4715 56.7514L51.4717 56.7509L51.4718 56.7504L51.4719 56.7499L51.472 56.7494L51.4721 56.7492C51.8487 55.2156 52.2253 53.6818 52.5908 52.145C52.7692 51.3969 53.0971 51.2799 53.8203 51.5235C56.7229 52.4989 59.6383 53.4384 62.5529 54.3776L62.553 54.3776C63.2035 54.5872 63.8539 54.7968 64.5042 55.0068C66.1849 55.5499 67.8676 56.0883 69.5504 56.6268L69.551 56.627L69.5534 56.6277L69.5602 56.6299C70.7509 57.0109 71.9417 57.392 73.1318 57.7746C73.199 57.7961 73.2719 57.8122 73.3454 57.8284L73.3454 57.8284C73.62 57.8891 73.9046 57.9519 73.947 58.306C73.9903 58.6703 73.7117 58.8399 73.4468 59.0011C73.4063 59.0257 73.3661 59.0502 73.3275 59.0751C68.8295 61.9715 64.3296 64.8678 59.8297 67.7622C57.4345 69.3023 55.0385 70.8409 52.6427 72.3794L52.6032 72.4047C51.1271 73.3526 49.651 74.3005 48.1753 75.2486C48.1389 75.2721 48.1027 75.2977 48.0665 75.3234L48.0663 75.3234C47.8924 75.4465 47.7148 75.5722 47.4848 75.4865C47.2335 75.3944 47.2066 75.1604 47.2297 74.6981ZM75.1604 56.1888C75.2728 56.4794 75.3934 56.7915 75.7698 56.8981C76.1795 56.644 76.4287 56.2559 76.6747 55.8728L76.6754 55.8718L76.6757 55.8712L76.6758 55.8711C76.7024 55.8297 76.729 55.7883 76.7557 55.7472C78.1594 53.6364 79.5602 51.5239 80.961 49.4115L80.9622 49.4098L80.9624 49.4095L80.9626 49.4091L80.9628 49.4088L80.963 49.4085L80.9633 49.4081L80.9635 49.4078L80.9637 49.4075L80.9639 49.4071C82.6057 46.9314 84.2474 44.4557 85.8936 41.9828C86.7642 40.6747 87.6445 39.3731 88.5247 38.0715C89.161 37.1306 89.7973 36.1897 90.4299 35.2464L90.4659 35.1928C90.6514 34.9176 90.8626 34.6043 90.6159 34.2893C90.4359 34.0596 90.2054 34.137 89.9743 34.2147C89.8928 34.2421 89.8112 34.2696 89.7317 34.2836C88.671 34.4715 87.6083 34.6403 86.5438 34.8091C85.878 34.9151 85.2117 35.0184 84.5454 35.1218C83.3307 35.3102 82.116 35.4986 80.9046 35.703C80.026 35.8507 79.1494 36.0107 78.2729 36.1707L78.2726 36.1708L78.2724 36.1708C77.2488 36.3576 76.2252 36.5445 75.1982 36.7119C74.6517 36.8013 74.1049 36.8883 73.558 36.9753C71.9456 37.232 70.3331 37.4887 68.7303 37.8052C67.8192 37.9855 67.848 38.4056 68.1242 39.0827C68.8233 40.7898 69.5172 42.4988 70.2111 44.2078C70.905 45.9169 71.5988 47.6259 72.298 49.333C73.2168 51.5715 74.149 53.8042 75.0965 56.0292C75.1186 56.0806 75.1394 56.1343 75.1604 56.1888ZM74.0311 56.2019C73.9402 56.8254 73.5315 56.7003 73.1906 56.596L73.1564 56.5855C72.4558 56.3749 71.762 56.1465 71.0681 55.9181L71.068 55.9181C70.7951 55.8282 70.522 55.7383 70.2486 55.6495C68.6233 55.1201 66.998 54.5903 65.3727 54.0604L65.3718 54.0601L65.3708 54.0598L65.3699 54.0595L65.369 54.0592L65.3681 54.0589L65.3672 54.0586L65.3663 54.0583C61.5882 52.8268 57.8096 51.595 54.029 50.367C53.9818 50.3516 53.9336 50.3379 53.8856 50.3242C53.6236 50.2495 53.3683 50.1768 53.3213 49.8395C53.277 49.5197 53.4823 49.3415 53.6903 49.1611C53.7255 49.1305 53.7608 49.0999 53.795 49.0685C57.6082 45.5948 61.4176 42.1192 65.225 38.6397C66.2762 37.6806 66.443 37.7094 66.9782 39.0099L66.9787 39.011C68.841 43.5412 70.7033 48.0714 72.5618 52.6035C72.8241 53.2442 73.0821 53.8862 73.3402 54.5283L73.3406 54.5292L73.3409 54.53L73.3412 54.5308L73.3416 54.5316L73.342 54.5327L73.3425 54.5339L73.3429 54.535C73.5105 54.952 73.6782 55.369 73.8469 55.7857C73.889 55.8902 73.9359 55.9928 73.9794 56.0881L73.9796 56.0884L73.9797 56.0885C73.9976 56.1277 74.0149 56.1656 74.0311 56.2019ZM32.8565 76.7141C33.079 76.7256 33.3034 76.716 33.265 76.716C33.7177 76.6964 34.1421 76.6764 34.5475 76.6573L34.5505 76.6571L34.5521 76.6571L34.553 76.657L34.5534 76.657L34.5535 76.657L34.5553 76.6569L34.5557 76.6569L34.5576 76.6568L34.558 76.6568C35.3782 76.6181 36.1208 76.5831 36.8634 76.5626C37.8137 76.5346 38.7645 76.5392 39.7151 76.5437H39.7154H39.7155H39.7155H39.7156H39.7156H39.7157H39.7157C41.4397 76.5519 43.1634 76.5601 44.883 76.3746C46.03 76.2499 46.1892 76.0102 45.7596 74.9034C43.8626 70.0142 41.9656 65.1249 40.0628 60.2395C40.0411 60.1834 40.0204 60.1235 39.9993 60.0624C39.8803 59.7181 39.7475 59.3338 39.3435 59.3533C39.0222 59.3688 38.8994 59.7122 38.788 60.0235C38.7617 60.0969 38.7361 60.1686 38.7086 60.2337C37.6671 62.6946 36.6371 65.1594 35.6128 67.628C35.2117 68.5944 34.814 69.5622 34.4164 70.53C33.7035 72.265 32.9906 74 32.258 75.7263C31.9626 76.4206 32.1774 76.6796 32.8565 76.7141ZM51.3611 51.9782C51.2801 52.3108 51.198 52.6465 51.1154 52.9843L51.1153 52.9846L51.1151 52.9855L51.1148 52.9866C50.8865 53.9201 50.6541 54.8706 50.4289 55.8221C50.1541 56.9836 49.8827 58.1455 49.6113 59.3073L49.6112 59.3075L49.6112 59.3077C49.2991 60.6437 48.987 61.9795 48.67 63.3142C48.0198 66.059 47.3599 68.8 46.6982 71.541C46.6368 71.798 46.5102 72.0359 46.2071 72.055C45.8274 72.0793 45.7235 71.7979 45.6235 71.5269C45.6129 71.4981 45.6023 71.4694 45.5914 71.4412C45.0019 69.9194 44.414 68.3976 43.8262 66.8758C43.5323 66.115 43.2385 65.3543 42.9444 64.5936C42.6851 63.922 42.4278 63.2496 42.1704 62.5771L42.1703 62.5769L42.1703 62.5768L42.1703 62.5768C41.5882 61.0559 41.0062 59.5349 40.401 58.0241C40.0865 57.2376 40.1881 56.7063 40.986 56.3016C42.9829 55.2849 44.9736 54.2558 46.9645 53.2267L46.9654 53.2262C48.1105 52.6343 49.2556 52.0423 50.402 51.4526C51.1194 51.0805 51.4033 51.234 51.3611 51.9782ZM67.6221 35.4959C67.1579 36.4242 67.2768 36.6237 68.2857 36.6007C68.7966 36.5843 69.2928 36.4821 69.7906 36.3796C70.2253 36.2901 70.6612 36.2003 71.1092 36.1672C71.9757 36.1029 72.8346 35.9438 73.6937 35.7847L73.6938 35.7847C74.1164 35.7064 74.539 35.6281 74.9627 35.5611C75.4653 35.4819 75.9677 35.3984 76.4702 35.3148C77.843 35.0865 79.2164 34.858 80.5981 34.719C81.2502 34.6537 81.8957 34.5481 82.5414 34.4424C83.1472 34.3432 83.7533 34.244 84.3652 34.1781C85.3032 34.0765 86.2584 33.969 87.1945 33.7926C87.5033 33.7331 87.8773 33.5989 87.9099 33.2478C87.9432 32.8911 87.6655 32.8477 87.4102 32.8077C87.3415 32.797 87.2745 32.7865 87.2156 32.7702C86.4892 32.5726 85.76 32.3849 85.0309 32.1973L85.0309 32.1972L85.0308 32.1972L85.0307 32.1972L85.0307 32.1972C84.5566 32.0752 84.0826 31.9531 83.6095 31.8284C82.3677 31.5007 81.1262 31.1712 79.8844 30.8417L79.8844 30.8417L79.8843 30.8417L79.8843 30.8417L79.8833 30.8414L79.8833 30.8414C77.4696 30.2009 75.0555 29.5602 72.6379 28.9321C71.2032 28.5581 71.0018 28.6808 70.3362 30.0235C69.4328 31.8495 68.5293 33.6737 67.6221 35.4959ZM75.9863 82.6187C77.3003 82.7461 78.6143 82.8734 79.9285 82.9999C79.9639 82.9983 79.9999 82.9979 80.036 82.9975H80.036C80.2655 82.995 80.4937 82.9925 80.5384 82.6891C80.5825 82.3707 80.3063 82.2672 80.057 82.1904C79.9054 82.1444 79.7462 82.1156 79.589 82.0964C78.5998 81.9748 77.61 81.8578 76.6204 81.7408L76.6196 81.7407L76.6189 81.7406C74.2681 81.4626 71.9175 81.1846 69.5745 80.8458C69.037 80.7681 68.4986 80.7009 67.9604 80.6337C67.3961 80.5633 66.8321 80.4929 66.2696 80.4104C65.3922 80.2813 64.5154 80.1456 63.6386 80.0099L63.6385 80.0098L63.6377 80.0097C62.2604 79.7965 60.8829 79.5832 59.5025 79.3957C58.4328 79.2505 57.3601 79.1269 56.2873 79.0032C54.9652 78.8508 53.6431 78.6985 52.3269 78.5057C52.0924 78.4715 51.8581 78.4367 51.6238 78.402L51.6238 78.402C49.4985 78.0868 47.3777 77.7722 45.2164 77.8171C44.098 77.8405 42.9795 77.8466 41.8613 77.8526C40.684 77.859 39.5069 77.8654 38.3304 77.8919C37.5049 77.9096 36.6807 77.9975 35.8568 78.0854C35.6986 78.1023 35.5404 78.1192 35.3823 78.1355C35.177 78.1566 34.8912 78.2142 34.8932 78.5C34.8932 78.7935 35.177 78.8414 35.3861 78.828C36.1884 78.7767 36.9706 78.908 37.7538 79.0394C38.3188 79.1343 38.8843 79.2292 39.4583 79.2557C41.5835 79.3535 43.7069 79.5741 45.8245 79.7947C47.1777 79.936 48.5323 80.0594 49.8868 80.1828C51.6945 80.3474 53.502 80.512 55.3057 80.7192C57.4271 80.9624 59.5566 81.1314 61.6865 81.3005C62.9845 81.4036 64.2826 81.5067 65.5791 81.6265C69.0487 81.9465 72.5173 82.2826 75.9863 82.6187ZM32.2664 69.4709L32.2665 69.4704C32.4696 68.4171 32.6703 67.3761 32.8804 66.3352C33.0579 65.4548 33.2407 64.575 33.4235 63.6951C33.5884 62.9014 33.7533 62.1077 33.9143 61.3136C34.0584 60.6005 34.1984 59.8865 34.3384 59.1724L34.3384 59.1723L34.3384 59.1721C34.6251 57.7099 34.9118 56.2476 35.2339 54.7939C35.4756 53.7025 35.8151 53.6354 36.59 54.3988C36.685 54.4924 36.775 54.592 36.8649 54.6915C37.033 54.8776 37.2008 55.0633 37.3995 55.2082C38.817 56.2421 38.8035 57.439 38.113 58.9505C36.831 61.7568 35.6114 64.5914 34.3916 67.4264C33.9014 68.5657 33.4112 69.7051 32.9169 70.8427L32.9086 70.8619C32.8863 70.914 32.8628 70.9688 32.8286 71.0115C32.775 71.0792 32.7372 71.1702 32.6995 71.2609C32.6188 71.4554 32.5385 71.6486 32.3031 71.6081C31.9844 71.5564 31.9944 71.3018 32.0036 71.0684C32.0067 70.9898 32.0097 70.9137 32 70.8485C32.0899 70.3863 32.1784 69.9274 32.2664 69.4709Z" fill="url(#paint2_linear)"/>
</g>
</g>
<defs>
<filter id="filter0_d" x="-2" y="14" width="76" height="76" filterUnits="userSpaceOnUse" color-interpolation-filters="sRGB">
<feFlood flood-opacity="0" result="BackgroundImageFix"/>
<feColorMatrix in="SourceAlpha" type="matrix" values="0 0 0 0 0 0 0 0 0 0 0 0 0 0 0 0 0 0 127 0"/>
<feOffset dx="-2" dy="2"/>
<feGaussianBlur stdDeviation="2"/>
<feColorMatrix type="matrix" values="0 0 0 0 0 0 0 0 0 0 0 0 0 0 0 0 0 0 0.25 0"/>
<feBlend mode="normal" in2="BackgroundImageFix" result="effect1_dropShadow"/>
<feBlend mode="normal" in="SourceGraphic" in2="effect1_dropShadow" result="shape"/>
</filter>
<filter id="filter1_d" x="10" y="10" width="72" height="72" filterUnits="userSpaceOnUse" color-interpolation-filters="sRGB">
<feFlood flood-opacity="0" result="BackgroundImageFix"/>
<feColorMatrix in="SourceAlpha" type="matrix" values="0 0 0 0 0 0 0 0 0 0 0 0 0 0 0 0 0 0 127 0"/>
<feOffset dx="-2" dy="2"/>
<feGaussianBlur stdDeviation="2"/>
<feColorMatrix type="matrix" values="0 0 0 0 0 0 0 0 0 0 0 0 0 0 0 0 0 0 0.25 0"/>
<feBlend mode="normal" in2="BackgroundImageFix" result="effect1_dropShadow"/>
<feBlend mode="normal" in="SourceGraphic" in2="effect1_dropShadow" result="shape"/>
</filter>
<filter id="filter2_d" x="28" y="23.9999" width="65.386" height="63" filterUnits="userSpaceOnUse" color-interpolation-filters="sRGB">
<feFlood flood-opacity="0" result="BackgroundImageFix"/>
<feColorMatrix in="SourceAlpha" type="matrix" values="0 0 0 0 0 0 0 0 0 0 0 0 0 0 0 0 0 0 127 0"/>
<feOffset dx="-2" dy="2"/>
<feGaussianBlur stdDeviation="1"/>
<feColorMatrix type="matrix" values="0 0 0 0 0 0 0 0 0 0 0 0 0 0 0 0 0 0 0.25 0"/>
<feBlend mode="normal" in2="BackgroundImageFix" result="effect1_dropShadow"/>
<feBlend mode="normal" in="SourceGraphic" in2="effect1_dropShadow" result="shape"/>
</filter>
<linearGradient id="paint0_linear" x1="72" y1="16" x2="4" y2="84" gradientUnits="userSpaceOnUse">
<stop stop-color="#153A55"/>
<stop offset="1" stop-color="#0F2A3D"/>
</linearGradient>
<linearGradient id="paint1_linear" x1="80" y1="12" x2="16" y2="76" gradientUnits="userSpaceOnUse">
<stop stop-color="#153A55"/>
<stop offset="1" stop-color="#0F2A3D"/>
</linearGradient>
<linearGradient id="paint2_linear" x1="93.3621" y1="23.9999" x2="26.1131" y2="31.7145" gradientUnits="userSpaceOnUse">
<stop stop-color="#FF6B8B"/>
<stop offset="1" stop-color="#FC2D5A"/>
</linearGradient>
<clipPath id="clip0">
<rect width="96" height="96" fill="white"/>
</clipPath>
</defs>
</svg>
