<svg width="96" height="96" viewBox="0 0 96 96" fill="none" xmlns="http://www.w3.org/2000/svg">
<g clip-path="url(#clip0)">
<g filter="url(#filter0_d)">
<path fill-rule="evenodd" clip-rule="evenodd" d="M10 16H66C69.3137 16 72 18.6863 72 22V78C72 81.3137 69.3137 84 66 84H10C6.68629 84 4 81.3137 4 78V22C4 18.6863 6.68629 16 10 16ZM10 18C7.79086 18 6 19.7909 6 22V78C6 80.2091 7.79086 82 10 82H66C68.2091 82 70 80.2091 70 78V22C70 19.7909 68.2091 18 66 18H10Z" fill="url(#paint0_linear)"/>
</g>
<g filter="url(#filter1_d)">
<rect x="12.002" y="12" width="64" height="64" rx="4" fill="url(#paint1_linear)"/>
</g>
<g filter="url(#filter2_d)">
<path fill-rule="evenodd" clip-rule="evenodd" d="M63.5585 28H63.7352C82.7383 28.6084 91.1941 43.1313 91.0202 56.3673C90.9249 63.5783 88.3988 70.307 83.9046 75.3115C78.844 80.9496 71.7031 83.9523 63.2586 84H63.253H63.2501C52.8626 83.9523 44.519 79.3375 39.7612 71.0051C34.6053 61.9774 34.6698 49.8684 39.921 40.8715C44.7685 32.5671 53.1598 28 63.5585 28ZM45.3853 44.3228C41.3453 51.2478 41.3172 60.5896 45.3096 67.565C48.96 73.9405 55.3607 77.4647 63.3343 77.4899H63.3959C77.8123 77.4899 84.4289 66.4408 84.4737 56.157C84.5382 41.4042 73.6909 34.6138 63.5866 34.5465H63.4464C55.4756 34.5465 49.0637 38.0146 45.3853 44.3228ZM55.7089 65.2227C55.5838 65.934 55.4579 66.6502 55.3275 67.3726C55.3579 68.2329 55.9214 68.0457 56.4977 67.7637C57.0424 67.4967 57.5887 67.232 58.1352 66.9673C59.7867 66.167 61.4393 65.3663 63.0534 64.5026C64.0997 63.9433 64.964 63.9978 65.9825 64.5311C67.6241 65.3884 69.2969 66.1929 70.9703 66.9977C71.4249 67.2163 71.8795 67.4349 72.3335 67.6546C72.3906 67.682 72.4488 67.7131 72.5079 67.7447C72.8172 67.9099 73.1507 68.088 73.4859 67.8134C73.7558 67.5919 73.6879 67.2813 73.6228 66.9835C73.6099 66.9245 73.597 66.8659 73.587 66.8086C73.468 66.1412 73.3543 65.4729 73.2405 64.8046C72.9579 63.1447 72.6754 61.485 72.3133 59.841C72.0934 58.8456 72.4017 58.2034 73.1371 57.5564C74.7412 56.1469 76.3154 54.7057 77.8898 53.2642C78.0864 53.0842 78.2831 52.9041 78.4798 52.7241C78.5193 52.6878 78.5621 52.6515 78.6056 52.6146C78.8457 52.411 79.1068 52.1896 78.9549 51.8425C78.8062 51.5057 78.4339 51.4621 78.0892 51.4217C78.053 51.4175 78.0172 51.4133 77.9819 51.4088C77.3279 51.3255 76.6739 51.2402 76.0197 51.155C74.1436 50.9105 72.2663 50.6659 70.385 50.4656C69.5333 50.3731 69.0076 50.0579 68.6437 49.3399C67.5468 47.1737 66.4146 45.0242 65.2774 42.8747C65.2346 42.7939 65.1998 42.7016 65.1644 42.6081C65.0538 42.3151 64.9383 42.0092 64.5571 42.0002C64.1001 41.9906 63.9461 42.3441 63.8014 42.6764C63.7668 42.7557 63.7328 42.8338 63.6953 42.9055C62.5782 45.0195 61.4713 47.1382 60.3821 49.264C60.0535 49.9063 59.6416 50.3447 58.8126 50.4371C56.8738 50.6546 54.9379 50.9042 53.0026 51.1538C52.3648 51.236 51.7271 51.3182 51.0893 51.3993C51.038 51.4058 50.9856 51.4113 50.9327 51.4169C50.561 51.4561 50.1698 51.4974 50.0304 51.8875C49.9127 52.2168 50.1588 52.4087 50.3932 52.5915C50.4558 52.6403 50.5175 52.6884 50.5712 52.7383C50.8487 52.9957 51.126 53.2532 51.4033 53.5107C52.9748 54.97 54.546 56.4291 56.1464 57.8574C56.7681 58.4096 56.8995 58.9475 56.7327 59.7391C56.3546 61.5493 56.0347 63.3694 55.7089 65.2227Z" fill="url(#paint2_linear)"/>
</g>
</g>
<defs>
<filter id="filter0_d" x="-2" y="14" width="76" height="76" filterUnits="userSpaceOnUse" color-interpolation-filters="sRGB">
<feFlood flood-opacity="0" result="BackgroundImageFix"/>
<feColorMatrix in="SourceAlpha" type="matrix" values="0 0 0 0 0 0 0 0 0 0 0 0 0 0 0 0 0 0 127 0"/>
<feOffset dx="-2" dy="2"/>
<feGaussianBlur stdDeviation="2"/>
<feColorMatrix type="matrix" values="0 0 0 0 0 0 0 0 0 0 0 0 0 0 0 0 0 0 0.25 0"/>
<feBlend mode="normal" in2="BackgroundImageFix" result="effect1_dropShadow"/>
<feBlend mode="normal" in="SourceGraphic" in2="effect1_dropShadow" result="shape"/>
</filter>
<filter id="filter1_d" x="6.00195" y="10" width="72" height="72" filterUnits="userSpaceOnUse" color-interpolation-filters="sRGB">
<feFlood flood-opacity="0" result="BackgroundImageFix"/>
<feColorMatrix in="SourceAlpha" type="matrix" values="0 0 0 0 0 0 0 0 0 0 0 0 0 0 0 0 0 0 127 0"/>
<feOffset dx="-2" dy="2"/>
<feGaussianBlur stdDeviation="2"/>
<feColorMatrix type="matrix" values="0 0 0 0 0 0 0 0 0 0 0 0 0 0 0 0 0 0 0.25 0"/>
<feBlend mode="normal" in2="BackgroundImageFix" result="effect1_dropShadow"/>
<feBlend mode="normal" in="SourceGraphic" in2="effect1_dropShadow" result="shape"/>
</filter>
<filter id="filter2_d" x="31.938" y="28" width="59.0849" height="60" filterUnits="userSpaceOnUse" color-interpolation-filters="sRGB">
<feFlood flood-opacity="0" result="BackgroundImageFix"/>
<feColorMatrix in="SourceAlpha" type="matrix" values="0 0 0 0 0 0 0 0 0 0 0 0 0 0 0 0 0 0 127 0"/>
<feOffset dx="-2" dy="2"/>
<feGaussianBlur stdDeviation="1"/>
<feColorMatrix type="matrix" values="0 0 0 0 0 0 0 0 0 0 0 0 0 0 0 0 0 0 0.25 0"/>
<feBlend mode="normal" in2="BackgroundImageFix" result="effect1_dropShadow"/>
<feBlend mode="normal" in="SourceGraphic" in2="effect1_dropShadow" result="shape"/>
</filter>
<linearGradient id="paint0_linear" x1="72" y1="16" x2="4" y2="84" gradientUnits="userSpaceOnUse">
<stop stop-color="#153A55"/>
<stop offset="1" stop-color="#0F2A3D"/>
</linearGradient>
<linearGradient id="paint1_linear" x1="76.002" y1="12" x2="12.002" y2="76" gradientUnits="userSpaceOnUse">
<stop stop-color="#153A55"/>
<stop offset="1" stop-color="#0F2A3D"/>
</linearGradient>
<linearGradient id="paint2_linear" x1="91.0229" y1="28" x2="28.3468" y2="38.444" gradientUnits="userSpaceOnUse">
<stop stop-color="#FFD15C"/>
<stop offset="1" stop-color="#FF912C"/>
</linearGradient>
<clipPath id="clip0">
<rect width="96" height="96" fill="white"/>
</clipPath>
</defs>
</svg>
