<svg width="164" height="141" viewBox="0 0 164 141" fill="none" xmlns="http://www.w3.org/2000/svg">
<path fill-rule="evenodd" clip-rule="evenodd" d="M11.5609 9.58218H119.463C125.848 9.58218 131.024 14.7582 131.024 21.1431V129.045C131.024 135.43 125.848 140.606 119.463 140.606H11.5609C5.17601 140.606 0 135.43 0 129.045V21.1431C0 14.7582 5.17601 9.58218 11.5609 9.58218ZM11.5609 13.4358C7.30431 13.4358 3.85364 16.8865 3.85364 21.1431V129.045C3.85364 133.302 7.30431 136.752 11.5609 136.752H119.463C123.72 136.752 127.17 133.302 127.17 129.045V21.1431C127.17 16.8865 123.72 13.4358 119.463 13.4358H11.5609Z" fill="url(#paint0_linear)"/>
<rect x="14.998" width="123.317" height="123.317" rx="8" fill="url(#paint1_linear)"/>
<path fill-rule="evenodd" clip-rule="evenodd" d="M47 82.5258C47.0172 114.611 73.4452 141.017 105.526 141C137.611 140.987 164.017 114.555 164 82.4742C163.983 50.3936 137.555 23.9828 105.474 24C73.3936 24.0172 46.9828 50.4452 47 82.5258ZM105.483 38.8776C129.516 38.8647 149.11 58.4449 149.122 82.4828C149.135 106.512 129.555 126.11 105.517 126.122C81.4836 126.135 61.8904 106.555 61.8776 82.5172C61.8647 58.4879 81.4449 38.8904 105.483 38.8776ZM132.989 77.403C132.968 81.5689 131.546 85.1953 128.637 88.2303C126.761 90.1856 124.874 92.1312 122.988 94.0763C121.793 95.3082 120.599 96.5399 119.407 97.7738C118.447 98.7685 117.483 99.7603 116.519 100.752C113.993 103.351 111.467 105.949 109.004 108.601C107.272 110.465 104.767 110.447 103.073 108.662C99.755 105.169 96.4049 101.705 93.0549 98.2406C91.7982 96.9411 90.5415 95.6416 89.2866 94.3407C88.3948 93.4171 87.5019 92.4952 86.6091 91.5736C85.5331 90.4627 84.4573 89.3521 83.3841 88.239C78.0113 82.6767 77.5197 73.9786 82.2253 67.8682C87.0918 61.5501 95.9645 60.1307 102.593 64.6168C103.702 65.3669 104.708 66.2439 105.583 67.2479C105.949 67.6691 106.16 67.6057 106.491 67.2508C107.998 65.6208 109.689 64.2302 111.764 63.3359C115.823 61.5876 119.899 61.527 123.94 63.3215C128.845 65.4967 131.61 69.3655 132.749 74.4575C132.962 75.421 133.03 76.4077 132.989 77.403Z" fill="url(#paint2_linear)"/>
<defs>
<linearGradient id="paint0_linear" x1="130.973" y1="9.58219" x2="-12.7074" y2="25.4242" gradientUnits="userSpaceOnUse">
<stop stop-color="#FF6B8B"/>
<stop offset="1" stop-color="#FC2D5A"/>
</linearGradient>
<linearGradient id="paint1_linear" x1="138.267" y1="3.96699e-06" x2="3.03813" y2="14.9102" gradientUnits="userSpaceOnUse">
<stop stop-color="#FF6B8B"/>
<stop offset="1" stop-color="#FC2D5A"/>
</linearGradient>
<linearGradient id="paint2_linear" x1="164" y1="24" x2="47" y2="141" gradientUnits="userSpaceOnUse">
<stop stop-color="#153A55"/>
<stop offset="1" stop-color="#0F2A3D"/>
</linearGradient>
</defs>
</svg>
