<svg width="96" height="96" viewBox="0 0 96 96" fill="none" xmlns="http://www.w3.org/2000/svg">
<g clip-path="url(#clip0)">
<g filter="url(#filter0_d)">
<path fill-rule="evenodd" clip-rule="evenodd" d="M10 16H66C69.3137 16 72 18.6863 72 22V78C72 81.3137 69.3137 84 66 84H10C6.68629 84 4 81.3137 4 78V22C4 18.6863 6.68629 16 10 16ZM10 18C7.79086 18 6 19.7909 6 22V78C6 80.2091 7.79086 82 10 82H66C68.2091 82 70 80.2091 70 78V22C70 19.7909 68.2091 18 66 18H10Z" fill="url(#paint0_linear)"/>
</g>
<g filter="url(#filter1_d)">
<rect x="12.002" y="12" width="64" height="64" rx="4" fill="url(#paint1_linear)"/>
</g>
<g filter="url(#filter2_d)">
<path fill-rule="evenodd" clip-rule="evenodd" d="M63.5552 46.5285C64.0689 46.3411 64.1407 46.392 64.3535 46.79C64.7685 47.5598 65.2137 48.3231 65.6453 49.0633L65.6454 49.0634L65.6933 49.1456L65.7364 49.2193C66.0585 49.77 66.3898 50.3368 66.7022 50.8972C66.8456 51.154 67.0053 51.4063 67.158 51.6469L67.1797 51.6811L67.1797 51.6811C67.3965 52.0229 67.6058 52.353 67.7804 52.7113C67.6626 52.6836 67.5471 52.6559 67.4316 52.6281L67.431 52.628C66.5356 52.4128 65.6887 52.2092 64.8487 51.9847C63.1202 51.5243 62.5741 52.4614 62.4006 53.0607C62.2664 53.5281 62.2988 53.9423 62.5001 54.2917C62.8287 54.8563 63.509 55.0807 63.9903 55.1988C64.5618 55.3376 65.1333 55.4787 65.7026 55.6199L65.8677 55.6606L65.8679 55.6606C67.3459 56.0252 68.871 56.4013 70.3767 56.7537C70.7145 56.8324 71.0083 56.8763 71.2652 56.874C72.1491 56.874 72.5841 56.3742 72.8919 55.1733C73.1348 54.22 73.3708 53.2643 73.6069 52.3064C73.8799 51.1934 74.1645 50.0434 74.4561 48.9142C74.5857 48.4121 74.7175 47.6809 74.3705 47.1001C74.1599 46.746 73.8082 46.5077 73.3269 46.3897C72.2856 46.1352 71.5845 46.6998 71.2421 48.065C71.0338 48.8933 70.8279 49.724 70.5965 50.6658L70.5548 50.8347C70.4662 50.6784 70.3781 50.5235 70.2907 50.3698C70.184 50.1822 70.0783 49.9964 69.974 49.812L69.9731 49.8103L69.9727 49.8096C69.0939 48.2602 68.2636 46.7962 67.3755 45.3716C66.9775 44.7353 67.0215 44.5085 67.6555 43.9508C70.9829 41.0168 72.5564 37.1063 72.2023 32.6451C71.8899 28.7184 70.0273 25.2452 66.9567 22.8642C63.8722 20.4739 60.0219 19.5345 56.1137 20.2171C50.7501 21.1542 47.0362 24.3937 45.3725 29.5884C43.688 34.8456 44.8797 39.6608 48.8156 43.5112C52.9668 47.5698 57.9255 48.5856 63.5552 46.5285ZM63.3447 35.2205C63.1365 35.1145 63.0616 35.0438 63.0397 35.0231C63.0378 35.0213 63.0363 35.0199 63.0352 35.0189C63.0337 35.0175 63.0327 35.0168 63.0323 35.0168C63.0323 34.9914 63.0554 34.8919 63.2637 34.5911C64.733 32.4785 64.8048 29.954 63.4557 28.008C61.9818 25.8838 59.6239 24.949 57.148 25.5044C54.7462 26.0435 53.02 27.9409 52.6452 30.4538C52.4253 31.9162 52.7933 33.3092 53.735 34.5957C53.9459 34.8832 53.9705 34.9767 53.9749 34.9933L53.9757 34.996L53.9748 34.9973C53.9674 35.0081 53.915 35.0855 53.6563 35.2181C51.8214 36.153 50.8125 37.7681 50.0675 39.2235C50.0004 39.3554 49.961 39.4966 49.9286 39.6192L49.9244 39.6346L49.9244 39.6347C49.9182 39.6571 49.9111 39.6829 49.9055 39.7071C49.8754 39.6539 49.843 39.5937 49.8199 39.5475L49.807 39.523C49.7654 39.4437 49.7251 39.367 49.681 39.2999C47.9225 36.5533 47.5708 33.2027 48.7161 30.1067C49.8638 27.0061 52.3189 24.6899 55.4519 23.7504C56.2687 23.5051 57.3517 23.2298 58.4832 23.2899H58.4901C62.7084 23.4403 65.7974 25.2915 67.6694 28.7924C69.5367 32.2818 69.4141 35.8198 67.3084 39.3045C67.2668 39.3716 67.2275 39.4502 67.1881 39.5289L67.1881 39.529C67.1626 39.5799 67.1256 39.6516 67.0909 39.7094C67.0851 39.6906 67.0802 39.6708 67.0756 39.6524C67.0729 39.6414 67.0703 39.631 67.0678 39.6215C67.0354 39.4989 66.9983 39.36 66.9312 39.2281C66.2324 37.8583 65.1912 36.1645 63.3447 35.2205ZM53.344 54.6896L53.2862 54.4976L53.1339 53.9883C52.5843 52.1506 52.0194 50.2617 51.4836 48.3981C51.1527 47.2458 50.3267 46.7922 49.1628 47.1231L46.8998 47.7618L46.2179 47.954C45.0176 48.2922 43.8175 48.6303 42.619 48.9766C41.8832 49.1895 41.4089 49.5042 41.1752 49.9415C40.9831 50.3001 40.96 50.7166 41.1057 51.1817C41.587 52.7066 43.0818 52.2994 43.5724 52.1651C43.9551 52.0597 44.3401 51.9361 44.7117 51.8169L44.7224 51.8134C45.2476 51.6445 45.7821 51.4733 46.3514 51.3391C46.157 51.6746 45.9649 52.0055 45.7729 52.3341C44.9167 53.8034 44.1092 55.1894 43.3618 56.6356C42.9661 57.4015 42.7579 57.4779 41.8763 57.1724C37.26 55.5758 32.2573 56.5084 28.488 59.6692C24.7233 62.8276 23.0179 67.4902 23.8116 72.4604C24.4062 76.1882 26.3731 79.3976 29.3464 81.4986C31.6766 83.1461 34.4463 83.9999 37.3456 83.9999C38.2573 83.9999 39.1806 83.9143 40.1084 83.7454C44.5697 82.9216 48.3159 79.8534 50.1277 75.538C51.9348 71.2318 51.5021 66.4235 48.973 62.6749C48.1909 61.518 47.2237 60.5646 46.1315 59.5257L46.0691 59.4632C45.7411 59.156 45.7566 59.1278 45.8188 59.0149L45.8192 59.0143C46.5257 57.7561 47.2363 56.4991 47.9694 55.2021L47.9696 55.2016L48.7023 53.9052L49.297 52.8547C49.3224 52.9403 49.3479 53.0259 49.371 53.1115L49.4195 53.2795L49.4198 53.2802C49.6607 54.1141 49.8722 54.846 50.0999 55.592C50.3567 56.4459 50.7779 57.029 51.317 57.2812C51.6803 57.4524 52.076 57.4571 52.4555 57.2951C53.9387 56.6703 53.5222 55.282 53.344 54.6896ZM42.0868 71.2456C43.9773 68.6448 43.6626 65.3567 41.3209 63.2511C39.2315 61.3722 35.8925 61.3236 33.7174 63.1377C31.2809 65.1716 30.8297 68.3278 32.5975 70.9957C32.8428 71.366 32.8613 71.4747 32.8566 71.5025L32.8563 71.5032C32.852 71.5129 32.811 71.6058 32.4633 71.801C30.9199 72.6641 29.7537 74.0432 28.8351 76.1072C27.8308 74.7304 27.2547 73.2379 27.0765 71.565C26.4471 65.6576 30.4155 60.4883 36.1077 59.7987C41.8531 59.1046 47.1265 63.2372 47.8624 69.015C48.1747 71.4539 47.5824 73.8187 46.1061 76.0424C46.0828 76.0782 46.0609 76.1084 46.0415 76.1353L46.0251 76.1581C46.0066 76.1187 45.9858 76.0725 45.9626 76.0146C45.1805 74.1195 43.8894 72.6363 42.1239 71.6112C42.0244 71.5534 41.9688 71.5117 41.9364 71.4863C41.9573 71.44 41.9989 71.366 42.0868 71.2456ZM80.0258 56.4413C85.5676 56.6495 89.7164 59.3869 92.0188 64.3548C94.335 69.3529 93.7773 74.2838 90.3967 78.6085C87.6246 82.1696 84.0288 83.9976 79.88 83.9976C78.8711 83.9976 77.8275 83.8889 76.7539 83.6714C71.6425 82.6301 68.0443 79.3559 66.3459 74.2028L66.3112 74.0964L66.3036 74.0732C66.1781 73.6924 66.036 73.2613 66.0451 72.8191C66.0521 72.4073 65.9803 72.125 65.8299 71.9769C65.6471 71.7987 65.2723 71.7293 64.6128 71.7547C63.0625 71.8103 61.489 71.7987 59.9688 71.7871C59.5022 71.7825 59.0355 71.7802 58.5689 71.7779L58.5666 71.7779L58.9067 72.0833L58.918 72.0935C59.5231 72.6387 60.1484 73.2022 60.7463 73.7817C61.2137 74.2352 61.6903 74.7883 61.688 75.4616C61.688 75.8781 61.5006 76.2692 61.1327 76.6209C59.948 77.7548 58.7841 76.5908 58.3976 76.2044L58.3953 76.2021C57.8474 75.6518 57.2971 75.1039 56.7469 74.5559L56.7455 74.5546C55.8408 73.6544 54.906 72.7219 53.9943 71.7941C52.835 70.6163 52.8258 69.7509 53.9596 68.6032C54.8114 67.7407 55.6848 66.8762 56.5347 66.0351C56.6082 65.9623 56.6816 65.8897 56.7548 65.8172C57.3518 65.2272 57.9487 64.6371 58.5411 64.0448C58.8836 63.7023 59.4135 63.2488 60.0521 63.2488H60.0637C60.4686 63.2534 60.8481 63.4339 61.1905 63.7903C62.3174 64.9565 61.1952 66.0602 60.8249 66.4235C60.228 67.0089 59.6263 67.5943 59.034 68.1682L58.7401 68.4551C58.7679 68.4528 58.7933 68.4528 58.8211 68.4528C59.6333 68.4597 60.4478 68.4574 61.26 68.4551C62.5419 68.4505 63.8677 68.4482 65.1728 68.4759C65.7906 68.4921 65.9387 68.3625 66.0428 67.7146C67.1049 61.1385 73.2506 56.1891 80.0258 56.4413ZM84.4986 70.7366C84.3088 71.0027 84.0728 71.3359 84.0936 71.4979C84.1163 71.6701 84.434 71.8312 84.7471 71.9899L84.767 72C85.0539 72.1435 85.3478 72.2916 85.5953 72.5137C86.6991 73.504 87.5367 74.6633 88.143 76.0424C91.0145 72.1921 90.4777 66.0185 86.8402 62.6634C82.4924 58.6557 76.3281 58.7043 72.1816 62.7768C70.2217 64.7019 69.0902 67.4277 69.074 70.2599C69.0601 72.4906 69.7381 74.506 70.9899 76.0054C72.0567 73.9691 72.9869 72.715 74.6367 71.7686C74.9768 71.5742 75.0231 71.484 75.0277 71.4747C75.0231 71.4585 74.9953 71.3498 74.7454 71.0143C73.1303 68.8346 73.3663 65.5951 75.2846 63.6352C76.4809 62.4158 78.0613 61.7795 79.6255 61.7795C80.7107 61.7795 81.7866 62.0826 82.7215 62.7097C85.1626 64.3433 86.1113 67.3907 84.9775 69.9568C84.8549 70.2345 84.6744 70.489 84.4986 70.7366Z" fill="url(#paint2_linear)"/>
</g>
</g>
<defs>
<filter id="filter0_d" x="-2" y="14" width="76" height="76" filterUnits="userSpaceOnUse" color-interpolation-filters="sRGB">
<feFlood flood-opacity="0" result="BackgroundImageFix"/>
<feColorMatrix in="SourceAlpha" type="matrix" values="0 0 0 0 0 0 0 0 0 0 0 0 0 0 0 0 0 0 127 0"/>
<feOffset dx="-2" dy="2"/>
<feGaussianBlur stdDeviation="2"/>
<feColorMatrix type="matrix" values="0 0 0 0 0 0 0 0 0 0 0 0 0 0 0 0 0 0 0.25 0"/>
<feBlend mode="normal" in2="BackgroundImageFix" result="effect1_dropShadow"/>
<feBlend mode="normal" in="SourceGraphic" in2="effect1_dropShadow" result="shape"/>
</filter>
<filter id="filter1_d" x="6.00195" y="10" width="72" height="72" filterUnits="userSpaceOnUse" color-interpolation-filters="sRGB">
<feFlood flood-opacity="0" result="BackgroundImageFix"/>
<feColorMatrix in="SourceAlpha" type="matrix" values="0 0 0 0 0 0 0 0 0 0 0 0 0 0 0 0 0 0 127 0"/>
<feOffset dx="-2" dy="2"/>
<feGaussianBlur stdDeviation="2"/>
<feColorMatrix type="matrix" values="0 0 0 0 0 0 0 0 0 0 0 0 0 0 0 0 0 0 0.25 0"/>
<feBlend mode="normal" in2="BackgroundImageFix" result="effect1_dropShadow"/>
<feBlend mode="normal" in="SourceGraphic" in2="effect1_dropShadow" result="shape"/>
</filter>
<filter id="filter2_d" x="19.6207" y="20" width="73.8015" height="67.9999" filterUnits="userSpaceOnUse" color-interpolation-filters="sRGB">
<feFlood flood-opacity="0" result="BackgroundImageFix"/>
<feColorMatrix in="SourceAlpha" type="matrix" values="0 0 0 0 0 0 0 0 0 0 0 0 0 0 0 0 0 0 127 0"/>
<feOffset dx="-2" dy="2"/>
<feGaussianBlur stdDeviation="1"/>
<feColorMatrix type="matrix" values="0 0 0 0 0 0 0 0 0 0 0 0 0 0 0 0 0 0 0.25 0"/>
<feBlend mode="normal" in2="BackgroundImageFix" result="effect1_dropShadow"/>
<feBlend mode="normal" in="SourceGraphic" in2="effect1_dropShadow" result="shape"/>
</filter>
<linearGradient id="paint0_linear" x1="72" y1="16" x2="4" y2="84" gradientUnits="userSpaceOnUse">
<stop stop-color="#153A55"/>
<stop offset="1" stop-color="#0F2A3D"/>
</linearGradient>
<linearGradient id="paint1_linear" x1="76.002" y1="12" x2="12.002" y2="76" gradientUnits="userSpaceOnUse">
<stop stop-color="#153A55"/>
<stop offset="1" stop-color="#0F2A3D"/>
</linearGradient>
<linearGradient id="paint2_linear" x1="93.4222" y1="20" x2="14.4906" y2="34.5833" gradientUnits="userSpaceOnUse">
<stop stop-color="#8C79FF"/>
<stop offset="1" stop-color="#6850F9"/>
</linearGradient>
<clipPath id="clip0">
<rect width="96" height="96" fill="white"/>
</clipPath>
</defs>
</svg>
