<svg width="153" height="141" viewBox="0 0 153 141" fill="none" xmlns="http://www.w3.org/2000/svg">
<path fill-rule="evenodd" clip-rule="evenodd" d="M11.5609 9.58218H119.463C125.848 9.58218 131.024 14.7582 131.024 21.1431V129.045C131.024 135.43 125.848 140.606 119.463 140.606H11.5609C5.17601 140.606 0 135.43 0 129.045V21.1431C0 14.7582 5.17601 9.58218 11.5609 9.58218ZM11.5609 13.4358C7.30431 13.4358 3.85364 16.8865 3.85364 21.1431V129.045C3.85364 133.302 7.30431 136.752 11.5609 136.752H119.463C123.72 136.752 127.17 133.302 127.17 129.045V21.1431C127.17 16.8865 123.72 13.4358 119.463 13.4358H11.5609Z" fill="url(#paint0_linear)"/>
<rect x="14.998" width="123.317" height="123.317" rx="8" fill="url(#paint1_linear)"/>
<path d="M153 120.148C152.988 114.794 150.731 109.739 146.814 106.278C139.825 100.101 130.117 99.7319 122.654 105.36C121.707 106.077 121.015 105.934 120.212 105.475C114.223 102.05 108.124 98.589 102.222 95.2382L94.7755 91.0108C91.7278 89.2781 88.6842 87.5495 85.6282 85.8331C84.9692 85.4603 84.2855 84.9606 84.5656 83.7153C84.8868 82.2939 84.8909 80.8069 84.5821 79.4224C84.3102 78.2139 84.8333 77.6364 85.7064 77.1448C96.5259 71.029 107.869 64.5855 120.389 57.4579C121.209 56.9909 121.843 57.0319 122.576 57.6013C126.74 60.8251 131.472 62.1236 136.653 61.46C141.649 60.821 146.085 58.2608 149.137 54.2587C152.234 50.1992 153.535 45.1731 152.794 40.1059C151.34 30.1232 141.999 22.9505 131.975 24.1262C126.888 24.7201 122.37 27.2353 119.248 31.2046C116.151 35.1412 114.796 40.0609 115.43 45.0543C115.574 46.193 115.125 46.6928 114.355 47.1229C111.596 48.6754 108.849 50.2402 106.098 51.805L98.7706 55.9791C92.3497 59.629 85.9247 63.2829 79.5121 66.9491C78.8655 67.3177 78.3053 67.4283 77.531 66.818C73.4989 63.6515 68.8738 62.3161 63.775 62.8487C53.9027 63.885 47.0041 72.1186 47 82.8674C47.14 87.4266 49.4341 92.039 53.2891 95.525C59.9447 101.534 70.5459 101.866 77.4322 96.2787C77.8276 95.9551 78.19 95.7994 78.5689 95.7994C78.8861 95.7994 79.2197 95.91 79.5944 96.1312C81.6414 97.3274 83.7419 98.5153 85.7723 99.6623C86.6002 100.129 87.4239 100.596 88.2517 101.067L94.5284 104.639C101.159 108.412 107.794 112.189 114.429 115.953C115.167 116.371 115.57 116.818 115.443 117.858C114.606 124.736 116.872 130.426 122.176 134.768C129.4 140.679 139.796 140.367 146.896 134.026C150.792 130.557 153.016 125.494 153 120.148Z" fill="url(#paint2_linear)"/>
<defs>
<linearGradient id="paint0_linear" x1="141.28" y1="9.58142" x2="63.0547" y2="21.7232" gradientUnits="userSpaceOnUse">
<stop stop-color="#8DE3FF"/>
<stop offset="1" stop-color="#00BEFB"/>
</linearGradient>
<linearGradient id="paint1_linear" x1="147.967" y1="-0.000715332" x2="74.3436" y2="11.4268" gradientUnits="userSpaceOnUse">
<stop stop-color="#8DE3FF"/>
<stop offset="1" stop-color="#00BEFB"/>
</linearGradient>
<linearGradient id="paint2_linear" x1="153" y1="24" x2="38.3808" y2="129.649" gradientUnits="userSpaceOnUse">
<stop stop-color="#153A55"/>
<stop offset="1" stop-color="#0F2A3D"/>
</linearGradient>
</defs>
</svg>
