<svg width="159" height="141" viewBox="0 0 159 141" fill="none" xmlns="http://www.w3.org/2000/svg">
<path fill-rule="evenodd" clip-rule="evenodd" d="M11.5609 9.58218H119.463C125.848 9.58218 131.024 14.7582 131.024 21.1431V129.045C131.024 135.43 125.848 140.606 119.463 140.606H11.5609C5.17601 140.606 0 135.43 0 129.045V21.1431C0 14.7582 5.17601 9.58218 11.5609 9.58218ZM11.5609 13.4358C7.30431 13.4358 3.85364 16.8865 3.85364 21.1431V129.045C3.85364 133.302 7.30431 136.752 11.5609 136.752H119.463C123.72 136.752 127.17 133.302 127.17 129.045V21.1431C127.17 16.8865 123.72 13.4358 119.463 13.4358H11.5609Z" fill="url(#paint0_linear)"/>
<rect x="14.998" width="123.317" height="123.317" rx="8" fill="url(#paint1_linear)"/>
<path fill-rule="evenodd" clip-rule="evenodd" d="M122.611 24C126.813 24 129.687 26.8549 129.771 31.0956C129.79 32.0708 129.784 33.046 129.771 34.0276L129.764 35.3299V45.7617C129.771 64.8929 129.771 84.0178 129.764 103.149C129.764 105.933 128.943 107.877 127.172 109.276C125.876 110.296 124.305 110.771 122.213 110.771C112.14 110.777 102.073 110.777 92.006 110.777H91.9701H83.0781H50.4485C47.7796 110.777 45.7972 109.892 44.3794 108.076C43.4491 106.883 43 105.478 43 103.784V79.5846V71.841V67.3052V56.7451C43 48.1418 43 39.5385 43.0064 30.9288C43.0064 27.5542 44.8926 25.0906 48.1774 24.1732C48.7415 24.0112 49.3281 24.0063 49.9582 24.0011C50.0017 24.0008 50.0453 24.0004 50.0892 24H57.403H122.611ZM73.7884 55.7507C75.2062 54.0249 77.1052 53.2166 79.7549 53.2166C87.6204 53.2101 95.4795 53.2101 103.339 53.2166H114.149C115.862 53.2166 116.163 52.9214 116.163 51.2406V39.6091C116.163 37.8641 115.868 37.5818 114.085 37.5818H58.6989C56.8769 37.5818 56.5818 37.8769 56.5818 39.6925V60.4662V95.1809C56.5818 96.8746 56.8833 97.1697 58.6027 97.1697H64.319H70.0353C71.9279 97.1697 72.2166 96.881 72.2166 94.9628V86.4108C72.2166 84.2723 72.2162 82.1342 72.2158 79.9962C72.2146 73.5846 72.2134 67.1747 72.223 60.7613C72.223 58.6377 72.7234 57.0467 73.7884 55.7507ZM116.163 82.0931V78.5902C116.163 78.0526 116.163 77.5119 116.163 76.9687C116.162 74.2383 116.161 71.4468 116.183 68.6909C116.189 68.1969 116.138 67.6324 115.746 67.241C115.349 66.8497 114.803 66.8048 114.341 66.7983C106.251 66.8304 97.5196 66.8304 87.6396 66.8048C87.1456 66.8112 86.6131 66.8497 86.2282 67.2346C85.8433 67.6195 85.7983 68.1584 85.7983 68.5883C85.8304 77.3969 85.8304 86.4108 85.7983 95.3862C85.7919 95.816 85.8433 96.3613 86.2282 96.7463C86.6131 97.1248 87.1713 97.1761 87.6396 97.1761C97.5196 97.1505 106.251 97.1505 114.341 97.1825H114.361C114.803 97.1825 115.355 97.1312 115.746 96.7399C116.138 96.3421 116.189 95.7839 116.183 95.2899C116.157 92.0501 116.157 88.7525 116.163 85.5639V82.0931ZM152.052 53.2358C156.196 53.3063 158.987 56.1998 158.987 60.4341C158.987 68.9732 158.987 77.5123 159 86.0451V96.7142V106.748V106.779C159 115.552 159 124.318 158.994 133.091C158.994 136.395 157.165 138.826 153.977 139.776C153.354 139.962 152.706 139.987 152.212 139.987H129.386C112.647 139.987 95.9028 139.987 79.1645 139.981C75.1676 139.974 72.3255 137.126 72.2549 133.052C72.2081 130.478 72.2147 127.86 72.2211 125.312C72.2217 125.067 72.2223 124.821 72.2228 124.577C72.2228 124.008 72.2236 123.439 72.2243 122.871C72.2257 121.733 72.2271 120.595 72.2228 119.457C72.2228 119.22 72.2549 119.143 72.2549 119.143C72.2678 119.137 72.3255 119.111 72.5629 119.105C77.2206 119.124 81.4485 119.124 85.4839 119.105C85.6713 119.115 85.7648 119.135 85.7944 119.141C85.8002 119.142 85.8036 119.143 85.8046 119.143C85.8111 119.149 85.856 119.233 85.8495 119.515C85.8303 120.259 85.8367 121.01 85.8431 121.754C85.8495 122.672 85.856 123.615 85.8175 124.532C85.7982 124.943 85.8239 125.539 86.2281 125.956C86.6258 126.367 87.2096 126.425 87.6844 126.425H87.7036C94.2477 126.403 100.796 126.404 107.342 126.405C108.651 126.405 109.959 126.405 111.268 126.405H117.767H143.397C145.117 126.405 145.418 126.104 145.418 124.391V68.7871C145.418 67.1127 145.13 66.8176 143.481 66.8176L142.223 66.8111C141.017 66.8047 139.766 66.7983 138.534 66.824C138.288 66.8296 138.193 66.7961 138.169 66.7875C138.165 66.7862 138.163 66.7855 138.162 66.7855C138.156 66.7791 138.117 66.7085 138.117 66.4647C138.13 62.5448 138.13 58.3169 138.117 53.5437C138.117 53.3192 138.149 53.2422 138.149 53.2422C138.156 53.2358 138.233 53.2037 138.451 53.2037H138.457C140.175 53.2165 141.886 53.2101 143.603 53.2037L143.609 53.2037C146.374 53.1909 149.242 53.1844 152.052 53.2358Z" fill="url(#paint2_linear)"/>
<defs>
<linearGradient id="paint0_linear" x1="141.28" y1="9.58142" x2="63.0547" y2="21.7232" gradientUnits="userSpaceOnUse">
<stop stop-color="#8DE3FF"/>
<stop offset="1" stop-color="#00BEFB"/>
</linearGradient>
<linearGradient id="paint1_linear" x1="147.967" y1="-0.000715332" x2="74.3436" y2="11.4268" gradientUnits="userSpaceOnUse">
<stop stop-color="#8DE3FF"/>
<stop offset="1" stop-color="#00BEFB"/>
</linearGradient>
<linearGradient id="paint2_linear" x1="159" y1="24" x2="43.0127" y2="140" gradientUnits="userSpaceOnUse">
<stop stop-color="#153A55"/>
<stop offset="1" stop-color="#0F2A3D"/>
</linearGradient>
</defs>
</svg>
