<svg width="18" height="30" viewBox="0 0 18 30" fill="none" xmlns="http://www.w3.org/2000/svg">
<path d="M3.7768 30C3.62295 30 3.53793 29.8848 3.44278 29.793C2.35166 28.7378 1.26965 27.6723 0.168408 26.6282C-0.0917204 26.3815 -0.0228927 26.2296 0.187639 26.0104C1.41338 24.7308 2.62495 23.439 3.84765 22.1563C5.97828 19.9214 8.11497 17.6926 10.2476 15.4587C10.7223 14.9622 10.7163 14.9611 10.2436 14.4666C6.90947 10.9776 3.58044 7.48453 0.236223 4.00571C-0.0633796 3.69473 -0.0411118 3.52446 0.260515 3.24102C1.31722 2.24794 2.35672 1.2355 3.38509 0.211836C3.66243 -0.0644716 3.84057 -0.0777261 4.11892 0.214894C7.6686 3.9639 11.2284 7.70476 14.7852 11.4456C15.7852 12.4968 16.7782 13.5562 17.7944 14.591C18.0747 14.8765 18.0626 15.0549 17.7934 15.3363C14.4724 18.8141 11.1616 22.3021 7.85079 25.7891C6.61898 27.086 5.39324 28.3891 4.16345 29.686C4.04908 29.8063 3.94988 29.9511 3.7768 30Z" fill="white"/>
</svg>
